<svg xmlns="http://www.w3.org/2000/svg" width="621.995" height="469.369" viewBox="0 0 466.496 352.027" xmlns:v="https://vecta.io/nano"><style><![CDATA[.B{fill:#fff}.C{fill:#d6b656}.D{fill:#fff2cc}.E{clip-rule:nonzero}.F{fill:#82b366}.G{fill:#9673a6}.H{fill:#006eaf}]]></style><defs><clipPath id="A"><path d="M331.574 259h206.801v10H331.574zm0 0" class="E"/></clipPath><clipPath id="B"><path d="M331.574 304H473v8H331.574zm0 0" class="E"/></clipPath><clipPath id="C"><path d="M479 304h76.93v10.902H479zm0 0" class="E"/></clipPath><path id="D" d="M221.219 12.707l-.141-.703h-.047c-.242.313-.484.527-.734.641-.242.102-.543.156-.906.156-.48 0-.859-.125-1.141-.375-.273-.25-.406-.609-.406-1.078 0-.988.789-1.504 2.375-1.547l.828-.031v-.297c0-.383-.086-.672-.25-.859s-.434-.281-.797-.281c-.406 0-.867.125-1.375.375l-.234-.562a3.72 3.72 0 0 1 .781-.297 3.2 3.2 0 0 1 .875-.125c.582 0 1.016.133 1.297.391s.422.68.422 1.25v3.344zm-1.672-.516c.457 0 .816-.125 1.078-.375.27-.258.406-.617.406-1.078v-.437l-.75.031c-.586.023-1.008.117-1.266.281-.262.156-.391.406-.391.75 0 .273.078.48.234.625.164.137.395.203.688.203zm0 0"/><path id="E" d="M226.458 11.363c0 .461-.172.813-.516 1.063s-.824.375-1.437.375c-.648 0-1.152-.102-1.516-.312v-.687a3.96 3.96 0 0 0 .766.281 2.94 2.94 0 0 0 .781.109c.383 0 .68-.062.891-.187s.313-.316.313-.578c0-.187-.086-.348-.25-.484s-.492-.297-.969-.484c-.461-.164-.789-.312-.984-.437-.187-.125-.328-.266-.422-.422-.094-.164-.141-.363-.141-.594a1.09 1.09 0 0 1 .484-.937c.332-.227.781-.344 1.344-.344a4.01 4.01 0 0 1 1.547.313l-.266.609c-.492-.207-.934-.312-1.328-.312-.355 0-.621.059-.797.172s-.266.266-.266.453c0 .137.031.25.094.344a.87.87 0 0 0 .313.266c.156.086.445.203.875.359.57.211.961.422 1.172.641.207.211.313.477.313.797zm0 0"/><path id="F" d="M229.725 12.801c-.73 0-1.305-.219-1.719-.656-.418-.445-.625-1.062-.625-1.844 0-.789.191-1.414.578-1.875.395-.469.922-.703 1.578-.703.602 0 1.082.203 1.438.609.363.398.547.93.547 1.594v.469h-3.375c.02.574.164 1.012.438 1.313.27.293.66.438 1.172.438.52 0 1.039-.109 1.563-.328v.656c-.262.117-.512.199-.75.25-.23.051-.512.078-.844.078zm-.203-4.469c-.398 0-.715.133-.953.391-.23.262-.367.617-.406 1.063h2.563c0-.469-.105-.828-.312-1.078s-.508-.375-.891-.375zm0 0"/><path id="G" d="M246.128 10.254c0 .805-.203 1.43-.609 1.875-.398.449-.949.672-1.656.672-.437 0-.828-.102-1.172-.312s-.609-.504-.797-.891c-.18-.383-.266-.832-.266-1.344 0-.801.195-1.422.594-1.859.406-.445.961-.672 1.672-.672.676 0 1.219.23 1.625.688.406.449.609 1.063.609 1.844zm-3.734 0c0 .625.125 1.105.375 1.438.25.324.617.484 1.109.484.477 0 .844-.16 1.094-.484.258-.332.391-.812.391-1.437s-.133-1.098-.391-1.422c-.25-.32-.621-.484-1.109-.484-.48 0-.844.164-1.094.484-.25.313-.375.789-.375 1.422zm0 0"/><path id="H" d="M331.527 191.231l-2.437 6.531h-.734l2.438-6.531zm0 0"/><path id="I" d="M335.764 197.762v-3.172c0-.395-.094-.691-.281-.891-.18-.195-.461-.297-.844-.297-.512 0-.887.141-1.125.422-.242.273-.359.727-.359 1.359v2.578h-.75v-4.906h.609l.125.672h.031c.156-.238.367-.422.641-.547.27-.133.578-.203.922-.203.582 0 1.02.141 1.313.422.301.281.453.734.453 1.359v3.203zm0 0"/><path id="J" d="M338.775 197.762h-.75v-4.906h.75zm-.812-6.234c0-.164.039-.285.125-.359.082-.082.188-.125.313-.125s.227.043.313.125c.082.074.125.195.125.359s-.043.293-.125.375-.187.125-.312.125-.23-.039-.312-.125-.125-.207-.125-.375zm0 0"/><path id="K" d="M341.529 195.246l-1.703-2.391h.844l1.297 1.891 1.281-1.891h.844l-1.703 2.391 1.781 2.516h-.844l-1.359-1.984-1.391 1.984h-.844zm0 0"/><path id="L" d="M363.868 192.778c.219 0 .414.016.594.047l-.109.688c-.199-.039-.375-.062-.531-.062-.398 0-.734.164-1.016.484s-.422.727-.422 1.203v2.625h-.75v-4.906h.625l.078.906h.031a2.22 2.22 0 0 1 .656-.719 1.47 1.47 0 0 1 .844-.266zm0 0"/><path id="M" d="M214.172 206.538h236.562v22.895H214.172zm0 0"/><path id="N" d="M213.672 206.039v23.895h237.562v-23.895zm1 1h235.562v21.895H214.672z"/><path id="O" d="M336.371 261.156v.469l-.906.109c.082.105.156.246.219.422.07.168.109.355.109.563 0 .48-.168.867-.5 1.156-.324.281-.773.422-1.344.422-.148 0-.289-.008-.422-.031-.312.168-.469.375-.469.625 0 .137.051.234.156.297.113.063.305.094.578.094h.859c.531 0 .938.117 1.219.344.289.219.438.539.438.969 0 .539-.219.953-.656 1.234-.437.289-1.074.438-1.906.438-.637 0-1.133-.121-1.484-.359-.344-.242-.516-.578-.516-1.016 0-.293.094-.547.281-.766.195-.219.469-.367.813-.453-.125-.051-.23-.133-.312-.25-.086-.125-.125-.266-.125-.422a.81.81 0 0 1 .141-.469c.094-.133.242-.266.453-.391a1.27 1.27 0 0 1-.625-.531c-.156-.25-.234-.535-.234-.859 0-.539.16-.953.484-1.234.32-.289.773-.437 1.359-.437.258 0 .492.027.703.078zm-3.906 5.734a.66.66 0 0 0 .328.594c.227.133.551.203.969.203.625 0 1.082-.094 1.375-.281.301-.18.453-.43.453-.75 0-.262-.086-.445-.25-.547-.156-.102-.465-.156-.922-.156h-.891c-.336 0-.594.078-.781.234-.187.164-.281.398-.281.703zm.406-4.156c0 .344.094.605.281.781.195.168.469.25.813.25.727 0 1.094-.348 1.094-1.047 0-.738-.371-1.109-1.109-1.109-.344 0-.609.094-.797.281s-.281.469-.281.844zm0 0"/><path id="P" d="M356.807 266.062l-.891-2.875c-.062-.176-.168-.578-.312-1.203h-.047l-.312 1.219-.922 2.859h-.859l-1.328-4.906h.766l.719 2.828.297 1.297h.031c.031-.176.082-.395.156-.656l.188-.656.906-2.812h.797l.875 2.813.344 1.297h.031l.109-.484.922-3.625h.781l-1.359 4.906zm0 0"/><path id="Q" d="M359.665 263.265c0-1.281.25-2.238.75-2.875s1.238-.953 2.219-.953c.344 0 .609.027.797.078v.641c-.23-.07-.492-.109-.781-.109-.699 0-1.234.219-1.609.656-.367.438-.57 1.125-.609 2.063h.063c.32-.52.836-.781 1.547-.781.582 0 1.039.18 1.375.531.344.355.516.84.516 1.453 0 .68-.187 1.215-.562 1.609-.367.387-.859.578-1.484.578-.68 0-1.219-.254-1.625-.766-.398-.508-.594-1.219-.594-2.125zm2.203 2.25c.426 0 .754-.129.984-.391.238-.27.359-.656.359-1.156 0-.437-.109-.773-.328-1.016-.219-.25-.547-.375-.984-.375-.262 0-.508.059-.734.172-.219.105-.398.258-.531.453-.137.188-.203.387-.203.594 0 .313.055.605.172.875.125.262.297.469.516.625a1.3 1.3 0 0 0 .75.219zm0 0"/><path id="R" d="M372.904 262.781c0 1.137-.184 1.984-.547 2.547-.355.555-.898.828-1.625.828-.699 0-1.234-.285-1.609-.859-.367-.57-.547-1.41-.547-2.516 0-1.133.176-1.977.531-2.531s.895-.828 1.625-.828c.707 0 1.242.293 1.609.875.375.574.563 1.402.563 2.484zm-3.578 0c0 .961.109 1.656.328 2.094a1.13 1.13 0 0 0 1.078.641c.5 0 .859-.219 1.078-.656.219-.445.328-1.141.328-2.078s-.109-1.625-.328-2.062-.578-.656-1.078-.656a1.13 1.13 0 0 0-1.078.656c-.219.43-.328 1.117-.328 2.063zm0 0"/><path id="S" d="M376 265.531c.488 0 .848-.129 1.078-.391.227-.27.348-.719.359-1.344v-.172c0-.687-.117-1.18-.344-1.484s-.602-.453-1.109-.453c-.437 0-.773.172-1 .516-.23.336-.344.813-.344 1.438 0 .617.113 1.086.344 1.406s.566.484 1.016.484zm-.109.625c-.637 0-1.133-.223-1.484-.672s-.531-1.066-.531-1.859c0-.801.176-1.426.531-1.875.363-.445.863-.672 1.5-.672.664 0 1.18.25 1.547.75h.031l.109-.672h.594v7.109h-.75v-2.094c0-.301.016-.555.047-.766h-.047c-.344.5-.859.75-1.547.75zm0 0"/><path id="T" d="M383.111 266.062v-3.172c0-.395-.094-.691-.281-.891-.18-.195-.461-.297-.844-.297-.523 0-.902.141-1.141.422-.23.281-.344.742-.344 1.375v2.563h-.75v-6.953h.75v2.109c0 .25-.012.461-.031.625h.031c.145-.238.352-.426.625-.562s.578-.203.922-.203c.602 0 1.051.148 1.344.438.301.281.453.73.453 1.344v3.203zm0 0"/><path id="U" d="M387.654 266.156a2.24 2.24 0 0 1-.875-.172c-.262-.125-.48-.305-.656-.547h-.062c.039.281.063.555.063.813v2.016h-.75v-7.109h.609l.109.672h.031c.188-.258.406-.445.656-.562.258-.125.551-.187.875-.187.656 0 1.156.227 1.5.672.352.438.531 1.059.531 1.859s-.18 1.43-.531 1.875-.855.672-1.5.672zm-.109-4.453c-.5 0-.867.141-1.094.422-.219.273-.328.711-.328 1.313v.172c0 .688.113 1.184.344 1.484.227.293.598.438 1.109.438a1.14 1.14 0 0 0 .984-.516c.238-.344.359-.816.359-1.422s-.121-1.066-.359-1.391c-.242-.332-.578-.5-1.016-.5zm0 0"/><path id="V" d="M392.952 266.156c-.711 0-1.262-.219-1.656-.656-.387-.437-.578-1.055-.578-1.859 0-.812.195-1.441.594-1.891s.957-.672 1.688-.672a3.43 3.43 0 0 1 .703.078 2.05 2.05 0 0 1 .563.172l-.234.625c-.168-.062-.352-.113-.547-.156-.187-.039-.355-.062-.5-.062-1 0-1.5.637-1.5 1.906 0 .594.117 1.055.359 1.375.25.324.613.484 1.094.484.406 0 .82-.086 1.25-.266v.656c-.336.176-.746.266-1.234.266zm0 0"/><path id="W" d="M410.294 261.062c0 .418-.121.762-.359 1.031-.23.262-.559.438-.984.531v.031c.52.063.906.23 1.156.5.258.273.391.625.391 1.063 0 .617-.219 1.094-.656 1.438-.43.336-1.043.5-1.844.5-.344 0-.664-.027-.953-.078a3.01 3.01 0 0 1-.828-.281v-.703c.281.137.582.242.906.313a4.03 4.03 0 0 0 .906.109c1.133 0 1.703-.441 1.703-1.328 0-.789-.625-1.187-1.875-1.187h-.641v-.641h.641c.508 0 .914-.109 1.219-.328.301-.227.453-.539.453-.937 0-.32-.109-.57-.328-.75-.219-.187-.516-.281-.891-.281-.293 0-.57.043-.828.125-.25.074-.539.215-.859.422l-.375-.5a3.19 3.19 0 0 1 .922-.484 3.29 3.29 0 0 1 1.109-.187c.633 0 1.129.148 1.484.438.352.281.531.68.531 1.188zm0 0"/><path id="X" d="M421.4 266.062h-4.297v-.641l1.719-1.734 1.031-1.125c.164-.227.289-.445.375-.656.082-.219.125-.453.125-.703 0-.352-.105-.629-.312-.828-.211-.207-.5-.312-.875-.312a2.12 2.12 0 0 0-.781.141c-.242.086-.512.246-.812.484l-.391-.5c.602-.5 1.258-.75 1.969-.75.613 0 1.094.156 1.438.469.352.313.531.734.531 1.266 0 .418-.121.828-.359 1.234-.23.406-.664.918-1.297 1.531l-1.437 1.406v.031h3.375zm0 0"/><path id="Y" d="M429.023 263.546c.133-.176.332-.41.594-.703l1.578-1.687h.875l-1.984 2.094 2.125 2.813h-.891l-1.734-2.312-.562.484v1.828h-.734v-6.953h.734v3.688l-.031.75zm0 0"/><path id="Z" d="M458.156 261.156h.797l1.063 2.797c.238.637.383 1.102.438 1.391h.047c.031-.156.109-.414.234-.781l1.219-3.406h.797l-2.109 5.578c-.211.551-.453.941-.734 1.172-.281.238-.625.359-1.031.359-.219 0-.437-.027-.656-.078v-.594c.156.031.336.047.547.047.508 0 .875-.289 1.094-.859l.266-.687zm0 0"/><path id="a" d="M465.238 262.062c.688 0 1.227.172 1.625.516s.594.813.594 1.406c0 .68-.215 1.211-.641 1.594s-1.023.578-1.781.578c-.742 0-1.305-.117-1.687-.359v-.719c.207.137.469.246.781.328a3.96 3.96 0 0 0 .922.109c.52 0 .926-.125 1.219-.375s.438-.609.438-1.078c0-.906-.562-1.359-1.687-1.359-.281 0-.656.043-1.125.125l-.391-.25.25-3.047h3.25v.672h-2.625l-.156 1.969c.344-.07.68-.109 1.016-.109zm0 0"/><path id="b" d="M486.626 264.562h-.969v1.5h-.703v-1.5h-3.187v-.656l3.109-4.422h.781v4.406h.969zm-1.672-.672v-2.172l.047-1.453h-.047a5.53 5.53 0 0 1-.391.719l-2.047 2.906zm0 0"/><path id="c" d="M498.422 263.953v-.687h2.203v.688zm0 0"/><path id="d" d="M507.617 266.062h-.75v-6.953h.75zm0 0"/><path id="e" d="M225.398 243.549v-3.187c0-.383-.086-.676-.25-.875s-.43-.297-.781-.297c-.461 0-.797.137-1.016.406-.219.262-.328.668-.328 1.219v2.734h-.75v-3.187c0-.383-.086-.676-.25-.875s-.43-.297-.781-.297c-.469 0-.812.141-1.031.422-.211.281-.312.734-.312 1.359v2.578h-.75v-4.906h.609l.125.672h.031c.133-.238.328-.422.578-.547.258-.133.551-.203.875-.203.758 0 1.258.277 1.5.828h.031a1.54 1.54 0 0 1 .625-.609c.281-.145.598-.219.953-.219.563 0 .977.141 1.25.422.281.281.422.734.422 1.359v3.203zm0 0"/><path id="f" d="M229.885 239.221h-1.25v4.328h-.75v-4.328h-.875v-.328l.875-.266v-.281c0-1.195.523-1.797 1.578-1.797.258 0 .566.055.922.156l-.203.594c-.281-.094-.523-.141-.719-.141-.281 0-.492.094-.625.281s-.203.484-.203.891v.313h1.25zm0 0"/><path id="g" d="M259.892 243.549l-1.859-4.906h.797l1.047 2.906.422 1.328h.047c.031-.156.129-.477.297-.969l1.188-3.266h.797l-1.859 4.906zm0 0"/><path id="h" d="M266.745 242.893h-.047c-.344.5-.855.75-1.531.75-.648 0-1.148-.219-1.5-.656s-.531-1.062-.531-1.875c0-.801.176-1.426.531-1.875.363-.445.863-.672 1.5-.672.664 0 1.176.242 1.531.719h.047l-.031-.359-.016-.344v-1.984h.75v6.953h-.609zm-1.484.125c.5 0 .863-.133 1.094-.406.227-.281.344-.727.344-1.344v-.156c0-.695-.117-1.191-.344-1.484-.23-.301-.602-.453-1.109-.453-.437 0-.773.172-1 .516-.23.336-.344.813-.344 1.438s.113 1.102.344 1.422c.227.313.566.469 1.016.469zm0 0"/><path id="i" d="M308.684 243.549h-3.562v-.5l2.688-3.828h-2.516v-.578h3.328v.578l-2.641 3.75h2.703zm0 0"/><path id="j" d="M405.548 243.549h-.734v-4.656l.047-1.109-.219.203c-.074.074-.43.367-1.062.875l-.391-.516 1.734-1.328h.625zm0 0"/><path id="k" d="M408.253 243.08c0-.207.047-.359.141-.453.094-.102.223-.156.391-.156.176 0 .313.055.406.156.094.094.141.246.141.453 0 .188-.047.336-.141.438s-.23.156-.406.156c-.148 0-.273-.047-.375-.141s-.156-.242-.156-.453zm0 0"/><path id="l" d="M431.699 311.849l2.703-5.859h-3.562v-.672h4.344v.594l-2.672 5.938zm0 0"/><path id="m" d="M529.285 308.099c0 2.563-.992 3.844-2.969 3.844-.355 0-.633-.031-.828-.094v-.641c.238.086.508.125.813.125.719 0 1.258-.219 1.625-.656.363-.445.563-1.129.594-2.047h-.047c-.168.242-.387.43-.656.563-.273.125-.578.188-.922.188-.574 0-1.031-.172-1.375-.516s-.516-.828-.516-1.453c0-.676.188-1.207.563-1.594.383-.395.891-.594 1.516-.594.438 0 .82.117 1.156.344.332.219.586.547.766.984.188.438.281.953.281 1.547zm-2.203-2.25c-.43 0-.762.141-1 .422-.23.273-.344.652-.344 1.141 0 .43.102.766.313 1.016.219.242.551.359 1 .359.27 0 .516-.051.734-.156a1.49 1.49 0 0 0 .547-.453c.133-.195.203-.398.203-.609 0-.312-.062-.598-.187-.859-.125-.27-.297-.477-.516-.625-.219-.156-.469-.234-.75-.234zm0 0"/><path id="n" d="M540.052 305.224c.594 0 1.063.141 1.406.422.352.273.531.652.531 1.141 0 .324-.102.621-.297.891-.199.262-.516.5-.953.719.531.25.906.516 1.125.797a1.47 1.47 0 0 1 .344.969c0 .543-.195.977-.578 1.297-.375.324-.891.484-1.547.484-.699 0-1.234-.148-1.609-.453-.375-.312-.562-.75-.562-1.312 0-.75.453-1.332 1.359-1.75-.406-.227-.703-.477-.891-.75a1.59 1.59 0 0 1-.266-.906c0-.469.176-.844.531-1.125s.82-.422 1.406-.422zm-1.406 4.969c0 .367.117.648.359.844.25.199.602.297 1.063.297.438 0 .781-.102 1.031-.312s.375-.492.375-.859c0-.289-.121-.547-.359-.766-.23-.227-.633-.445-1.203-.656-.449.188-.773.402-.969.641a1.2 1.2 0 0 0-.297.813zm1.406-4.375c-.375 0-.672.094-.891.281-.211.18-.312.414-.312.703 0 .281.086.523.266.719.176.188.5.383.969.578.426-.176.727-.363.906-.562.176-.207.266-.453.266-.734a.88.88 0 0 0-.328-.719c-.211-.176-.5-.266-.875-.266zm0 0"/><path id="o" d="M15.762 48.573V31.023h129.73v17.551"/><path id="p" d="M15.262 30.523v18.051h1V31.523h128.73v17.051h1V30.523z"/><path id="q" d="M15.762 48.074v1h129.73v-1z"/><path id="r" d="M96.714 81.007h-1.828v-3.891c0-.477-.09-.836-.266-1.078-.168-.238-.434-.359-.797-.359-.512 0-.883.172-1.109.516-.23.336-.344.891-.344 1.672v3.141h-1.812v-6.656h1.391l.25.844h.094c.195-.32.473-.562.828-.719a2.93 2.93 0 0 1 1.219-.25c.781 0 1.367.211 1.766.625.406.418.609 1.023.609 1.813zm0 0"/><path id="s" d="M102.817 81.007l-.359-.906h-.047c-.305.387-.617.656-.937.813-.324.145-.746.219-1.266.219-.648 0-1.152-.18-1.516-.547-.367-.375-.547-.895-.547-1.562 0-.707.242-1.227.734-1.562.5-.344 1.242-.531 2.234-.562l1.156-.031v-.297c0-.676-.344-1.016-1.031-1.016-.531 0-1.156.164-1.875.484l-.609-1.234c.77-.395 1.625-.594 2.563-.594.883 0 1.566.199 2.047.594.477.387.719.977.719 1.766v4.438zm-.547-3.094l-.703.031c-.523.023-.914.121-1.172.297-.262.168-.391.43-.391.781 0 .523.297.781.891.781.414 0 .75-.117 1-.359.25-.25.375-.57.375-.969zm0 0"/><path id="t" d="M120.712 75.507c-.387 0-.687.125-.906.375-.219.242-.344.586-.375 1.031h2.547c-.012-.445-.133-.789-.359-1.031-.219-.25-.523-.375-.906-.375zm.25 5.625c-1.074 0-1.914-.297-2.516-.891s-.906-1.43-.906-2.516c0-1.113.273-1.973.828-2.578.563-.613 1.336-.922 2.328-.922.938 0 1.664.273 2.188.813.531.531.797 1.266.797 2.203v.891h-4.297c.02.512.172.914.453 1.203.289.293.691.438 1.203.438a4.84 4.84 0 0 0 1.141-.125 6.15 6.15 0 0 0 1.125-.391v1.406c-.324.156-.668.273-1.031.344-.355.082-.793.125-1.312.125zm0 0"/><path id="u" d="M127.27 81.132c-.781 0-1.398-.301-1.844-.906-.449-.613-.672-1.457-.672-2.531 0-1.094.223-1.941.672-2.547.457-.613 1.086-.922 1.891-.922.844 0 1.484.324 1.922.969h.063c-.094-.488-.141-.93-.141-1.328v-2.125h1.828v9.266h-1.406l-.344-.859h-.078c-.418.656-1.047.984-1.891.984zm.641-1.453c.457 0 .797-.133 1.016-.406s.336-.727.359-1.375v-.203c0-.707-.109-1.219-.328-1.531s-.578-.469-1.078-.469a1.08 1.08 0 0 0-.953.516c-.219.344-.328.844-.328 1.5s.109 1.152.328 1.484c.227.324.555.484.984.484zm0 0"/><path id="v" d="M41.364 79.023c0 .688-.242 1.215-.719 1.578-.469.355-1.172.531-2.109.531-.492 0-.906-.039-1.25-.109-.344-.062-.664-.156-.953-.281v-1.5c.332.156.707.293 1.125.406.426.105.801.156 1.125.156.664 0 1-.191 1-.578 0-.145-.047-.258-.141-.344-.086-.094-.234-.195-.453-.312-.211-.113-.496-.242-.859-.391-.512-.219-.887-.414-1.125-.594-.242-.187-.418-.395-.531-.625-.105-.238-.156-.531-.156-.875 0-.594.227-1.051.688-1.375s1.109-.484 1.953-.484c.801 0 1.582.172 2.344.516l-.547 1.313c-.336-.145-.648-.258-.937-.344-.293-.094-.59-.141-.891-.141-.531 0-.797.148-.797.438 0 .156.082.297.25.422.176.117.555.293 1.141.531.52.211.898.406 1.141.594.238.18.414.387.531.625s.172.523.172.844zm0 0"/><path id="w" d="M55.017 81.007h-1.828v-3.891c0-.957-.355-1.437-1.062-1.437-.512 0-.883.172-1.109.516s-.344.902-.344 1.672v3.141h-1.812v-9.266h1.813v1.891l-.031 1.031-.047.531h.094c.406-.645 1.051-.969 1.938-.969.781 0 1.375.211 1.781.625s.609 1.023.609 1.813zm0 0"/><path id="x" d="M76.358 107.854c0-.27.055-.473.172-.609.125-.133.301-.203.531-.203s.406.07.531.203c.133.137.203.34.203.609 0 .25-.07.449-.203.594-.125.133-.305.203-.531.203-.199 0-.367-.062-.5-.187s-.203-.328-.203-.609zm3.156 0c0-.27.055-.473.172-.609.125-.133.301-.203.531-.203s.406.07.531.203c.133.137.203.34.203.609 0 .25-.07.449-.203.594-.125.133-.305.203-.531.203-.199 0-.367-.062-.5-.187s-.203-.328-.203-.609zm3.172 0c0-.27.055-.473.172-.609.125-.133.301-.203.531-.203s.406.07.531.203c.133.137.203.34.203.609 0 .25-.07.449-.203.594-.125.133-.305.203-.531.203-.199 0-.367-.062-.5-.187s-.203-.328-.203-.609zm0 0"/><path id="y" d="M167.883 48.574v74.523h130.73V48.574h-1v73.523h-128.73V48.574z"/><path id="z" d="M261.293 74.351v.922l-1.047.266c.195.305.297.637.297 1 0 .719-.25 1.277-.75 1.672s-1.195.594-2.078.594l-.328-.016-.266-.031c-.187.148-.281.309-.281.484 0 .262.332.391 1 .391h1.125c.738 0 1.297.156 1.672.469.383.313.578.777.578 1.391 0 .77-.328 1.367-.984 1.797-.648.438-1.574.656-2.781.656-.937 0-1.652-.168-2.141-.5-.492-.324-.734-.777-.734-1.359 0-.398.125-.73.375-1s.617-.461 1.109-.578c-.187-.082-.355-.211-.5-.391-.137-.176-.203-.367-.203-.578 0-.25.07-.457.219-.625.145-.176.359-.344.641-.5-.344-.156-.621-.398-.828-.734s-.312-.723-.312-1.172c0-.727.234-1.289.703-1.687.477-.395 1.156-.594 2.031-.594.188 0 .406.016.656.047l.5.078zm-5.141 7.594c0 .25.117.445.359.594s.578.219 1.016.219c.645 0 1.148-.094 1.516-.281.375-.18.563-.418.563-.719a.54.54 0 0 0-.328-.531c-.219-.094-.559-.141-1.016-.141h-.937c-.336 0-.617.078-.844.234a.73.73 0 0 0-.328.625zm.656-5.422c0 .367.082.652.25.859s.414.313.75.313c.344 0 .594-.102.75-.312.164-.207.25-.492.25-.859 0-.801-.336-1.203-1-1.203s-1 .402-1 1.203zm0 0"/><path id="AA" d="M262.316 72.616c0-.582.328-.875.984-.875.664 0 1 .293 1 .875 0 .293-.086.516-.25.672s-.418.234-.75.234c-.656 0-.984-.301-.984-.906zm1.891 8.391h-1.812v-6.656h1.813zm0 0"/><path id="AB" d="M404.714 81.007h-1.812v-9.266h1.813zm0 0"/><path id="AC" d="M211.614 286.663l-6.867 3.434 1.715-3.434-1.715-3.434zm0 0"/><path id="AD" d="M201.395 279.877l3.389 6.787-3.389 6.785 13.572-6.785zm6.701 6.707l.162.08-.162.08.041-.08z"/></defs><path d="M.5 18.05V.499h465.496V18.05" class="B"/><path d="M0 0V18.05h1V1h464.496V18.05h1V0z"/><path d="M0 18.051v333.977h466.496V18.051h-1v332.977H1V18.051z"/><path d="M.5 17.551v1h465.496v-1zM212.405 6.176h1.844c.863 0 1.488.133 1.875.391.383.25.578.656.578 1.219 0 .387-.109.711-.328.969-.211.25-.523.414-.937.484v.047c.988.168 1.484.688 1.484 1.563 0 .586-.199 1.043-.594 1.375-.387.324-.937.484-1.656.484h-2.266zm.75 2.797h1.25c.539 0 .926-.082 1.156-.25.238-.176.359-.461.359-.859 0-.363-.133-.625-.391-.781-.262-.164-.68-.25-1.25-.25h-1.125zm0 .641v2.453h1.359c.531 0 .926-.102 1.188-.312.27-.207.406-.523.406-.953 0-.406-.137-.703-.406-.891-.273-.195-.687-.297-1.25-.297zm0 0"/><use href="#D"/><use href="#E"/><use href="#F"/><path d="M240.227 12.707h-.766V9.629h-3.437v3.078h-.75V6.176h.75v2.781h3.438V6.176h.766zm0 0"/><use href="#G"/><use href="#E" x="24.128"/><path d="M253.369 12.191c.125 0 .25-.008.375-.031a2.12 2.12 0 0 0 .297-.062v.563c-.086.043-.203.07-.359.094-.156.031-.297.047-.422.047-.949 0-1.422-.5-1.422-1.5V8.379h-.703V8.02l.703-.297.313-1.047h.422v1.125h1.422v.578h-1.422v2.891c0 .293.066.523.203.688.145.156.344.234.594.234zm0 0"/><path d="M214.172 206.538v-22.895h236.562v22.895" class="B"/><path d="M213.672 183.144v23.395h1v-22.395h235.562v22.395h1v-23.395z"/><path d="M213.672 206.539v92.074h237.563v-92.074h-1v91.074H214.672v-91.074z"/><path d="M214.172 206.039v1h236.563v-1zm84.626-9.761c0 .512-.18.902-.531 1.172s-.891.406-1.609.406c-.355 0-.664-.027-.922-.078s-.5-.125-.719-.219v-1.125a4.95 4.95 0 0 0 .844.297 3.29 3.29 0 0 0 .844.125c.5 0 .75-.145.75-.437 0-.102-.039-.187-.109-.25-.062-.07-.18-.148-.344-.234l-.625-.297c-.387-.156-.672-.301-.859-.437-.18-.145-.309-.305-.391-.484a1.56 1.56 0 0 1-.125-.656 1.17 1.17 0 0 1 .516-1.016c.344-.25.832-.375 1.469-.375a4.28 4.28 0 0 1 1.766.391l-.422.984-.703-.25a2.14 2.14 0 0 0-.656-.109c-.406 0-.609.109-.609.328 0 .117.063.219.188.313.133.094.422.227.859.391.383.168.664.32.844.453a1.27 1.27 0 0 1 .406.469 1.36 1.36 0 0 1 .141.641zm5.676 1.484h-1.359v-2.922c0-.719-.273-1.078-.812-1.078-.375 0-.652.133-.828.391-.168.262-.25.68-.25 1.25v2.359h-1.359v-6.953h1.359v1.406l-.031.781-.031.406h.078c.301-.488.781-.734 1.438-.734.594 0 1.039.164 1.344.484.301.313.453.762.453 1.344zm4.582 0l-.266-.672h-.031c-.23.281-.469.48-.719.594-.242.113-.555.172-.937.172-.48 0-.859-.133-1.141-.406-.273-.281-.406-.676-.406-1.187 0-.531.18-.922.547-1.172.375-.25.938-.383 1.688-.406l.859-.031v-.219c0-.508-.262-.766-.781-.766-.398 0-.867.121-1.406.359l-.453-.922c.582-.289 1.223-.437 1.922-.437.664 0 1.176.148 1.531.438.363.293.547.734.547 1.328v3.328zm-.406-2.312l-.531.016c-.398.012-.695.086-.891.219-.187.125-.281.324-.281.594 0 .387.223.578.672.578.313 0 .563-.086.75-.266.188-.187.281-.43.281-.734zm5.546-2.782c.188 0 .344.016.469.047l-.109 1.281a1.47 1.47 0 0 0-.406-.047c-.43 0-.766.117-1.016.344-.242.219-.359.527-.359.922v2.547h-1.359v-5h1.031l.203.844h.063c.156-.281.363-.504.625-.672.27-.176.555-.266.859-.266zm3.256.969c-.281 0-.508.094-.672.281-.168.18-.262.438-.281.781h1.906c0-.344-.09-.602-.266-.781-.168-.187-.398-.281-.687-.281zm.203 4.219c-.812 0-1.449-.223-1.906-.672-.449-.445-.672-1.078-.672-1.891 0-.832.207-1.477.625-1.937.426-.457 1.008-.687 1.75-.687.707 0 1.254.203 1.641.609.395.398.594.949.594 1.656v.672h-3.219c.008.387.117.688.328.906.219.219.523.328.922.328a3.75 3.75 0 0 0 .844-.094 4.29 4.29 0 0 0 .844-.297v1.047c-.242.125-.496.215-.766.266-.273.063-.602.094-.984.094zm4.723 0a1.64 1.64 0 0 1-1.391-.687c-.336-.457-.5-1.086-.5-1.891 0-.82.172-1.461.516-1.922s.813-.687 1.406-.687c.633 0 1.113.246 1.438.734h.047c-.062-.375-.094-.707-.094-1v-1.594h1.359v6.953h-1.047l-.266-.641h-.047c-.312.492-.789.734-1.422.734zm.484-1.094c.344 0 .594-.098.75-.297.164-.207.258-.551.281-1.031v-.156c0-.531-.086-.91-.25-1.141-.168-.238-.437-.359-.812-.359a.79.79 0 0 0-.703.391c-.168.262-.25.637-.25 1.125s.082.859.25 1.109c.164.242.41.359.734.359zm0 0"/><use href="#H"/><use href="#I"/><use href="#J"/><use href="#K"/><use href="#H" x="16.097"/><use href="#E" x="125.215" y="185.055"/><path d="M354.464 197.246c.125 0 .25-.008.375-.031a2.12 2.12 0 0 0 .297-.062v.563c-.086.043-.203.07-.359.094-.156.031-.297.047-.422.047-.949 0-1.422-.5-1.422-1.5v-2.922h-.703v-.359l.703-.297.313-1.047h.422v1.125h1.422v.578h-1.422v2.891c0 .293.066.523.203.688.145.156.344.234.594.234zm0 0"/><use href="#G" x="114.209" y="185.055"/><use href="#L"/><use href="#F" x="137.541" y="185.055"/><use href="#M" fill="#d5e8d4"/><use href="#N" class="F"/><g clip-path="url(#A)" transform="translate(-113.207 -45.407)"><use href="#O"/><path d="M341.388 261.156v.469l-.906.109c.082.105.156.246.219.422a1.45 1.45 0 0 1 .109.563c0 .48-.168.867-.5 1.156-.324.281-.773.422-1.344.422-.148 0-.289-.008-.422-.031-.312.168-.469.375-.469.625 0 .137.051.234.156.297.113.063.305.094.578.094h.859c.531 0 .938.117 1.219.344.289.219.438.539.438.969 0 .539-.219.953-.656 1.234-.437.289-1.074.438-1.906.438-.637 0-1.133-.121-1.484-.359-.344-.242-.516-.578-.516-1.016a1.14 1.14 0 0 1 .281-.766c.195-.219.469-.367.813-.453-.125-.051-.23-.133-.312-.25-.086-.125-.125-.266-.125-.422a.81.81 0 0 1 .141-.469c.094-.133.242-.266.453-.391a1.27 1.27 0 0 1-.625-.531c-.156-.25-.234-.535-.234-.859 0-.539.16-.953.484-1.234.32-.289.773-.437 1.359-.437a2.99 2.99 0 0 1 .703.078zm-3.906 5.734a.66.66 0 0 0 .328.594c.227.133.551.203.969.203.625 0 1.082-.094 1.375-.281.301-.18.453-.43.453-.75 0-.262-.086-.445-.25-.547-.156-.102-.465-.156-.922-.156h-.891c-.336 0-.594.078-.781.234-.187.164-.281.398-.281.703zm.406-4.156c0 .344.094.605.281.781.195.168.469.25.813.25.727 0 1.094-.348 1.094-1.047 0-.738-.371-1.109-1.109-1.109-.344 0-.609.094-.797.281s-.281.469-.281.844zm7.861 3.328v-3.172c0-.395-.094-.691-.281-.891-.18-.195-.461-.297-.844-.297-.512 0-.887.141-1.125.422-.242.273-.359.727-.359 1.359v2.578h-.75v-4.906h.609l.125.672h.031c.156-.238.367-.422.641-.547.27-.133.578-.203.922-.203.582 0 1.02.141 1.313.422.301.281.453.734.453 1.359v3.203zm3.449-2.516l-1.703-2.391h.844l1.297 1.891 1.281-1.891h.844l-1.703 2.391 1.781 2.516h-.844l-1.359-1.984-1.391 1.984h-.844zm0 0"/><use href="#P"/><use href="#Q"/><path d="M367.401 261.078c.219 0 .414.016.594.047l-.109.688c-.199-.039-.375-.062-.531-.062-.398 0-.734.164-1.016.484s-.422.727-.422 1.203v2.625h-.75v-4.906h.625l.078.906h.031a2.22 2.22 0 0 1 .656-.719 1.47 1.47 0 0 1 .844-.266zm0 0"/><use href="#R"/><use href="#S"/><use href="#T"/><use href="#U"/><use href="#V"/><path d="M398.703 266.062v-3.172c0-.395-.094-.691-.281-.891-.18-.195-.461-.297-.844-.297-.523 0-.902.141-1.141.422-.23.281-.344.742-.344 1.375v2.563h-.75v-6.953h.75v2.109l-.031.625h.031c.145-.238.352-.426.625-.562s.578-.203.922-.203c.602 0 1.051.148 1.344.438.301.281.453.73.453 1.344v3.203zm4.543.094a2.24 2.24 0 0 1-.875-.172c-.262-.125-.48-.305-.656-.547h-.062c.039.281.063.555.063.813v2.016h-.75v-7.109h.609l.109.672h.031c.188-.258.406-.445.656-.562.258-.125.551-.187.875-.187.656 0 1.156.227 1.5.672.352.438.531 1.059.531 1.859s-.18 1.43-.531 1.875-.855.672-1.5.672zm-.109-4.453c-.5 0-.867.141-1.094.422-.219.273-.328.711-.328 1.313v.172c0 .688.113 1.184.344 1.484.227.293.598.438 1.109.438a1.14 1.14 0 0 0 .984-.516c.238-.344.359-.816.359-1.422s-.121-1.066-.359-1.391c-.242-.332-.578-.5-1.016-.5zm0 0"/><use href="#W"/><path d="M415.171 266.062v-3.172c0-.395-.094-.691-.281-.891-.18-.195-.461-.297-.844-.297-.512 0-.887.141-1.125.422-.242.273-.359.727-.359 1.359v2.578h-.75v-4.906h.609l.125.672h.031c.156-.238.367-.422.641-.547.27-.133.578-.203.922-.203.582 0 1.02.141 1.313.422.301.281.453.734.453 1.359v3.203zm0 0"/><use href="#X"/><path d="M426.027 266.062v-3.172c0-.395-.094-.691-.281-.891-.18-.195-.461-.297-.844-.297-.512 0-.887.141-1.125.422-.242.273-.359.727-.359 1.359v2.578h-.75v-4.906h.609l.125.672h.031c.156-.238.367-.422.641-.547.27-.133.578-.203.922-.203.582 0 1.02.141 1.313.422.301.281.453.734.453 1.359v3.203zm0 0"/><use href="#Y"/><path d="M437.095 262.781c0 1.137-.184 1.984-.547 2.547-.355.555-.898.828-1.625.828-.699 0-1.234-.285-1.609-.859-.367-.57-.547-1.41-.547-2.516 0-1.133.176-1.977.531-2.531s.895-.828 1.625-.828c.707 0 1.242.293 1.609.875.375.574.563 1.402.563 2.484zm-3.578 0c0 .961.109 1.656.328 2.094a1.13 1.13 0 0 0 1.078.641c.5 0 .859-.219 1.078-.656.219-.445.328-1.141.328-2.078s-.109-1.625-.328-2.062-.578-.656-1.078-.656a1.13 1.13 0 0 0-1.078.656c-.219.43-.328 1.117-.328 2.063zm6.673 2.75c.488 0 .848-.129 1.078-.391.227-.27.348-.719.359-1.344v-.172c0-.687-.117-1.18-.344-1.484s-.602-.453-1.109-.453c-.437 0-.773.172-1 .516-.23.336-.344.813-.344 1.438 0 .617.113 1.086.344 1.406s.566.484 1.016.484zm-.109.625c-.637 0-1.133-.223-1.484-.672s-.531-1.066-.531-1.859c0-.801.176-1.426.531-1.875.363-.445.863-.672 1.5-.672.664 0 1.18.25 1.547.75h.031l.109-.672h.594v7.109h-.75v-2.094c0-.301.016-.555.047-.766h-.047c-.344.5-.859.75-1.547.75zm7.221-.094v-3.172c0-.395-.094-.691-.281-.891-.18-.195-.461-.297-.844-.297-.512 0-.887.141-1.125.422-.242.273-.359.727-.359 1.359v2.578h-.75v-4.906h.609l.125.672h.031c.156-.238.367-.422.641-.547.27-.133.578-.203.922-.203.582 0 1.02.141 1.313.422.301.281.453.734.453 1.359v3.203zm5.62 0v-3.172c0-.395-.094-.691-.281-.891-.18-.195-.461-.297-.844-.297-.512 0-.887.141-1.125.422-.242.273-.359.727-.359 1.359v2.578h-.75v-4.906h.609l.125.672h.031c.156-.238.367-.422.641-.547.27-.133.578-.203.922-.203.582 0 1.02.141 1.313.422.301.281.453.734.453 1.359v3.203zm4.496-4.984a3.48 3.48 0 0 1 .594.047l-.109.688c-.199-.039-.375-.062-.531-.062-.398 0-.734.164-1.016.484s-.422.727-.422 1.203v2.625h-.75v-4.906h.625l.078.906h.031a2.22 2.22 0 0 1 .656-.719 1.47 1.47 0 0 1 .844-.266zm0 0"/><use href="#Z"/><use href="#a"/><path d="M470.74 266.156c-.711 0-1.262-.219-1.656-.656-.387-.437-.578-1.055-.578-1.859 0-.812.195-1.441.594-1.891s.957-.672 1.688-.672a3.43 3.43 0 0 1 .703.078 2.05 2.05 0 0 1 .563.172l-.234.625a4.2 4.2 0 0 0-.547-.156c-.187-.039-.355-.062-.5-.062-1 0-1.5.637-1.5 1.906 0 .594.117 1.055.359 1.375.25.324.613.484 1.094.484a3.21 3.21 0 0 0 1.25-.266v.656c-.336.176-.746.266-1.234.266zm1.626-5h.797l1.063 2.797c.238.637.383 1.102.438 1.391h.047c.031-.156.109-.414.234-.781l1.219-3.406h.797l-2.109 5.578c-.211.551-.453.941-.734 1.172-.281.238-.625.359-1.031.359a2.88 2.88 0 0 1-.656-.078v-.594c.156.031.336.047.547.047.508 0 .875-.289 1.094-.859l.266-.687zm4.614 0h.797l1.063 2.797c.238.637.383 1.102.438 1.391h.047c.031-.156.109-.414.234-.781l1.219-3.406h.797l-2.109 5.578c-.211.551-.453.941-.734 1.172-.281.238-.625.359-1.031.359a2.88 2.88 0 0 1-.656-.078v-.594c.156.031.336.047.547.047.508 0 .875-.289 1.094-.859l.266-.687zm0 0"/><use href="#b"/><path d="M490.956 266.062v-3.172c0-.395-.094-.691-.281-.891-.18-.195-.461-.297-.844-.297-.512 0-.887.141-1.125.422-.242.273-.359.727-.359 1.359v2.578h-.75v-4.906h.609l.125.672h.031c.156-.238.367-.422.641-.547.27-.133.578-.203.922-.203.582 0 1.02.141 1.313.422.301.281.453.734.453 1.359v3.203zm4.542.094a2.24 2.24 0 0 1-.875-.172c-.262-.125-.48-.305-.656-.547h-.062c.039.281.063.555.063.813v2.016h-.75v-7.109h.609l.109.672h.031c.188-.258.406-.445.656-.562.258-.125.551-.187.875-.187.656 0 1.156.227 1.5.672.352.438.531 1.059.531 1.859s-.18 1.43-.531 1.875-.855.672-1.5.672zm-.109-4.453c-.5 0-.867.141-1.094.422-.219.273-.328.711-.328 1.313v.172c0 .688.113 1.184.344 1.484.227.293.598.438 1.109.438a1.14 1.14 0 0 0 .984-.516c.238-.344.359-.816.359-1.422s-.121-1.066-.359-1.391c-.242-.332-.578-.5-1.016-.5zm0 0"/><use href="#c"/><path d="M504.79 266.062l-.141-.703h-.047c-.242.313-.484.527-.734.641-.242.102-.543.156-.906.156-.48 0-.859-.125-1.141-.375-.273-.25-.406-.609-.406-1.078 0-.988.789-1.504 2.375-1.547l.828-.031v-.297c0-.383-.086-.672-.25-.859s-.434-.281-.797-.281c-.406 0-.867.125-1.375.375l-.234-.562a3.72 3.72 0 0 1 .781-.297 3.2 3.2 0 0 1 .875-.125c.582 0 1.016.133 1.297.391s.422.68.422 1.25v3.344zm-1.672-.516c.457 0 .816-.125 1.078-.375.27-.258.406-.617.406-1.078v-.437l-.75.031c-.586.023-1.008.117-1.266.281-.262.156-.391.406-.391.75 0 .273.078.48.234.625.164.137.395.203.688.203zm0 0"/><use href="#d"/><path d="M509.933 266.062h-.75v-4.906h.75zm-.812-6.234c0-.164.039-.285.125-.359.082-.082.188-.125.313-.125s.227.043.313.125c.082.074.125.195.125.359s-.043.293-.125.375-.187.125-.312.125a.41.41 0 0 1-.312-.125c-.082-.086-.125-.207-.125-.375zm4.347 6.328c-.711 0-1.262-.219-1.656-.656-.387-.437-.578-1.055-.578-1.859 0-.812.195-1.441.594-1.891s.957-.672 1.688-.672a3.43 3.43 0 0 1 .703.078 2.05 2.05 0 0 1 .563.172l-.234.625a4.2 4.2 0 0 0-.547-.156c-.187-.039-.355-.062-.5-.062-1 0-1.5.637-1.5 1.906 0 .594.117 1.055.359 1.375.25.324.613.484 1.094.484a3.21 3.21 0 0 0 1.25-.266v.656c-.336.176-.746.266-1.234.266zm4.469 0c-.73 0-1.305-.219-1.719-.656-.418-.445-.625-1.062-.625-1.844 0-.789.191-1.414.578-1.875.395-.469.922-.703 1.578-.703.602 0 1.082.203 1.438.609.363.398.547.93.547 1.594v.469h-3.375c.02.574.164 1.012.438 1.313.27.293.66.438 1.172.438a4.02 4.02 0 0 0 1.563-.328v.656a3.79 3.79 0 0 1-.75.25c-.23.051-.512.078-.844.078zm-.203-4.469c-.398 0-.715.133-.953.391-.23.262-.367.617-.406 1.063h2.563c0-.469-.105-.828-.312-1.078s-.508-.375-.891-.375zm2.856 2.266v-.687h2.203v.688zm4.103 2.109h-.75v-6.953h.75zm5.582-4.906v.469l-.906.109c.082.105.156.246.219.422a1.45 1.45 0 0 1 .109.563c0 .48-.168.867-.5 1.156-.324.281-.773.422-1.344.422-.148 0-.289-.008-.422-.031-.312.168-.469.375-.469.625 0 .137.051.234.156.297.113.063.305.094.578.094h.859c.531 0 .938.117 1.219.344.289.219.438.539.438.969 0 .539-.219.953-.656 1.234-.437.289-1.074.438-1.906.438-.637 0-1.133-.121-1.484-.359-.344-.242-.516-.578-.516-1.016a1.14 1.14 0 0 1 .281-.766c.195-.219.469-.367.813-.453-.125-.051-.23-.133-.312-.25-.086-.125-.125-.266-.125-.422a.81.81 0 0 1 .141-.469c.094-.133.242-.266.453-.391a1.27 1.27 0 0 1-.625-.531c-.156-.25-.234-.535-.234-.859 0-.539.16-.953.484-1.234.32-.289.773-.437 1.359-.437a2.99 2.99 0 0 1 .703.078zm-3.906 5.734a.66.66 0 0 0 .328.594c.227.133.551.203.969.203.625 0 1.082-.094 1.375-.281.301-.18.453-.43.453-.75 0-.262-.086-.445-.25-.547-.156-.102-.465-.156-.922-.156h-.891c-.336 0-.594.078-.781.234-.187.164-.281.398-.281.703zm.406-4.156c0 .344.094.605.281.781.195.168.469.25.813.25.727 0 1.094-.348 1.094-1.047 0-.738-.371-1.109-1.109-1.109-.344 0-.609.094-.797.281s-.281.469-.281.844zm4.095 1.219v-.687h2.203v.688zm3.088-.688c0-1.281.25-2.238.75-2.875s1.238-.953 2.219-.953c.344 0 .609.027.797.078v.641c-.23-.07-.492-.109-.781-.109-.699 0-1.234.219-1.609.656-.367.438-.57 1.125-.609 2.063h.063c.32-.52.836-.781 1.547-.781.582 0 1.039.18 1.375.531.344.355.516.84.516 1.453 0 .68-.187 1.215-.562 1.609-.367.387-.859.578-1.484.578-.68 0-1.219-.254-1.625-.766-.398-.508-.594-1.219-.594-2.125zm2.203 2.25c.426 0 .754-.129.984-.391.238-.27.359-.656.359-1.156 0-.437-.109-.773-.328-1.016-.219-.25-.547-.375-.984-.375-.262 0-.508.059-.734.172a1.33 1.33 0 0 0-.531.453c-.137.188-.203.387-.203.594 0 .313.055.605.172.875a1.59 1.59 0 0 0 .516.625 1.3 1.3 0 0 0 .75.219zm0 0"/></g><path d="M214.172 229.433h236.562v22.891H214.172zm0 0" fill="#e1d5e7"/><path d="M213.672 228.933v23.891h237.562v-23.891zm1 1h235.562v21.891H214.672z" class="G"/><use href="#e"/><use href="#f"/><use href="#U" x="-154.603" y="-22.513"/><use href="#S" x="-137.759" y="-22.513"/><use href="#K" x="-98.349" y="45.787"/><use href="#D" x="28.587" y="230.842"/><use href="#Z" x="-207.038" y="-22.513"/><use href="#d" x="-250.37" y="-22.513"/><use href="#g"/><use href="#h"/><use href="#e" x="49.865"/><use href="#P" x="-75.276" y="-22.513"/><use href="#I" x="-47.751" y="45.787"/><use href="#O" x="-42.081" y="-22.513"/><use href="#O" x="-37.064" y="-22.513"/><use href="#R" x="-68.596" y="-22.513"/><use href="#i"/><use href="#X" x="-107.604" y="-22.513"/><use href="#Y" x="-113.225" y="-22.513"/><use href="#Q" x="-40.06" y="-22.513"/><use href="#K" x="-15.235" y="45.787"/><use href="#Z" x="-129.018" y="-22.513"/><use href="#d" x="-172.349" y="-22.513"/><path d="M336.241 245.752a1.89 1.89 0 0 1-.687-.109v-.609c.211.063.414.094.609.094.227 0 .395-.07.5-.203.113-.125.172-.312.172-.562v-5.719h.75v5.656c0 .969-.449 1.453-1.344 1.453zm.531-8.437c0-.164.039-.285.125-.359.082-.082.188-.125.313-.125s.227.043.313.125c.082.074.125.195.125.359s-.043.293-.125.375-.187.125-.312.125-.23-.039-.312-.125-.125-.207-.125-.375zm0 0"/><use href="#b" x="-143.21" y="-22.513"/><use href="#e" x="125.238"/><use href="#Y" x="-75.384" y="-22.513"/><use href="#Z" x="-101.21" y="-22.513"/><use href="#d" x="-144.542" y="-22.513"/><use href="#J" x="26.616" y="45.787"/><use href="#g" x="108.143"/><use href="#J" x="33.52" y="45.787"/><use href="#c" x="-124.967" y="-22.513"/><use href="#I" x="44.404" y="45.787"/><use href="#O" x="50.073" y="-22.513"/><use href="#J" x="49.42" y="45.787"/><use href="#I" x="57.357" y="45.787"/><use href="#K" x="55.04" y="45.787"/><use href="#c" x="-98.649" y="-22.513"/><use href="#j"/><use href="#k"/><use href="#X" x="-6.632" y="-22.513"/><use href="#Q" x="56.105" y="-22.513"/><use href="#k" x="12.908"/><use href="#j" x="20.581"/><use href="#M" y="45.785" fill="#1ba1e2"/><use href="#N" y="45.785" class="H"/><g clip-path="url(#B)" transform="translate(-113.207 -45.407)" class="B"><path d="M336.074 306.849c0 .418-.121.762-.359 1.031-.23.262-.559.438-.984.531v.031c.52.063.906.23 1.156.5.258.273.391.625.391 1.063 0 .617-.219 1.094-.656 1.438-.43.336-1.043.5-1.844.5a5.51 5.51 0 0 1-.953-.078 3.01 3.01 0 0 1-.828-.281v-.703a4.02 4.02 0 0 0 .906.313 4.03 4.03 0 0 0 .906.109c1.133 0 1.703-.441 1.703-1.328 0-.789-.625-1.187-1.875-1.187h-.641v-.641h.641c.508 0 .914-.109 1.219-.328.301-.227.453-.539.453-.937 0-.32-.109-.57-.328-.75-.219-.187-.516-.281-.891-.281-.293 0-.57.043-.828.125-.25.074-.539.215-.859.422l-.375-.5a3.19 3.19 0 0 1 .922-.484 3.29 3.29 0 0 1 1.109-.187c.633 0 1.129.148 1.484.438.352.281.531.68.531 1.188zm1.252 2.203c0-1.281.25-2.238.75-2.875s1.238-.953 2.219-.953c.344 0 .609.027.797.078v.641c-.23-.07-.492-.109-.781-.109-.699 0-1.234.219-1.609.656-.367.438-.57 1.125-.609 2.063h.063c.32-.52.836-.781 1.547-.781.582 0 1.039.18 1.375.531.344.355.516.84.516 1.453 0 .68-.187 1.215-.562 1.609-.367.387-.859.578-1.484.578-.68 0-1.219-.254-1.625-.766-.398-.508-.594-1.219-.594-2.125zm2.203 2.25c.426 0 .754-.129.984-.391.238-.27.359-.656.359-1.156 0-.437-.109-.773-.328-1.016-.219-.25-.547-.375-.984-.375-.262 0-.508.059-.734.172a1.33 1.33 0 0 0-.531.453c-.137.188-.203.387-.203.594 0 .313.055.605.172.875a1.59 1.59 0 0 0 .516.625 1.3 1.3 0 0 0 .75.219zm7.564-.953h-.969v1.5h-.703v-1.5h-3.187v-.656l3.109-4.422h.781v4.406h.969zm-1.672-.672v-2.172l.047-1.453h-.047a5.53 5.53 0 0 1-.391.719l-2.047 2.906zm4.345-1.828c.688 0 1.227.172 1.625.516s.594.813.594 1.406c0 .68-.215 1.211-.641 1.594s-1.023.578-1.781.578c-.742 0-1.305-.117-1.687-.359v-.719c.207.137.469.246.781.328a3.96 3.96 0 0 0 .922.109c.52 0 .926-.125 1.219-.375s.438-.609.438-1.078c0-.906-.562-1.359-1.687-1.359-.281 0-.656.043-1.125.125l-.391-.25.25-3.047h3.25v.672h-2.625l-.156 1.969c.344-.07.68-.109 1.016-.109zm7.252-1c0 .418-.121.762-.359 1.031-.23.262-.559.438-.984.531v.031c.52.063.906.23 1.156.5.258.273.391.625.391 1.063 0 .617-.219 1.094-.656 1.438-.43.336-1.043.5-1.844.5a5.51 5.51 0 0 1-.953-.078 3.01 3.01 0 0 1-.828-.281v-.703a4.02 4.02 0 0 0 .906.313 4.03 4.03 0 0 0 .906.109c1.133 0 1.703-.441 1.703-1.328 0-.789-.625-1.187-1.875-1.187h-.641v-.641h.641c.508 0 .914-.109 1.219-.328.301-.227.453-.539.453-.937 0-.32-.109-.57-.328-.75-.219-.187-.516-.281-.891-.281-.293 0-.57.043-.828.125-.25.074-.539.215-.859.422l-.375-.5a3.19 3.19 0 0 1 .922-.484 3.29 3.29 0 0 1 1.109-.187c.633 0 1.129.148 1.484.438.352.281.531.68.531 1.188zm5.517 1.719c0 1.137-.184 1.984-.547 2.547-.355.555-.898.828-1.625.828-.699 0-1.234-.285-1.609-.859-.367-.57-.547-1.41-.547-2.516 0-1.133.176-1.977.531-2.531s.895-.828 1.625-.828c.707 0 1.242.293 1.609.875.375.574.563 1.402.563 2.484zm-3.578 0c0 .961.109 1.656.328 2.094a1.13 1.13 0 0 0 1.078.641c.5 0 .859-.219 1.078-.656.219-.445.328-1.141.328-2.078s-.109-1.625-.328-2.062-.578-.656-1.078-.656a1.13 1.13 0 0 0-1.078.656c-.219.43-.328 1.117-.328 2.063zm7.83 3.281l-.141-.703h-.047c-.242.313-.484.527-.734.641-.242.102-.543.156-.906.156-.48 0-.859-.125-1.141-.375-.273-.25-.406-.609-.406-1.078 0-.988.789-1.504 2.375-1.547l.828-.031v-.297c0-.383-.086-.672-.25-.859s-.434-.281-.797-.281c-.406 0-.867.125-1.375.375l-.234-.562a3.72 3.72 0 0 1 .781-.297 3.2 3.2 0 0 1 .875-.125c.582 0 1.016.133 1.297.391s.422.68.422 1.25v3.344zm-1.672-.516c.457 0 .816-.125 1.078-.375.27-.258.406-.617.406-1.078v-.437l-.75.031c-.586.023-1.008.117-1.266.281-.262.156-.391.406-.391.75 0 .273.078.48.234.625.164.137.395.203.688.203zm7.093-.14h-.047c-.344.5-.855.75-1.531.75-.648 0-1.148-.219-1.5-.656s-.531-1.062-.531-1.875c0-.801.176-1.426.531-1.875.363-.445.863-.672 1.5-.672.664 0 1.176.242 1.531.719h.047l-.031-.359-.016-.344v-1.984h.75v6.953h-.609zm-1.484.125c.5 0 .863-.133 1.094-.406.227-.281.344-.727.344-1.344v-.156c0-.695-.117-1.191-.344-1.484-.23-.301-.602-.453-1.109-.453-.437 0-.773.172-1 .516-.23.336-.344.813-.344 1.438s.113 1.102.344 1.422c.227.313.566.469 1.016.469zm4.939-1.985l-1.703-2.391h.844l1.297 1.891 1.281-1.891h.844l-1.703 2.391 1.781 2.516h-.844l-1.359-1.984-1.391 1.984h-.844zm6.97 2.516v-3.172c0-.395-.094-.691-.281-.891-.18-.195-.461-.297-.844-.297-.523 0-.902.141-1.141.422-.23.281-.344.742-.344 1.375v2.563h-.75v-6.953h.75v2.109l-.031.625h.031c.145-.238.352-.426.625-.562s.578-.203.922-.203c.602 0 1.051.148 1.344.438.301.281.453.73.453 1.344v3.203zm4.496-4.984a3.48 3.48 0 0 1 .594.047l-.109.688c-.199-.039-.375-.062-.531-.062-.398 0-.734.164-1.016.484s-.422.727-.422 1.203v2.625h-.75v-4.906h.625l.078.906h.031a2.22 2.22 0 0 1 .656-.719 1.47 1.47 0 0 1 .844-.266zm5.503 1.703c0 1.137-.184 1.984-.547 2.547-.355.555-.898.828-1.625.828-.699 0-1.234-.285-1.609-.859-.367-.57-.547-1.41-.547-2.516 0-1.133.176-1.977.531-2.531s.895-.828 1.625-.828c.707 0 1.242.293 1.609.875.375.574.563 1.402.563 2.484zm-3.578 0c0 .961.109 1.656.328 2.094a1.13 1.13 0 0 0 1.078.641c.5 0 .859-.219 1.078-.656.219-.445.328-1.141.328-2.078s-.109-1.625-.328-2.062-.578-.656-1.078-.656a1.13 1.13 0 0 0-1.078.656c-.219.43-.328 1.117-.328 2.063zm8.782 3.281h-4.297v-.641l1.719-1.734 1.031-1.125c.164-.227.289-.445.375-.656a1.99 1.99 0 0 0 .125-.703c0-.352-.105-.629-.312-.828-.211-.207-.5-.312-.875-.312a2.12 2.12 0 0 0-.781.141c-.242.086-.512.246-.812.484l-.391-.5c.602-.5 1.258-.75 1.969-.75.613 0 1.094.156 1.438.469.352.313.531.734.531 1.266 0 .418-.121.828-.359 1.234-.23.406-.664.918-1.297 1.531l-1.437 1.406v.031h3.375zm5.236 0h-4.297v-.641l1.719-1.734 1.031-1.125c.164-.227.289-.445.375-.656a1.99 1.99 0 0 0 .125-.703c0-.352-.105-.629-.312-.828-.211-.207-.5-.312-.875-.312a2.12 2.12 0 0 0-.781.141c-.242.086-.512.246-.812.484l-.391-.5c.602-.5 1.258-.75 1.969-.75.613 0 1.094.156 1.438.469.352.313.531.734.531 1.266 0 .418-.121.828-.359 1.234-.23.406-.664.918-1.297 1.531l-1.437 1.406v.031h3.375zm7.517 0v-3.187c0-.383-.086-.676-.25-.875s-.43-.297-.781-.297c-.461 0-.797.137-1.016.406-.219.262-.328.668-.328 1.219v2.734h-.75v-3.187c0-.383-.086-.676-.25-.875s-.43-.297-.781-.297c-.469 0-.812.141-1.031.422-.211.281-.312.734-.312 1.359v2.578h-.75v-4.906h.609l.125.672h.031a1.33 1.33 0 0 1 .578-.547c.258-.133.551-.203.875-.203.758 0 1.258.277 1.5.828h.031a1.54 1.54 0 0 1 .625-.609c.281-.145.598-.219.953-.219.563 0 .977.141 1.25.422.281.281.422.734.422 1.359v3.203zm2.003-2.797c0-1.281.25-2.238.75-2.875s1.238-.953 2.219-.953c.344 0 .609.027.797.078v.641c-.23-.07-.492-.109-.781-.109-.699 0-1.234.219-1.609.656-.367.438-.57 1.125-.609 2.063h.063c.32-.52.836-.781 1.547-.781.582 0 1.039.18 1.375.531.344.355.516.84.516 1.453 0 .68-.187 1.215-.562 1.609-.367.387-.859.578-1.484.578-.68 0-1.219-.254-1.625-.766-.398-.508-.594-1.219-.594-2.125zm2.203 2.25c.426 0 .754-.129.984-.391.238-.27.359-.656.359-1.156 0-.437-.109-.773-.328-1.016-.219-.25-.547-.375-.984-.375-.262 0-.508.059-.734.172a1.33 1.33 0 0 0-.531.453c-.137.188-.203.387-.203.594 0 .313.055.605.172.875a1.59 1.59 0 0 0 .516.625 1.3 1.3 0 0 0 .75.219zm4.376.547l-1.859-4.906h.797l1.047 2.906.422 1.328h.047c.031-.156.129-.477.297-.969l1.188-3.266h.797l-1.859 4.906zm9.76 0v-3.187c0-.383-.086-.676-.25-.875s-.43-.297-.781-.297c-.461 0-.797.137-1.016.406-.219.262-.328.668-.328 1.219v2.734h-.75v-3.187c0-.383-.086-.676-.25-.875s-.43-.297-.781-.297c-.469 0-.812.141-1.031.422-.211.281-.312.734-.312 1.359v2.578h-.75v-4.906h.609l.125.672h.031a1.33 1.33 0 0 1 .578-.547c.258-.133.551-.203.875-.203.758 0 1.258.277 1.5.828h.031a1.54 1.54 0 0 1 .625-.609c.281-.145.598-.219.953-.219.563 0 .977.141 1.25.422.281.281.422.734.422 1.359v3.203zm0 0"/><use href="#l"/><path d="M438.67 306.865a3.48 3.48 0 0 1 .594.047l-.109.688c-.199-.039-.375-.062-.531-.062-.398 0-.734.164-1.016.484s-.422.727-.422 1.203v2.625h-.75v-4.906h.625l.078.906h.031a2.22 2.22 0 0 1 .656-.719 1.47 1.47 0 0 1 .844-.266zm5.503 4.984l-.891-2.875c-.062-.176-.168-.578-.312-1.203h-.047l-.312 1.219-.922 2.859h-.859l-1.328-4.906h.766l.719 2.828.297 1.297h.031a6.77 6.77 0 0 1 .156-.656l.188-.656.906-2.812h.797l.875 2.813.344 1.297h.031l.109-.484.922-3.625h.781l-1.359 4.906zm4.31-2.516l-1.703-2.391h.844l1.297 1.891 1.281-1.891h.844l-1.703 2.391 1.781 2.516h-.844l-1.359-1.984-1.391 1.984h-.844zm6.97 2.516v-3.172c0-.395-.094-.691-.281-.891-.18-.195-.461-.297-.844-.297-.512 0-.887.141-1.125.422-.242.273-.359.727-.359 1.359v2.578h-.75v-4.906h.609l.125.672h.031c.156-.238.367-.422.641-.547.27-.133.578-.203.922-.203.582 0 1.02.141 1.313.422.301.281.453.734.453 1.359v3.203zm6.23 0h-4.297v-.641l1.719-1.734 1.031-1.125c.164-.227.289-.445.375-.656a1.99 1.99 0 0 0 .125-.703c0-.352-.105-.629-.312-.828-.211-.207-.5-.312-.875-.312a2.12 2.12 0 0 0-.781.141c-.242.086-.512.246-.812.484l-.391-.5c.602-.5 1.258-.75 1.969-.75.613 0 1.094.156 1.438.469.352.313.531.734.531 1.266 0 .418-.121.828-.359 1.234-.23.406-.664.918-1.297 1.531l-1.437 1.406v.031h3.375zm4.627 0v-3.172c0-.395-.094-.691-.281-.891-.18-.195-.461-.297-.844-.297-.512 0-.887.141-1.125.422-.242.273-.359.727-.359 1.359v2.578h-.75v-4.906h.609l.125.672h.031c.156-.238.367-.422.641-.547.27-.133.578-.203.922-.203.582 0 1.02.141 1.313.422.301.281.453.734.453 1.359v3.203zm5.604-.656h-.047c-.344.5-.855.75-1.531.75-.648 0-1.148-.219-1.5-.656s-.531-1.062-.531-1.875c0-.801.176-1.426.531-1.875.363-.445.863-.672 1.5-.672.664 0 1.176.242 1.531.719h.047l-.031-.359-.016-.344v-1.984h.75v6.953h-.609zm-1.484.125c.5 0 .863-.133 1.094-.406.227-.281.344-.727.344-1.344v-.156c0-.695-.117-1.191-.344-1.484-.23-.301-.602-.453-1.109-.453-.437 0-.773.172-1 .516-.23.336-.344.813-.344 1.438s.113 1.102.344 1.422c.227.313.566.469 1.016.469zm0 0"/></g><path d="M363.194 262.114h-1.25v4.328h-.75v-4.328h-.875v-.328l.875-.266v-.281c0-1.195.523-1.797 1.578-1.797.258 0 .566.055.922.156l-.203.594c-.281-.094-.523-.141-.719-.141-.281 0-.492.094-.625.281s-.203.484-.203.891v.313h1.25zm1.641 4.328h-.75v-4.906h.75zm-.812-6.234c0-.164.039-.285.125-.359.082-.082.188-.125.313-.125s.227.043.313.125c.082.074.125.195.125.359s-.043.293-.125.375-.187.125-.312.125-.23-.039-.312-.125-.125-.207-.125-.375zm0 0" class="B"/><g clip-path="url(#C)" transform="translate(-113.207 -45.407)" class="B"><path d="M479.336 309.052c0-1.281.25-2.238.75-2.875s1.238-.953 2.219-.953c.344 0 .609.027.797.078v.641c-.23-.07-.492-.109-.781-.109-.699 0-1.234.219-1.609.656-.367.438-.57 1.125-.609 2.063h.063c.32-.52.836-.781 1.547-.781.582 0 1.039.18 1.375.531.344.355.516.84.516 1.453 0 .68-.187 1.215-.562 1.609-.367.387-.859.578-1.484.578-.68 0-1.219-.254-1.625-.766-.398-.508-.594-1.219-.594-2.125zm2.203 2.25c.426 0 .754-.129.984-.391.238-.27.359-.656.359-1.156 0-.437-.109-.773-.328-1.016-.219-.25-.547-.375-.984-.375-.262 0-.508.059-.734.172a1.33 1.33 0 0 0-.531.453c-.137.188-.203.387-.203.594 0 .313.055.605.172.875a1.59 1.59 0 0 0 .516.625 1.3 1.3 0 0 0 .75.219zm5.58.641a2.24 2.24 0 0 1-.875-.172c-.262-.125-.48-.305-.656-.547h-.062c.039.281.063.555.063.813v2.016h-.75v-7.109h.609l.109.672h.031c.188-.258.406-.445.656-.562.258-.125.551-.187.875-.187.656 0 1.156.227 1.5.672.352.438.531 1.059.531 1.859s-.18 1.43-.531 1.875-.855.672-1.5.672zm-.109-4.453c-.5 0-.867.141-1.094.422-.219.273-.328.711-.328 1.313v.172c0 .688.113 1.184.344 1.484.227.293.598.438 1.109.438a1.14 1.14 0 0 0 .984-.516c.238-.344.359-.816.359-1.422s-.121-1.066-.359-1.391c-.242-.332-.578-.5-1.016-.5zm7.454-.547v.469l-.906.109c.082.105.156.246.219.422a1.45 1.45 0 0 1 .109.563c0 .48-.168.867-.5 1.156-.324.281-.773.422-1.344.422-.148 0-.289-.008-.422-.031-.312.168-.469.375-.469.625 0 .137.051.234.156.297.113.063.305.094.578.094h.859c.531 0 .938.117 1.219.344.289.219.438.539.438.969 0 .539-.219.953-.656 1.234-.437.289-1.074.438-1.906.438-.637 0-1.133-.121-1.484-.359-.344-.242-.516-.578-.516-1.016a1.14 1.14 0 0 1 .281-.766c.195-.219.469-.367.813-.453-.125-.051-.23-.133-.312-.25-.086-.125-.125-.266-.125-.422a.81.81 0 0 1 .141-.469c.094-.133.242-.266.453-.391a1.27 1.27 0 0 1-.625-.531c-.156-.25-.234-.535-.234-.859 0-.539.16-.953.484-1.234.32-.289.773-.437 1.359-.437a2.99 2.99 0 0 1 .703.078zm-3.906 5.734a.66.66 0 0 0 .328.594c.227.133.551.203.969.203.625 0 1.082-.094 1.375-.281.301-.18.453-.43.453-.75 0-.262-.086-.445-.25-.547-.156-.102-.465-.156-.922-.156h-.891c-.336 0-.594.078-.781.234-.187.164-.281.398-.281.703zm.406-4.156c0 .344.094.605.281.781.195.168.469.25.813.25.727 0 1.094-.348 1.094-1.047 0-.738-.371-1.109-1.109-1.109-.344 0-.609.094-.797.281s-.281.469-.281.844zm5.689.812l-1.703-2.391h.844l1.297 1.891 1.281-1.891h.844l-1.703 2.391 1.781 2.516h-.844l-1.359-1.984-1.391 1.984h-.844zm3.204.407v-.687h2.203v.688zm5.634-2.875c.645 0 1.145.227 1.5.672.352.438.531 1.059.531 1.859s-.18 1.43-.531 1.875-.855.672-1.5.672a2.24 2.24 0 0 1-.875-.172c-.262-.125-.48-.305-.656-.547h-.062l-.156.625h-.531v-6.953h.75v1.688l-.031 1.016h.031c.344-.488.852-.734 1.531-.734zm-.109.625c-.5 0-.867.148-1.094.438-.219.293-.328.781-.328 1.469s.113 1.184.344 1.484c.227.293.598.438 1.109.438.445 0 .781-.164 1-.5.227-.332.344-.812.344-1.437 0-.633-.117-1.109-.344-1.422-.219-.312-.562-.469-1.031-.469zm4.189 4.359h-.75v-4.906h.75zm-.812-6.234c0-.164.039-.285.125-.359.082-.082.188-.125.313-.125s.227.043.313.125c.082.074.125.195.125.359s-.043.293-.125.375-.187.125-.312.125a.41.41 0 0 1-.312-.125c-.082-.086-.125-.207-.125-.375zm5.738 6.234v-3.172c0-.395-.094-.691-.281-.891-.18-.195-.461-.297-.844-.297-.512 0-.887.141-1.125.422-.242.273-.359.727-.359 1.359v2.578h-.75v-4.906h.609l.125.672h.031c.156-.238.367-.422.641-.547.27-.133.578-.203.922-.203.582 0 1.02.141 1.313.422.301.281.453.734.453 1.359v3.203zm5.605-.656h-.047c-.344.5-.855.75-1.531.75-.648 0-1.148-.219-1.5-.656s-.531-1.062-.531-1.875c0-.801.176-1.426.531-1.875.363-.445.863-.672 1.5-.672.664 0 1.176.242 1.531.719h.047l-.031-.359-.016-.344v-1.984h.75v6.953h-.609zm-1.484.125c.5 0 .863-.133 1.094-.406.227-.281.344-.727.344-1.344v-.156c0-.695-.117-1.191-.344-1.484-.23-.301-.602-.453-1.109-.453-.437 0-.773.172-1 .516-.23.336-.344.813-.344 1.438s.113 1.102.344 1.422c.227.313.566.469 1.016.469zm3.345-1.578v-.687h2.203v.688zm0 0"/><use href="#m"/><path d="M530.443 311.38c0-.207.047-.359.141-.453.094-.102.223-.156.391-.156.176 0 .313.055.406.156.094.094.141.246.141.453 0 .188-.047.336-.141.438s-.23.156-.406.156c-.148 0-.273-.047-.375-.141s-.156-.242-.156-.453zm4.968.469h-.734v-4.656l.047-1.109-.219.203c-.074.074-.43.367-1.062.875l-.391-.516 1.734-1.328h.625zm0 0"/><use href="#n"/><path d="M543.351 311.38c0-.207.047-.359.141-.453.094-.102.223-.156.391-.156.176 0 .313.055.406.156.094.094.141.246.141.453 0 .188-.047.336-.141.438s-.23.156-.406.156c-.148 0-.273-.047-.375-.141s-.156-.242-.156-.453zm6.515.469h-4.297v-.641l1.719-1.734 1.031-1.125c.164-.227.289-.445.375-.656a1.99 1.99 0 0 0 .125-.703c0-.352-.105-.629-.312-.828-.211-.207-.5-.312-.875-.312a2.12 2.12 0 0 0-.781.141c-.242.086-.512.246-.812.484l-.391-.5c.602-.5 1.258-.75 1.969-.75.613 0 1.094.156 1.438.469.352.313.531.734.531 1.266 0 .418-.121.828-.359 1.234-.23.406-.664.918-1.297 1.531l-1.437 1.406v.031h3.375zm3.095-6.625c.594 0 1.063.141 1.406.422.352.273.531.652.531 1.141 0 .324-.102.621-.297.891-.199.262-.516.5-.953.719.531.25.906.516 1.125.797a1.47 1.47 0 0 1 .344.969c0 .543-.195.977-.578 1.297-.375.324-.891.484-1.547.484-.699 0-1.234-.148-1.609-.453-.375-.312-.562-.75-.562-1.312 0-.75.453-1.332 1.359-1.75-.406-.227-.703-.477-.891-.75a1.59 1.59 0 0 1-.266-.906 1.36 1.36 0 0 1 .531-1.125c.355-.281.82-.422 1.406-.422zm-1.406 4.969c0 .367.117.648.359.844.25.199.602.297 1.063.297.438 0 .781-.102 1.031-.312s.375-.492.375-.859c0-.289-.121-.547-.359-.766-.23-.227-.633-.445-1.203-.656-.449.188-.773.402-.969.641a1.2 1.2 0 0 0-.297.813zm1.406-4.375c-.375 0-.672.094-.891.281-.211.18-.312.414-.312.703 0 .281.086.523.266.719.176.188.5.383.969.578.426-.176.727-.363.906-.562a1.1 1.1 0 0 0 .266-.734.88.88 0 0 0-.328-.719c-.211-.176-.5-.266-.875-.266zm0 0"/></g><use href="#M" y="68.68" class="D"/><use href="#N" y="68.679" class="C"/><use href="#J" x="-118.877" y="91.573"/><use href="#Y" x="-206.823" y="23.273"/><use href="#j" x="-176.855" y="45.786"/><use href="#T" x="-148.244" y="23.273"/><use href="#L" x="-124.505" y="91.573"/><use href="#J" x="-97.159" y="91.573"/><use href="#g" x="-15.632" y="45.786"/><use href="#U" x="-137.603" y="23.273"/><use href="#J" x="-84.644" y="91.573"/><use href="#P" x="-97.11" y="23.273"/><use href="#a" x="-200.715" y="23.273"/><use href="#d" x="-238.811" y="23.273"/><use href="#Y" x="-157.916" y="23.273"/><use href="#e" x="56.031" y="45.786"/><use href="#D" x="65.494" y="276.628"/><use href="#L" x="-72.844" y="91.573"/><use href="#d" x="-214.34" y="23.273"/><use href="#i" x="-10.699" y="45.786"/><use href="#e" x="79.979" y="45.786"/><use href="#U" x="-77.727" y="23.273"/><use href="#Y" x="-115.031" y="23.273"/><use href="#n" x="-220.161" y="-22.514"/><use href="#D" x="105.096" y="276.628"/><use href="#L" x="-33.241" y="91.573"/><use href="#e" x="112.982" y="45.786"/><use href="#f" x="112.982" y="45.786"/><use href="#O" x="11.396" y="23.273"/><use href="#U" x="-36.604" y="23.273"/><use href="#K" x="13.855" y="91.573"/><use href="#P" x="6.187" y="23.273"/><use href="#V" x="-24.866" y="23.273"/><use href="#f" x="142.81" y="45.786"/><use href="#c" x="-125.249" y="23.273"/><use href="#G" x="134.633" y="276.628"/><use href="#U" x="-3.315" y="23.273"/><use href="#F" x="160.021" y="276.628"/><use href="#I" x="60.402" y="91.573"/><use href="#E" x="175.14" y="276.628"/><use href="#E" x="179.509" y="276.628"/><use href="#T" x="27.412" y="23.273"/><use href="#c" x="-86.044" y="23.273"/><use href="#m" x="-109.586" y="-22.514"/><use href="#k" x="12.604" y="45.786"/><use href="#l" x="-7.796" y="-22.514"/><use href="#U" x="43.267" y="23.273"/><use href="#j" x="31.125" y="45.786"/><use href="#o" class="B"/><use href="#p"/><path d="M15.262 48.574v74.523h130.73V48.574h-1v73.523H16.262V48.574z"/><use href="#q"/><use href="#I" x="-296.711" y="-154.911"/><use href="#D" x="-176.89" y="30.144"/><use href="#e" x="-172.742" y="-200.698"/><use href="#F" x="-172.723" y="30.144"/><use href="#E" x="-163.225" y="30.144"/><path d="M66.508 42.945c-.73 0-1.305-.219-1.719-.656-.418-.445-.625-1.062-.625-1.844 0-.789.191-1.414.578-1.875.395-.469.922-.703 1.578-.703.602 0 1.082.203 1.438.609.363.398.547.93.547 1.594v.469H64.93c.02.574.164 1.012.438 1.313.27.293.66.438 1.172.438.52 0 1.039-.109 1.563-.328v.656c-.262.117-.512.199-.75.25-.23.051-.512.078-.844.078zm-.203-4.469c-.398 0-.715.133-.953.391-.23.262-.367.617-.406 1.063h2.563c0-.469-.105-.828-.312-1.078s-.508-.375-.891-.375zm0 0"/><use href="#L" x="-292.066" y="-154.911"/><use href="#g" x="-185.509" y="-200.698"/><use href="#F" x="-149.754" y="30.144"/><use href="#L" x="-278.602" y="-154.911"/><use href="#e" x="-130.001" y="-200.698"/><use href="#J" x="-240.36" y="-154.911"/><use href="#V" x="-291.002" y="-223.211"/><use href="#L" x="-257.292" y="-154.911"/><use href="#G" x="-133.997" y="30.145"/><use href="#g" x="-145.571" y="-200.698"/><use href="#e" x="-101.317" y="-200.698"/><path d="M89.02 61.546h44.262a4.6 4.6 0 0 1 .895.09c.293.059.578.145.855.262s.543.254.793.422.48.355.695.57.402.441.566.691.309.516.426.793.199.563.262.859.086.594.086.891v21.367c0 .301-.027.602-.086.895s-.148.582-.262.859-.258.543-.426.793-.355.48-.566.691-.445.402-.695.57-.512.309-.793.422-.562.203-.855.262a4.6 4.6 0 0 1-.895.09H89.02a4.53 4.53 0 0 1-.891-.09 4.37 4.37 0 0 1-.859-.262 4.41 4.41 0 0 1-.793-.422c-.25-.168-.48-.355-.695-.57s-.402-.441-.566-.691-.309-.516-.426-.793a4.64 4.64 0 0 1-.258-.859 4.57 4.57 0 0 1-.09-.895V66.124a4.56 4.56 0 0 1 .09-.891c.059-.297.145-.582.258-.859s.258-.543.426-.793.355-.48.566-.691.445-.402.695-.57a4.41 4.41 0 0 1 .793-.422 4.37 4.37 0 0 1 .859-.262 4.53 4.53 0 0 1 .891-.09zm0 0" fill="#1ba1e2"/><path d="M89.02 61.046a5.03 5.03 0 0 0-.988.1c-.326.064-.643.159-.951.289a4.91 4.91 0 0 0-.883.469 5.13 5.13 0 0 0-.77.633c-.233.233-.446.488-.631.77a5.19 5.19 0 0 0-.469.873v.004l-.002.002a5.14 5.14 0 0 0-.285.951 5.05 5.05 0 0 0-.1.988v21.367c0 .335.035.668.1.992a5.16 5.16 0 0 0 .285.951l.002.002v.002a5.21 5.21 0 0 0 .469.873 4.88 4.88 0 0 0 .631.771c.238.238.495.446.77.631s.571.343.877.469c.31.131.629.226.957.291.323.065.653.1.988.1h44.262c.335 0 .666-.035.992-.1a4.93 4.93 0 0 0 .945-.289 4.79 4.79 0 0 0 .885-.471c.275-.185.531-.392.77-.631.231-.231.443-.487.627-.766l.002-.004a5.22 5.22 0 0 0 .471-.875v-.002l.002-.002a5.49 5.49 0 0 0 .287-.947l.002-.002v-.002c.066-.328.096-.661.096-.992V66.125a5.05 5.05 0 0 0-.096-.988v-.004l-.002-.002c-.068-.324-.162-.639-.287-.945l-.002-.002v-.004a5.2 5.2 0 0 0-.473-.877 4.87 4.87 0 0 0-.627-.766 5.13 5.13 0 0 0-.77-.633c-.274-.184-.565-.341-.877-.467a4.99 4.99 0 0 0-.953-.291c-.326-.064-.657-.1-.992-.1zm0 1h44.262c.266 0 .529.027.797.08a3.9 3.9 0 0 1 .758.232h.004l.004.002c.248.1.478.223.701.373s.43.318.621.51a3.87 3.87 0 0 1 .502.611l.002.002v.004c.148.22.273.454.379.703a4.46 4.46 0 0 1 .234.773 4.07 4.07 0 0 1 .076.787v21.367c0 .269-.025.535-.076.791a4.46 4.46 0 0 1-.232.768c-.106.251-.232.488-.381.709v.002l-.002.002c-.144.219-.313.424-.502.613s-.396.357-.621.508-.453.273-.701.373l-.004.002-.004.002a3.9 3.9 0 0 1-.758.232c-.268.053-.531.08-.797.08H89.02a4.03 4.03 0 0 1-.793-.08c-.265-.052-.517-.129-.762-.232l-.004-.002h-.002c-.247-.101-.482-.226-.703-.375s-.43-.317-.621-.508-.358-.395-.502-.613l-.002-.002-.002-.002c-.147-.219-.272-.455-.377-.703l-.002-.006c-.1-.246-.177-.498-.229-.762a4.08 4.08 0 0 1-.08-.797V66.125c0-.262.028-.531.08-.793v-.002c.052-.264.128-.515.229-.762l.002-.004a4.17 4.17 0 0 1 .377-.703l.002-.004.002-.002a3.87 3.87 0 0 1 .502-.611c.191-.191.396-.359.621-.51s.456-.272.703-.373l.002-.002h.004c.245-.103.496-.18.762-.232s.527-.08.793-.08z" class="H"/><g class="B"><use href="#r"/><use href="#s"/><path d="M111.926 81.007h-1.828v-3.891c0-.477-.078-.836-.234-1.078s-.414-.359-.766-.359c-.461 0-.797.172-1.016.516-.211.336-.312.891-.312 1.672v3.141h-1.812v-6.656h1.391l.25.844h.094c.176-.301.43-.535.766-.703.344-.176.734-.266 1.172-.266 1 0 1.676.324 2.031.969h.156c.176-.312.438-.551.781-.719.352-.164.75-.25 1.188-.25.75 0 1.316.195 1.703.578.395.387.594 1.008.594 1.859v4.344h-1.828v-3.891c0-.477-.086-.836-.25-1.078-.156-.238-.406-.359-.75-.359-.449 0-.781.164-1 .484-.219.313-.328.813-.328 1.5zm0 0"/><use href="#t"/><use href="#u"/></g><path d="M27.973 61.546h44.258a4.57 4.57 0 0 1 .895.09 4.37 4.37 0 0 1 .859.262 4.41 4.41 0 0 1 .793.422 4.4 4.4 0 0 1 1.262 1.262 4.41 4.41 0 0 1 .422.793 4.37 4.37 0 0 1 .262.859 4.56 4.56 0 0 1 .09.891v21.367a4.57 4.57 0 0 1-.09.895 4.37 4.37 0 0 1-.262.859 4.41 4.41 0 0 1-.422.793 4.4 4.4 0 0 1-1.262 1.262 4.41 4.41 0 0 1-.793.422 4.37 4.37 0 0 1-.859.262 4.57 4.57 0 0 1-.895.09H27.973a4.6 4.6 0 0 1-.895-.09 4.45 4.45 0 0 1-.859-.262 4.38 4.38 0 0 1-.789-.422 4.43 4.43 0 0 1-.695-.57c-.211-.211-.402-.441-.57-.691a4.41 4.41 0 0 1-.422-.793 4.37 4.37 0 0 1-.262-.859 4.57 4.57 0 0 1-.086-.895V66.124c0-.297.027-.598.086-.891a4.37 4.37 0 0 1 .262-.859 4.41 4.41 0 0 1 .422-.793c.168-.25.359-.48.57-.691a4.43 4.43 0 0 1 .695-.57 4.38 4.38 0 0 1 .789-.422 4.45 4.45 0 0 1 .859-.262 4.6 4.6 0 0 1 .895-.09zm0 0" class="D"/><path d="M27.973 61.046c-.335 0-.666.035-.992.1s-.646.159-.957.291a4.88 4.88 0 0 0-.873.467 4.93 4.93 0 0 0-.77.633 5.12 5.12 0 0 0-.631.766c-.186.277-.343.571-.469.877-.131.31-.226.629-.291.957s-.096.661-.096.988v21.367a5.06 5.06 0 0 0 .096.992c.065.326.159.643.289.951s.283.604.471.883a5.12 5.12 0 0 0 .627.762c.242.245.502.453.774.635a4.89 4.89 0 0 0 .879.471 4.96 4.96 0 0 0 .951.289c.326.064.657.1.992.1h44.258c.335 0 .668-.035.992-.1s.643-.159.951-.289a4.92 4.92 0 0 0 .883-.471 4.91 4.91 0 0 0 .762-.629 4.89 4.89 0 0 0 .635-.768c.187-.278.343-.572.469-.879a4.87 4.87 0 0 0 .291-.955v-.002c.065-.323.1-.655.1-.99V66.125a5.05 5.05 0 0 0-.1-.988c-.064-.326-.159-.643-.289-.951s-.283-.604-.471-.883-.394-.533-.635-.77a4.91 4.91 0 0 0-1.645-1.098c-.308-.13-.625-.225-.951-.289s-.657-.1-.992-.1zm0 1h44.258a4.08 4.08 0 0 1 .797.08c.265.052.517.129.762.232h.004l.002.002c.247.101.482.224.703.373s.428.317.613.506l.004.004.004.002c.189.185.353.39.504.615s.274.456.375.703l.002.002v.002c.103.245.18.496.232.762v.002c.052.262.08.531.08.793v21.367a4.08 4.08 0 0 1-.08.797c-.052.265-.129.517-.232.762v.004l-.002.002c-.101.247-.226.482-.375.703s-.315.428-.504.613l-.004.004-.004.002c-.185.189-.388.355-.613.506s-.456.274-.703.375h-.002l-.004.002c-.245.103-.496.18-.762.232s-.531.08-.797.08H27.973c-.266 0-.529-.027-.797-.08-.263-.053-.518-.13-.762-.232l-.004-.002h-.002c-.245-.1-.476-.225-.699-.375a3.93 3.93 0 0 1-.617-.506h-.002l-.002-.002c-.189-.189-.361-.395-.51-.617s-.272-.456-.373-.703l-.002-.002v-.004c-.103-.245-.18-.496-.232-.762-.052-.258-.076-.526-.076-.797V66.125c0-.266.025-.535.076-.793v-.002c.052-.265.129-.517.232-.762v-.002l.002-.002c.101-.247.224-.482.373-.703s.321-.428.51-.617l.002-.002.002-.002a3.93 3.93 0 0 1 .617-.506c.223-.15.454-.273.699-.373l.002-.002h.004c.243-.103.499-.18.762-.232.268-.053.531-.08.797-.08z" class="C"/><use href="#v"/><use href="#v" x="6.069"/><use href="#w"/><use href="#u" x="-68.275"/><use href="#x"/><use href="#o" x="152.621" class="B"/><use href="#p" x="152.621"/><use href="#y"/><use href="#q" x="152.621"/><use href="#L" x="-176.669" y="-154.91"/><use href="#F" x="-39.129" y="30.145"/><use href="#g" x="-65.341" y="-200.698"/><use href="#F" x="-29.587" y="30.144"/><use href="#L" x="-158.435" y="-154.911"/><use href="#E" x="-16.35" y="30.144"/><use href="#F" x="-16.343" y="30.144"/><use href="#U" x="-166.552" y="-223.211"/><use href="#L" x="-137.201" y="-154.911"/><use href="#G" x="-13.906" y="30.145"/><use href="#K" x="-107.007" y="-154.911"/><use href="#Z" x="-220.789" y="-223.211"/><use href="#e" x="25.977" y="-200.698"/><use href="#J" x="-84.382" y="-154.911"/><use href="#V" x="-135.024" y="-223.211"/><use href="#L" x="-101.314" y="-154.911"/><use href="#G" x="21.981" y="30.145"/><use href="#g" x="10.407" y="-200.698"/><use href="#e" x="54.661" y="-200.698"/><path d="M241.641 61.546h44.262a4.6 4.6 0 0 1 .895.09c.293.059.578.145.859.262a4.38 4.38 0 0 1 .789.422c.25.168.48.355.695.57s.402.441.57.691a4.97 4.97 0 0 1 .422.793 4.65 4.65 0 0 1 .262.859c.059.293.086.594.086.891v21.367c0 .301-.027.602-.086.895a4.65 4.65 0 0 1-.262.859 4.97 4.97 0 0 1-.422.793c-.168.25-.359.48-.57.691s-.445.402-.695.57a4.38 4.38 0 0 1-.789.422c-.281.117-.566.203-.859.262a4.6 4.6 0 0 1-.895.09h-44.262a4.53 4.53 0 0 1-.891-.09 4.37 4.37 0 0 1-.859-.262 4.41 4.41 0 0 1-.793-.422 4.4 4.4 0 0 1-1.262-1.262c-.168-.25-.309-.516-.426-.793s-.199-.562-.258-.859a4.57 4.57 0 0 1-.09-.895V66.124a4.56 4.56 0 0 1 .09-.891 4.64 4.64 0 0 1 .258-.859c.117-.277.258-.543.426-.793a4.4 4.4 0 0 1 1.262-1.262 4.41 4.41 0 0 1 .793-.422 4.37 4.37 0 0 1 .859-.262 4.53 4.53 0 0 1 .891-.09zm0 0" fill="#e1d5e7"/><path d="M241.641 61.046a5.03 5.03 0 0 0-.988.1c-.328.065-.647.16-.957.291-.306.125-.6.281-.877.467a4.91 4.91 0 0 0-.762.629 4.92 4.92 0 0 0-.637.77c-.187.279-.342.573-.471.877v.004l-.002.002a5.14 5.14 0 0 0-.285.951 5.05 5.05 0 0 0-.1.988v21.367c0 .335.035.668.1.992a5.16 5.16 0 0 0 .285.951l.002.002v.002c.128.304.283.6.471.879s.396.531.637.768a4.91 4.91 0 0 0 .762.629c.277.186.571.343.877.469.31.131.629.226.957.291.323.065.653.1.988.1h44.262a5.1 5.1 0 0 0 .99-.1h.002a5.04 5.04 0 0 0 .953-.291 4.89 4.89 0 0 0 .877-.469c.275-.185.531-.392.77-.631a5.12 5.12 0 0 0 .631-.766l.002-.004.002-.002c.181-.276.336-.569.465-.873v-.002l.002-.002c.123-.302.223-.619.289-.951v-.002c.065-.327.096-.66.096-.99V66.125a5.05 5.05 0 0 0-.096-.988c-.066-.332-.165-.648-.289-.951l-.002-.002v-.004c-.128-.304-.284-.597-.465-.873l-.002-.002-.002-.002a5.12 5.12 0 0 0-.631-.766 5.13 5.13 0 0 0-.77-.633 4.88 4.88 0 0 0-.879-.469c-.311-.13-.628-.224-.951-.289h-.002c-.326-.064-.655-.1-.99-.1zm0 1h44.262c.266 0 .529.027.797.08a4.01 4.01 0 0 1 .764.232h.002l.002.002c.245.1.476.223.699.373s.43.318.621.51.359.395.508.617.27.456.375.703.183.504.234.766v.002c.052.258.076.527.076.793v21.367a4.08 4.08 0 0 1-.076.797 4.15 4.15 0 0 1-.232.762c-.106.251-.232.489-.379.713s-.318.425-.506.613-.396.357-.621.508-.454.275-.699.375h-.002-.002a4.02 4.02 0 0 1-.764.234c-.268.053-.531.08-.797.08h-44.262a4.03 4.03 0 0 1-.793-.08c-.265-.052-.517-.129-.762-.232l-.004-.002h-.002c-.247-.101-.482-.226-.703-.375s-.428-.317-.613-.506l-.004-.002-.004-.004c-.189-.185-.355-.388-.506-.613-.147-.219-.272-.455-.377-.703l-.002-.006c-.1-.246-.177-.498-.229-.762s-.08-.531-.08-.797V66.125a4.07 4.07 0 0 1 .08-.793v-.002c.052-.264.128-.515.229-.762l.002-.004a4.17 4.17 0 0 1 .377-.703 3.91 3.91 0 0 1 .506-.615l.004-.002.004-.004c.185-.189.388-.355.613-.506s.456-.272.703-.373l.002-.002h.004c.245-.103.496-.18.762-.232s.527-.08.793-.08z" class="G"/><path d="M253.628 81.007H251.8v-3.891c0-.477-.09-.836-.266-1.078-.168-.238-.434-.359-.797-.359-.512 0-.883.172-1.109.516-.23.336-.344.891-.344 1.672v3.141h-1.812v-6.656h1.391l.25.844h.094c.195-.32.473-.562.828-.719a2.93 2.93 0 0 1 1.219-.25c.781 0 1.367.211 1.766.625.406.418.609 1.023.609 1.813zm0 0"/><use href="#z"/><use href="#AA"/><use href="#r" x="175.562"/><path d="M275.505 77.601l-2.141-3.25h2.063l1.297 2.109 1.297-2.109h2.063l-2.172 3.25 2.281 3.406h-2.078l-1.391-2.281-1.406 2.281h-2.062zm0 0"/><use href="#x" x="152.621"/><path d="M180.594 61.546h44.262a4.53 4.53 0 0 1 .891.09 4.37 4.37 0 0 1 .859.262 4.41 4.41 0 0 1 .793.422 4.4 4.4 0 0 1 1.262 1.262 4.41 4.41 0 0 1 .422.793 4.37 4.37 0 0 1 .262.859 4.56 4.56 0 0 1 .09.891v21.367a4.57 4.57 0 0 1-.09.895 4.37 4.37 0 0 1-.262.859 4.41 4.41 0 0 1-.422.793 4.4 4.4 0 0 1-1.262 1.262 4.41 4.41 0 0 1-.793.422 4.37 4.37 0 0 1-.859.262 4.53 4.53 0 0 1-.891.09h-44.262a4.6 4.6 0 0 1-.895-.09 4.45 4.45 0 0 1-.859-.262 4.38 4.38 0 0 1-.789-.422c-.25-.168-.48-.355-.695-.57a4.63 4.63 0 0 1-.57-.691c-.164-.25-.309-.516-.422-.793a4.65 4.65 0 0 1-.262-.859c-.059-.293-.086-.594-.086-.895V66.124c0-.297.027-.598.086-.891a4.65 4.65 0 0 1 .262-.859c.113-.277.258-.543.422-.793a4.63 4.63 0 0 1 .57-.691c.215-.215.445-.402.695-.57s.512-.309.789-.422a4.45 4.45 0 0 1 .859-.262 4.6 4.6 0 0 1 .895-.09zm0 0" class="D"/><path d="M180.594 61.046c-.335 0-.666.035-.992.1s-.646.159-.957.291a4.88 4.88 0 0 0-.873.467 5.13 5.13 0 0 0-1.402 1.398v.002l-.002.002c-.179.273-.339.567-.467.879-.124.303-.223.619-.289.951s-.096.661-.096.988v21.367c0 .331.03.664.096.992s.166.649.289.951c.127.312.288.604.467.877l.002.002v.004a5.13 5.13 0 0 0 .633.766c.238.238.495.446.77.631a4.89 4.89 0 0 0 .879.471 4.96 4.96 0 0 0 .951.289c.326.064.657.1.992.1h44.262c.335 0 .665-.035.988-.1s.643-.159.951-.289a4.92 4.92 0 0 0 .883-.471 4.91 4.91 0 0 0 .762-.629 4.89 4.89 0 0 0 .635-.768c.187-.278.343-.572.469-.879.131-.309.226-.627.291-.955v-.002a5.06 5.06 0 0 0 .1-.99V66.125a5.05 5.05 0 0 0-.1-.988c-.064-.326-.159-.643-.289-.951a4.92 4.92 0 0 0-.471-.883c-.185-.275-.394-.533-.635-.77a4.91 4.91 0 0 0-1.645-1.098c-.308-.13-.625-.225-.951-.289a5.03 5.03 0 0 0-.988-.1zm0 1h44.262c.266 0 .53.028.793.08s.517.129.762.232h.004l.002.002c.247.101.482.224.703.373s.428.317.613.506l.004.004.004.002c.189.185.353.39.504.615s.274.456.375.703l.002.002v.002c.103.245.18.496.232.762v.002a4.07 4.07 0 0 1 .08.793v21.367c0 .266-.028.535-.08.797s-.129.517-.232.762v.004l-.002.002c-.101.247-.226.482-.375.703a3.88 3.88 0 0 1-.504.613l-.004.004-.004.002c-.185.189-.388.355-.613.506s-.456.274-.703.375h-.002l-.004.002c-.245.103-.496.18-.762.232a4.03 4.03 0 0 1-.793.08h-44.262c-.266 0-.529-.027-.797-.08-.263-.053-.518-.13-.762-.232l-.004-.002h-.002c-.245-.1-.476-.225-.699-.375s-.43-.317-.621-.508a4.14 4.14 0 0 1-.506-.613c-.149-.227-.278-.464-.377-.707-.103-.252-.183-.506-.234-.768a4.08 4.08 0 0 1-.076-.797V66.125c0-.266.025-.535.076-.793v-.002c.052-.261.131-.514.234-.766a4.19 4.19 0 0 1 .373-.703l.002-.002c.15-.224.32-.428.508-.615s.396-.359.621-.51.454-.273.699-.373l.002-.002h.004c.243-.103.499-.18.762-.232.268-.053.531-.08.797-.08z" class="C"/><use href="#v" x="152.622"/><use href="#v" x="158.691"/><use href="#w" x="152.622"/><use href="#u" x="84.347"/><use href="#o" x="305.242" class="B"/><use href="#p" x="305.242"/><use href="#y" x="152.621"/><use href="#q" x="305.242"/><use href="#d" x="-144.064" y="-223.211"/><use href="#O" x="32.765" y="-223.211"/><use href="#e" x="153.367" y="-200.698"/><use href="#J" x="43.008" y="-154.911"/><use href="#V" x="-7.634" y="-223.211"/><use href="#L" x="26.076" y="-154.911"/><use href="#G" x="149.37" y="30.145"/><use href="#g" x="137.797" y="-200.698"/><use href="#e" x="182.051" y="-200.698"/><path d="M394.262 61.546h44.262a4.6 4.6 0 0 1 .895.09 4.45 4.45 0 0 1 .859.262 4.38 4.38 0 0 1 .789.422c.25.168.48.355.695.57a4.63 4.63 0 0 1 .57.691c.164.25.309.516.422.793a4.65 4.65 0 0 1 .262.859c.059.293.086.594.086.891v21.367c0 .301-.027.602-.086.895a4.65 4.65 0 0 1-.262.859c-.113.277-.258.543-.422.793a4.63 4.63 0 0 1-.57.691c-.215.215-.445.402-.695.57a4.38 4.38 0 0 1-.789.422 4.45 4.45 0 0 1-.859.262 4.6 4.6 0 0 1-.895.09h-44.262a4.56 4.56 0 0 1-.891-.09 4.37 4.37 0 0 1-.859-.262 4.41 4.41 0 0 1-.793-.422 4.4 4.4 0 0 1-1.262-1.262 4.41 4.41 0 0 1-.422-.793 4.37 4.37 0 0 1-.262-.859 4.57 4.57 0 0 1-.09-.895V66.124a4.56 4.56 0 0 1 .09-.891 4.37 4.37 0 0 1 .262-.859 4.41 4.41 0 0 1 .422-.793 4.4 4.4 0 0 1 1.262-1.262 4.41 4.41 0 0 1 .793-.422 4.37 4.37 0 0 1 .859-.262 4.56 4.56 0 0 1 .891-.09zm0 0" fill="#d5e8d4"/><path d="M394.262 61.046a5.05 5.05 0 0 0-.988.1c-.328.065-.647.16-.957.291-.306.125-.6.281-.877.467a4.91 4.91 0 0 0-.762.629 4.92 4.92 0 0 0-.637.77c-.186.277-.341.571-.467.877-.131.31-.226.629-.291.957a5.05 5.05 0 0 0-.1.988v21.367c0 .335.035.668.1.992a4.87 4.87 0 0 0 .289.951 4.91 4.91 0 0 0 .469.883c.185.275.396.531.637.768a4.91 4.91 0 0 0 .762.629c.277.186.571.343.877.469.31.131.629.226.957.291a5.05 5.05 0 0 0 .988.1h44.262a5.1 5.1 0 0 0 .99-.1h.002c.321-.064.642-.159.951-.289a4.89 4.89 0 0 0 .879-.471c.275-.185.531-.392.77-.631a5.12 5.12 0 0 0 .631-.766l.002-.004.002-.002c.179-.273.339-.565.467-.877.123-.302.223-.619.289-.951v-.002c.065-.327.096-.66.096-.99V66.125a5.05 5.05 0 0 0-.096-.988c-.066-.332-.165-.648-.289-.951-.127-.312-.288-.606-.467-.879l-.002-.002-.002-.002a5.12 5.12 0 0 0-.631-.766 5.13 5.13 0 0 0-.77-.633 4.88 4.88 0 0 0-.879-.469 4.96 4.96 0 0 0-.951-.289h-.002c-.326-.064-.655-.1-.99-.1zm0 1h44.262c.266 0 .529.027.797.08.263.053.518.13.762.232h.004l.002.002c.245.1.476.223.699.373s.43.318.621.51.359.395.508.617a4.19 4.19 0 0 1 .375.703c.103.252.183.504.234.766v.002a4.07 4.07 0 0 1 .076.793v21.367a4.08 4.08 0 0 1-.076.797c-.052.261-.131.516-.234.768-.099.243-.228.48-.377.707-.149.221-.318.425-.506.613s-.396.357-.621.508-.454.275-.699.375h-.002l-.004.002c-.243.103-.499.18-.762.232-.268.053-.531.08-.797.08h-44.262a4.07 4.07 0 0 1-.793-.08h-.002c-.265-.052-.515-.129-.76-.232l-.004-.002h-.002c-.247-.101-.482-.226-.703-.375s-.428-.317-.613-.506l-.004-.002-.004-.004c-.189-.185-.355-.388-.506-.613s-.272-.456-.373-.703l-.002-.002v-.004c-.103-.245-.18-.496-.232-.762s-.08-.531-.08-.797V66.125a4.07 4.07 0 0 1 .08-.793v-.002c.052-.265.129-.517.232-.762v-.002l.002-.002c.101-.247.224-.482.373-.703a3.91 3.91 0 0 1 .506-.615l.004-.002.004-.004c.185-.189.388-.355.613-.506s.456-.272.703-.373l.002-.002h.004c.245-.103.494-.18.76-.232h.002c.262-.052.531-.08.793-.08z" class="F"/><use href="#s" x="296.945"/><use href="#AB"/><use href="#AA" x="144.233"/><path d="M413.057 81.132c-2.074 0-3.109-1.141-3.109-3.422 0-1.133.281-2 .844-2.594s1.367-.891 2.422-.891c.77 0 1.461.152 2.078.453l-.531 1.406-.812-.281c-.242-.082-.484-.125-.734-.125-.937 0-1.406.672-1.406 2.016 0 1.305.469 1.953 1.406 1.953.352 0 .676-.039.969-.125.301-.094.602-.242.906-.453v1.563c-.293.188-.59.32-.891.391s-.684.109-1.141.109zm0 0"/><use href="#t" x="298.685"/><path d="M423.251 78.476v-1.484h3.203v1.484zm0 0"/><use href="#AB" x="24.873"/><use href="#z" x="176.004"/><path d="M333.215 61.546h44.262a4.53 4.53 0 0 1 .891.09 4.37 4.37 0 0 1 .859.262 4.41 4.41 0 0 1 .793.422 4.4 4.4 0 0 1 1.262 1.262c.168.25.309.516.426.793a4.64 4.64 0 0 1 .258.859 4.56 4.56 0 0 1 .09.891v21.367a4.57 4.57 0 0 1-.09.895 4.64 4.64 0 0 1-.258.859c-.117.277-.258.543-.426.793a4.4 4.4 0 0 1-1.262 1.262 4.41 4.41 0 0 1-.793.422 4.37 4.37 0 0 1-.859.262 4.53 4.53 0 0 1-.891.09h-44.262a4.6 4.6 0 0 1-.895-.09c-.293-.059-.578-.145-.859-.262a4.38 4.38 0 0 1-.789-.422c-.25-.168-.48-.355-.695-.57s-.402-.441-.57-.691a4.97 4.97 0 0 1-.422-.793 4.65 4.65 0 0 1-.262-.859c-.059-.293-.086-.594-.086-.895V66.124c0-.297.027-.598.086-.891a4.65 4.65 0 0 1 .262-.859 4.97 4.97 0 0 1 .422-.793c.168-.25.359-.48.57-.691s.445-.402.695-.57a4.38 4.38 0 0 1 .789-.422c.281-.117.566-.203.859-.262a4.6 4.6 0 0 1 .895-.09zm0 0" class="D"/><path d="M333.215 61.046c-.335 0-.666.035-.992.1s-.64.16-.951.289a4.88 4.88 0 0 0-.879.469 5.13 5.13 0 0 0-1.402 1.398v.002l-.002.002c-.181.276-.336.569-.465.873v.004l-.002.002c-.124.303-.223.619-.289.951s-.096.661-.096.988v21.367c0 .331.03.664.096.992s.166.649.289.951v.002l.002.002c.128.304.284.597.465.873l.002.002v.004a5.13 5.13 0 0 0 .633.766c.238.238.495.446.77.631a4.89 4.89 0 0 0 .875.469 5.06 5.06 0 0 0 .955.291c.326.064.657.1.992.1h44.262a5.03 5.03 0 0 0 .986-.1 4.89 4.89 0 0 0 .953-.289c.308-.126.604-.283.883-.471a4.91 4.91 0 0 0 .762-.629 4.89 4.89 0 0 0 .635-.768c.187-.279.344-.575.473-.879v-.002l.002-.002a5.16 5.16 0 0 0 .285-.951v-.002a5.06 5.06 0 0 0 .1-.99V66.125a5.05 5.05 0 0 0-.1-.988 5.14 5.14 0 0 0-.285-.951l-.002-.002v-.004a5.2 5.2 0 0 0-.473-.877c-.185-.275-.394-.533-.635-.77a4.91 4.91 0 0 0-.762-.629c-.277-.186-.571-.341-.877-.467l-.006-.002a4.89 4.89 0 0 0-.951-.289 5.03 5.03 0 0 0-.988-.1zm0 1h44.262c.266 0 .53.028.793.08s.517.129.762.232h.004l.002.002c.247.101.482.224.703.373s.428.317.613.506l.004.004.004.002a3.9 3.9 0 0 1 .504.615c.148.22.273.454.379.703s.178.5.23.766v.002a4.07 4.07 0 0 1 .08.793v21.367c0 .266-.028.535-.08.797s-.128.515-.229.762c-.106.251-.232.488-.381.709s-.315.428-.504.613l-.004.004-.004.002c-.185.189-.388.355-.613.506s-.456.274-.703.375h-.002l-.004.002c-.245.103-.496.18-.762.232a4.03 4.03 0 0 1-.793.08h-44.262c-.266 0-.53-.028-.797-.08h-.002a4.04 4.04 0 0 1-.764-.234h-.002c-.245-.1-.476-.225-.699-.375s-.43-.317-.621-.508-.357-.393-.506-.613-.272-.458-.377-.707l-.002-.006a4.15 4.15 0 0 1-.232-.762 4.07 4.07 0 0 1-.076-.797V66.125c0-.266.025-.535.076-.793v-.002a4.13 4.13 0 0 1 .232-.762l.002-.004c.105-.247.229-.482.373-.703l.002-.002c.15-.224.32-.428.508-.615s.396-.359.621-.51.454-.273.699-.373l.002-.002a4.03 4.03 0 0 1 .764-.232c.268-.053.533-.08.799-.08z" class="C"/><use href="#v" x="305.243"/><use href="#v" x="311.312"/><use href="#w" x="305.243"/><use href="#u" x="236.969"/><use href="#x" x="305.243"/><g class="C"><path d="M48.602 92.074v38.152c0 2.795.722 5.16 2.348 6.785s3.99 2.348 6.785 2.348h26.707c2.295 0 3.746.549 4.664 1.467s1.469 2.369 1.469 4.662v133.547c0 2.793.721 5.156 2.346 6.781s3.99 2.348 6.783 2.348h106.758v-3H99.703c-2.293 0-3.742-.551-4.66-1.469s-1.469-2.367-1.469-4.66V145.488c0-2.793-.722-5.158-2.348-6.783s-3.99-2.346-6.785-2.346H57.734c-2.295 0-3.746-.55-4.664-1.469s-1.469-2.369-1.469-4.664V92.074z"/><use href="#AC"/><use href="#AD"/><path d="M201.223 92.074v38.152c0 2.295-.551 3.746-1.469 4.664s-2.367 1.469-4.66 1.469H99.703c-2.793 0-5.158.721-6.783 2.346s-2.346 3.99-2.346 6.783v133.547c0 2.793.721 5.156 2.346 6.781s3.99 2.348 6.783 2.348h106.758v-3H99.703c-2.293 0-3.742-.551-4.66-1.469s-1.469-2.367-1.469-4.66V145.488c0-2.293.551-3.744 1.469-4.662s2.367-1.467 4.66-1.467h95.391c2.793 0 5.158-.722 6.783-2.348s2.346-3.99 2.346-6.785V92.074z"/><use href="#AC"/><use href="#AD"/><path d="M353.844 92.074v38.152c0 2.295-.551 3.746-1.469 4.664s-2.367 1.469-4.66 1.469H99.703c-2.793 0-5.158.721-6.783 2.346s-2.346 3.99-2.346 6.783v133.547c0 2.793.721 5.156 2.346 6.781s3.99 2.348 6.783 2.348h106.758v-3H99.703c-2.293 0-3.742-.551-4.66-1.469s-1.469-2.367-1.469-4.66V145.488c0-2.293.551-3.744 1.469-4.662s2.367-1.467 4.66-1.467h248.012c2.793 0 5.158-.722 6.783-2.348s2.346-3.99 2.346-6.785V92.074z"/><use href="#AC"/><use href="#AD"/></g><g class="H"><path d="M109.652 92.074v164.066c0 2.793.721 5.157 2.346 6.783s3.99 2.35 6.783 2.35h87.68v-3h-87.68c-2.293 0-3.742-.552-4.66-1.471s-1.469-2.369-1.469-4.662V92.074z"/><path d="M211.614 263.772l-6.867 3.434 1.715-3.434-1.715-3.437zm0 0"/><path d="M201.397 256.98l3.389 6.793-3.391 6.785 13.57-6.785zm6.697 6.707l.168.084-.166.082.041-.08z"/></g><g class="F"><path d="M414.895 92.074v68.68c0 2.293-.55 3.742-1.469 4.66s-2.369 1.469-4.664 1.469H191.277c-2.793 0-5.159.72-6.785 2.346s-2.348 3.992-2.348 6.787v34.34c0 2.793.724 5.156 2.35 6.781s3.99 2.348 6.783 2.348h15.184v-3h-15.184c-2.293 0-3.745-.551-4.664-1.469s-1.469-2.368-1.469-4.66v-34.34c0-2.295.55-3.746 1.469-4.664s2.371-1.469 4.664-1.469h217.484c2.795 0 5.159-.723 6.785-2.348s2.348-3.988 2.348-6.781v-68.68z"/><use href="#AC" y="-68.68"/><use href="#AD" y="-68.68"/></g><path d="M328.664 310.824c0-.25.066-.437.203-.562.133-.133.332-.203.594-.203.25 0 .441.07.578.203s.203.324.203.563-.074.43-.219.563c-.137.133-.324.203-.562.203-.25 0-.449-.07-.594-.203-.137-.133-.203-.32-.203-.562zm2.609 0c0-.25.066-.437.203-.562.133-.133.332-.203.594-.203.25 0 .441.07.578.203s.203.324.203.563-.074.43-.219.563c-.137.133-.324.203-.562.203-.25 0-.449-.07-.594-.203-.137-.133-.203-.32-.203-.562zm2.609 0c0-.25.066-.437.203-.562.133-.133.332-.203.594-.203.25 0 .441.07.578.203s.203.324.203.563-.074.43-.219.563c-.137.133-.324.203-.562.203-.25 0-.449-.07-.594-.203-.137-.133-.203-.32-.203-.562zm0 0"/><path d="M27.973 305.741h44.258c.301 0 .602.031.895.09a4.64 4.64 0 0 1 .859.258c.277.117.543.258.793.426s.48.355.691.566.402.445.57.695a4.41 4.41 0 0 1 .422.793 4.37 4.37 0 0 1 .262.859 4.53 4.53 0 0 1 .09.891v21.367a4.6 4.6 0 0 1-.09.895 4.45 4.45 0 0 1-.262.859 4.38 4.38 0 0 1-.422.789 4.43 4.43 0 0 1-.57.695c-.211.211-.441.402-.691.57a4.41 4.41 0 0 1-.793.422 4.37 4.37 0 0 1-.859.262c-.293.059-.594.086-.895.086H27.973c-.301 0-.598-.027-.895-.086a4.45 4.45 0 0 1-.859-.262 4.38 4.38 0 0 1-.789-.422 4.66 4.66 0 0 1-1.266-1.266 4.38 4.38 0 0 1-.422-.789 4.45 4.45 0 0 1-.262-.859c-.059-.297-.086-.594-.086-.895v-21.367a4.53 4.53 0 0 1 .086-.891 4.37 4.37 0 0 1 .262-.859 4.41 4.41 0 0 1 .422-.793c.168-.25.359-.48.57-.695s.445-.402.695-.566.512-.309.789-.426a4.73 4.73 0 0 1 .859-.258 4.6 4.6 0 0 1 .895-.09zm0 0" class="D"/><path d="M27.973 305.242c-.335 0-.666.035-.992.1a5.23 5.23 0 0 0-.951.285h-.002l-.004.002a5.16 5.16 0 0 0-.867.469c-.279.183-.54.396-.775.631l-.002.002h-.002c-.23.235-.44.49-.627.768s-.343.571-.469.877a4.87 4.87 0 0 0-.291.957c-.065.327-.096.657-.096.988v21.367c0 .331.031.66.096.99v.002a4.94 4.94 0 0 0 .289.951c.126.309.285.6.471.877a5.16 5.16 0 0 0 .631.771c.235.235.494.446.77.631a4.89 4.89 0 0 0 .879.471 4.96 4.96 0 0 0 .951.289 5.12 5.12 0 0 0 .992.096h44.258c.331 0 .664-.03.992-.096s.643-.159.951-.289a4.92 4.92 0 0 0 .883-.471c.277-.186.53-.397.762-.629.243-.239.451-.501.635-.773s.343-.565.469-.873c.132-.311.226-.632.291-.955v-.002c.064-.326.1-.655.1-.99V310.32a5.03 5.03 0 0 0-.1-.988c-.064-.326-.159-.643-.289-.951s-.283-.604-.471-.883-.392-.531-.631-.77a4.88 4.88 0 0 0-.771-.631 5.19 5.19 0 0 0-.871-.469l-.004-.002h-.002a5.14 5.14 0 0 0-.951-.285c-.324-.065-.657-.1-.992-.1zm0 1h44.258a4.07 4.07 0 0 1 .797.08c.263.052.515.128.762.229a4.19 4.19 0 0 1 .709.379l.002.002.004.002a3.87 3.87 0 0 1 .611.502 4.09 4.09 0 0 1 .508.619 3.93 3.93 0 0 1 .375.705l.002.002v.002c.103.245.18.496.232.762v.002c.053.263.08.527.08.793v21.367c0 .266-.027.529-.08.797-.053.263-.13.518-.232.762v.002l-.002.004c-.1.245-.225.476-.375.699a3.92 3.92 0 0 1-.504.617l-.002.002-.002.002a4.12 4.12 0 0 1-.617.508c-.221.149-.456.274-.703.375h-.002l-.004.002c-.245.103-.496.18-.762.232a4.07 4.07 0 0 1-.797.076H27.973c-.27 0-.534-.024-.797-.076h-.002c-.262-.053-.517-.13-.76-.232l-.004-.002h-.002c-.245-.1-.476-.225-.699-.375a4.16 4.16 0 0 1-.621-.508c-.187-.187-.359-.397-.51-.621s-.273-.454-.373-.699l-.002-.004v-.002c-.103-.243-.18-.499-.232-.762a4.08 4.08 0 0 1-.076-.797V310.32a4.03 4.03 0 0 1 .076-.793v-.002c.052-.265.129-.517.232-.762v-.002l.002-.002c.101-.247.224-.484.373-.705s.32-.425.51-.619l.002-.002a3.91 3.91 0 0 1 .613-.5l.004-.002.002-.002c.221-.149.452-.272.699-.377l.006-.002c.245-.1.501-.176.762-.229.268-.053.531-.08.797-.08z" class="C"/><use href="#v" y="244.194"/><use href="#v" x="6.069" y="244.194"/><use href="#w" y="244.194"/><use href="#u" x="-68.275" y="244.194"/><g class="G"><path d="M262.273 92.074v53.414c0 2.295-.55 3.746-1.469 4.664s-2.369 1.469-4.664 1.469h-95.387c-2.795 0-5.159.72-6.785 2.346s-2.348 3.992-2.348 6.787v72.492c0 2.795.722 5.16 2.348 6.785s3.99 2.348 6.785 2.348h45.707v-3h-45.707c-2.295 0-3.746-.55-4.664-1.469s-1.469-2.369-1.469-4.664v-72.492c0-2.295.55-3.746 1.469-4.664s2.369-1.469 4.664-1.469h95.387c2.795 0 5.159-.722 6.785-2.348s2.348-3.99 2.348-6.785V92.074z"/><use href="#AC" y="-45.785"/><use href="#AD" y="-45.786"/></g><g class="C"><path d="M57.734 285.164c-2.795 0-5.159.72-6.785 2.346s-2.348 3.992-2.348 6.787v11.445h3v-11.445c0-2.295.55-3.746 1.469-4.664s2.369-1.469 4.664-1.469h148.727v-3z"/><use href="#AC"/><use href="#AD"/></g></svg>