<svg xmlns="http://www.w3.org/2000/svg" width="261.079" height="417.328" viewBox="0 0 195.809 312.996" xmlns:v="https://vecta.io/nano"><g fill="#f8cecc"><path d="M67.016 6.363h62.902c.883 0 1.758.086 2.629.262a13.28 13.28 0 0 1 2.527.766c.816.34 1.594.754 2.332 1.246a13.53 13.53 0 0 1 2.039 1.676 12.92 12.92 0 0 1 1.676 2.043c.492.734.91 1.512 1.246 2.328a13.33 13.33 0 0 1 .77 2.531 13.48 13.48 0 0 1 .258 2.629v62.898c0 .883-.086 1.762-.258 2.629a13.29 13.29 0 0 1-.77 2.527c-.336.82-.754 1.594-1.246 2.332s-1.047 1.414-1.676 2.043a13.53 13.53 0 0 1-2.039 1.676c-.738.492-1.516.906-2.332 1.246a13.57 13.57 0 0 1-2.527.766 13.54 13.54 0 0 1-2.629.258H67.016c-.883 0-1.758-.086-2.629-.258a13.57 13.57 0 0 1-2.527-.766c-.816-.34-1.594-.754-2.332-1.246a13.53 13.53 0 0 1-2.039-1.676c-.629-.629-1.187-1.309-1.676-2.043a13.24 13.24 0 0 1-1.246-2.332 13.29 13.29 0 0 1-.77-2.527 13.51 13.51 0 0 1-.258-2.629V19.844c0-.887.086-1.762.258-2.629a13.33 13.33 0 0 1 .77-2.531c.336-.816.754-1.594 1.246-2.328a12.92 12.92 0 0 1 1.676-2.043 13.53 13.53 0 0 1 2.039-1.676c.738-.492 1.516-.906 2.332-1.246a13.28 13.28 0 0 1 2.527-.766c.871-.176 1.746-.262 2.629-.262zm0 0"/><path d="M74.879 6.363h99.59a20.83 20.83 0 0 1 2.094.105 20.49 20.49 0 0 1 2.07.305 21.16 21.16 0 0 1 2.031.512c.668.199 1.328.438 1.973.703l1.895.895 1.793 1.078a21.05 21.05 0 0 1 1.684 1.246l1.551 1.406 1.406 1.555a21.76 21.76 0 0 1 1.25 1.68l1.074 1.797c.332.617.629 1.25.898 1.895l.703 1.973c.203.668.375 1.344.508 2.031s.242 1.375.309 2.07.102 1.395.102 2.094V254.59l-.102 2.094a20.67 20.67 0 0 1-.309 2.07c-.133.684-.305 1.363-.508 2.031l-.703 1.973-.898 1.891c-.328.617-.687 1.219-1.074 1.797l-1.25 1.684-1.406 1.551c-.492.496-1.012.965-1.551 1.406s-1.102.859-1.684 1.25l-1.793 1.074c-.617.332-1.25.629-1.895.895a20.8 20.8 0 0 1-1.973.707c-.668.203-1.344.371-2.031.508s-1.375.242-2.07.309-1.395.102-2.094.102h-99.59a20.72 20.72 0 0 1-2.09-.102c-.695-.066-1.387-.172-2.074-.309l-2.031-.508-1.969-.707a19.95 19.95 0 0 1-1.895-.895l-1.797-1.074-1.684-1.25a21.07 21.07 0 0 1-1.551-1.406l-1.406-1.551-1.246-1.684c-.391-.578-.75-1.18-1.078-1.797l-.895-1.891c-.27-.648-.504-1.305-.707-1.973a21.43 21.43 0 0 1-.508-2.031l-.309-2.07-.102-2.094V27.707l.102-2.094.309-2.07.508-2.031.707-1.973a21.47 21.47 0 0 1 .895-1.895c.328-.617.688-1.215 1.078-1.797l1.246-1.68 1.406-1.555 1.551-1.406 1.684-1.246 1.797-1.078 1.895-.895 1.969-.703 2.031-.512c.688-.137 1.379-.238 2.074-.305s1.391-.105 2.09-.105zm0 0"/></g><g fill="#b85450"><path d="M91.156 260.585h2.328c1.063 0 1.832.152 2.313.453s.719.781.719 1.438c0 .449-.105.82-.312 1.109a1.29 1.29 0 0 1-.828.516v.047c.469.105.805.305 1.016.594s.313.68.313 1.156c0 .688-.246 1.227-.734 1.609-.492.375-1.156.563-2 .563h-2.812zm1.594 2.969h.922c.426 0 .734-.066.922-.203.195-.133.297-.352.297-.656 0-.289-.105-.5-.312-.625s-.543-.187-1-.187h-.828zm0 1.25v1.953h1.031c.438 0 .758-.082.969-.25s.313-.422.313-.766c0-.625-.445-.937-1.328-.937zm8.527-2.563c.207 0 .383.016.531.047l-.125 1.453a1.9 1.9 0 0 0-.453-.047c-.5 0-.891.133-1.172.391-.281.25-.422.609-.422 1.078v2.906h-1.562v-5.719h1.188l.234.953h.078a2.03 2.03 0 0 1 .719-.766 1.78 1.78 0 0 1 .984-.297zm0 0"/><use href="#B"/><use href="#C"/><path d="M117.259 268.178c-.668 0-1.195-.258-1.578-.781-.387-.531-.578-1.254-.578-2.172 0-.945.191-1.68.578-2.203.395-.52.938-.781 1.625-.781.719 0 1.27.281 1.656.844h.047a5.87 5.87 0 0 1-.125-1.156V260.1h1.578v7.969h-1.203l-.297-.75h-.078c-.355.574-.898.859-1.625.859zm.547-1.25c.406 0 .703-.113.891-.344.188-.238.285-.633.297-1.187v-.172c0-.613-.094-1.051-.281-1.312-.187-.27-.496-.406-.922-.406-.355 0-.633.152-.828.453-.187.293-.281.719-.281 1.281s.098.984.297 1.266a.95.95 0 0 0 .828.422zm6.603 1.25c-1.781 0-2.672-.977-2.672-2.937 0-.977.238-1.723.719-2.234.488-.508 1.188-.766 2.094-.766.664 0 1.258.133 1.781.391l-.453 1.203-.703-.234a1.97 1.97 0 0 0-.625-.109c-.812 0-1.219.578-1.219 1.734 0 1.125.406 1.688 1.219 1.688a2.54 2.54 0 0 0 .828-.125c.258-.082.52-.207.781-.375v1.328a2.57 2.57 0 0 1-.781.344c-.25.063-.574.094-.969.094zm0 0"/><use href="#C" x="18.355"/><path d="M137.802 266.366c0 .594-.203 1.047-.609 1.359-.406.305-1.016.453-1.828.453-.418 0-.777-.031-1.078-.094a3.18 3.18 0 0 1-.812-.25v-1.281c.289.137.613.25.969.344.363.086.688.125.969.125.563 0 .844-.16.844-.484 0-.125-.039-.223-.109-.297-.074-.082-.203-.172-.391-.266l-.734-.344c-.437-.176-.762-.344-.969-.5s-.359-.332-.453-.531c-.094-.207-.141-.461-.141-.766 0-.508.195-.898.594-1.172.395-.281.953-.422 1.672-.422.688 0 1.359.152 2.016.453l-.469 1.125a7.51 7.51 0 0 0-.812-.297c-.242-.082-.492-.125-.75-.125-.469 0-.703.125-.703.375 0 .137.07.258.219.359.156.105.484.258.984.453.445.188.773.359.984.516a1.4 1.4 0 0 1 .453.547c.102.199.156.438.156.719zm3.633.562c.27 0 .598-.062.984-.187v1.172c-.398.176-.875.266-1.437.266-.625 0-1.086-.156-1.375-.469-.281-.32-.422-.801-.422-1.437v-2.75h-.75v-.672l.859-.516.453-1.203h1v1.219h1.609v1.172h-1.609v2.75c0 .23.063.398.188.5s.289.156.5.156zm11.196-2.671c0 1.23-.355 2.172-1.062 2.828-.699.656-1.711.984-3.031.984h-2.125v-7.484h2.359c1.219 0 2.164.324 2.844.969s1.016 1.547 1.016 2.703zm-1.656.047c0-1.613-.711-2.422-2.125-2.422h-.844v4.875h.672c1.531 0 2.297-.816 2.297-2.453zm0 0"/><use href="#B" x="51.423"/><path d="M165.662 268.069H164.1v-3.344c0-.414-.07-.723-.203-.922-.137-.207-.355-.312-.656-.312-.398 0-.687.148-.875.438-.18.293-.266.777-.266 1.453v2.688h-1.562v-5.719h1.203l.203.734h.094c.156-.27.375-.477.656-.625.289-.145.625-.219 1-.219.852 0 1.438.281 1.75.844h.125c.156-.27.383-.477.688-.625a2.32 2.32 0 0 1 1.016-.219c.645 0 1.133.168 1.469.5s.5.867.5 1.594v3.734h-1.578v-3.344c0-.414-.07-.723-.203-.922-.137-.207-.355-.312-.656-.312-.375 0-.664.137-.859.406-.187.273-.281.703-.281 1.297zm0 0"/><use href="#C" x="61.716"/><path d="M177.101 260.866c0-.508.285-.766.859-.766.563 0 .844.258.844.766 0 .242-.074.43-.219.563-.137.137-.344.203-.625.203-.574 0-.859-.254-.859-.766zm1.625 7.203h-1.562v-5.719h1.563zm6.933 0h-1.562v-3.344c0-.414-.078-.723-.234-.922-.148-.207-.375-.312-.687-.312-.437 0-.758.148-.953.438s-.297.777-.297 1.453v2.688h-1.562v-5.719h1.203l.203.734h.094a1.5 1.5 0 0 1 .703-.625 2.46 2.46 0 0 1 1.047-.219c.664 0 1.172.184 1.516.547.352.355.531.871.531 1.547zm0 0"/></g><path fill="#666" d="M0 312.996V311.5h1.496v1.496M0 307.008v-1.5h1.496v1.5M0 301.016v-1.496h1.496v1.496M0 295.023v-1.496h1.496v1.496M0 289.035v-1.496h1.496v1.496M0 283.043v-1.496h1.496v1.496M0 277.055v-1.5h1.496v1.5M0 271.063v-1.496h1.496v1.496M0 265.074v-1.5h1.496v1.5M0 259.082v-1.496h1.496v1.496M0 253.094v-1.5h1.496v1.5M0 247.102v-1.496h1.496v1.496M0 241.113v-1.5h1.496v1.5M0 235.121v-1.496h1.496v1.496M0 229.133v-1.5h1.496v1.5M0 223.141v-1.496h1.496v1.496M0 217.152v-1.5h1.496v1.5M0 211.16v-1.496h1.496v1.496M0 205.168v-1.496h1.496v1.496M0 199.18v-1.496h1.496v1.496M0 193.188v-1.496h1.496v1.496M0 187.199v-1.5h1.496v1.5M0 181.207v-1.496h1.496v1.496M0 175.219v-1.5h1.496v1.5M0 169.227v-1.496h1.496v1.496M0 163.238v-1.5h1.496v1.5M0 157.246v-1.496h1.496v1.496M0 151.258v-1.5h1.496v1.5M0 145.266v-1.496h1.496v1.496M0 139.277v-1.5h1.496v1.5M0 133.285v-1.496h1.496v1.496M0 127.297v-1.5h1.496v1.5M0 121.305v-1.496h1.496v1.496M0 115.313v-1.496h1.496v1.496M0 109.324v-1.496h1.496v1.496M0 103.332v-1.496h1.496v1.496M0 97.344v-1.5h1.496v1.5M0 91.352v-1.496h1.496v1.496M0 85.363v-1.5h1.496v1.5M0 79.371v-1.496h1.496v1.496M0 73.383v-1.5h1.496v1.5M0 67.391v-1.496h1.496v1.496M0 61.402v-1.5h1.496v1.5M0 55.41v-1.496h1.496v1.496M0 49.422v-1.5h1.496v1.5M0 43.43v-1.496h1.496v1.496M0 37.441v-1.5h1.496v1.5M0 31.449v-1.496h1.496v1.496M0 25.457v-1.496h1.496v1.496M0 19.469v-1.496h1.496v1.496M0 13.477V11.98h1.496v1.496M0 7.488v-1.5h1.496v1.5M0 1.496V0h1.496v1.496"/><path d="M55.785 23.963v2.246h20.219c4.663 0 7.855 1.895 10.088 5.989l53.589 98.255 1.973-1.076-53.59-98.253c-2.548-4.671-6.739-7.16-12.06-7.16z" fill="#82b366"/><path fill="#fff" d="M81.53 294.598h33.89v14.365H81.53zm0 0"/><g fill="#82b366"><path d="M55.785 25.086a2.25 2.25 0 0 1-.172.859c-.113.273-.273.516-.484.727a2.2 2.2 0 0 1-.73.488c-.273.113-.562.172-.859.172s-.586-.059-.859-.172a2.2 2.2 0 0 1-.73-.488c-.211-.211-.371-.453-.484-.727a2.25 2.25 0 0 1-.172-.859 2.22 2.22 0 0 1 .172-.859 2.19 2.19 0 0 1 .484-.73 2.2 2.2 0 0 1 .73-.488 2.23 2.23 0 0 1 .859-.168 2.23 2.23 0 0 1 .859.168 2.2 2.2 0 0 1 .73.488 2.19 2.19 0 0 1 .484.73 2.22 2.22 0 0 1 .172.859zm0 0"/><path d="M53.539 21.716c-.434 0-.875.083-1.288.254a3.36 3.36 0 0 0-1.095.731c-.313.313-.561.691-.728 1.098a3.36 3.36 0 0 0-.257 1.286 3.41 3.41 0 0 0 .256 1.284v.003l.001.003c.167.403.414.777.728 1.091s.683.562 1.1.733c.404.167.841.256 1.284.256s.88-.089 1.284-.256c.417-.17.791-.424 1.1-.733s.562-.688.728-1.091l.001-.003v-.003a3.41 3.41 0 0 0 .256-1.284c0-.446-.092-.884-.257-1.286-.167-.408-.415-.785-.728-1.098a3.36 3.36 0 0 0-1.094-.731 3.39 3.39 0 0 0-1.29-.254zm0 2.246c.159 0 .297.028.43.083h.001l.003.001a1.05 1.05 0 0 1 .361.243 1.03 1.03 0 0 1 .238.361l.001.003.001.001c.06.145.086.275.086.43 0 .149-.027.281-.089.434-.059.142-.132.25-.238.357a1.05 1.05 0 0 1-.361.243l-.003.001-.001.001a1.1 1.1 0 0 1-.43.086 1.1 1.1 0 0 1-.43-.086l-.001-.001-.003-.001a1.05 1.05 0 0 1-.361-.243c-.107-.107-.179-.215-.238-.357-.063-.153-.089-.285-.089-.434 0-.155.026-.285.086-.43l.001-.001.001-.003a1.03 1.03 0 0 1 .238-.361 1.05 1.05 0 0 1 .361-.243l.003-.001h.001c.133-.055.271-.083.43-.083z"/></g><path d="M34.446 43.804v35.664h.749V43.804z"/><path d="M34.82 83.402l-2.621-5.242 2.621 1.309 2.621-1.309zm0 0"/><path d="M31.362 77.325l3.459 6.915 3.457-6.915-3.457 1.726zm1.675 1.672l1.784.891 1.784-.891-1.784 3.568z"/><path fill="#d5e8d4" d="M53.539 25.086l-.09 1.832c-.059.613-.148 1.219-.27 1.82l-.445 1.781-.621 1.73-.785 1.66-.945 1.574c-.34.512-.703 1-1.094 1.477s-.801.926-1.234 1.359l-1.359 1.234c-.473.391-.965.754-1.477 1.094l-1.574.945-1.66.785-1.73.621-1.781.445-1.82.27-1.832.09a19.19 19.19 0 0 1-1.836-.09l-1.816-.27L29.387 43l-1.73-.621-1.66-.785a18.93 18.93 0 0 1-1.578-.945l-1.473-1.094a17.74 17.74 0 0 1-1.363-1.234l-1.234-1.359-1.094-1.477-.945-1.574-.785-1.66c-.234-.566-.441-1.145-.617-1.73s-.328-1.184-.449-1.781l-.27-1.82-.09-1.832.09-1.836.27-1.816.449-1.785a18.16 18.16 0 0 1 .617-1.727l.785-1.66a18.93 18.93 0 0 1 .945-1.578l1.094-1.477 1.234-1.359 1.363-1.234 1.473-1.094 1.578-.945 1.66-.785 1.73-.617c.586-.18 1.18-.328 1.781-.449l1.816-.27 1.836-.09 1.832.09 1.82.27 1.781.449c.586.176 1.164.383 1.73.617l1.66.785 1.574.945c.512.34 1.004.707 1.477 1.094l1.359 1.234 1.234 1.359 1.094 1.477c.344.512.656 1.035.945 1.578s.551 1.094.785 1.66l.621 1.727.445 1.785a17.86 17.86 0 0 1 .27 1.816l.09 1.836zm0 0"/><path fill="#82b366" d="M44.613 36.602l-4.727-4.637-1.922 1.961-1.469-7.066 7.121 1.309-1.91 1.949 4.727 4.625zm-10.602-8.992l-4.629 4.723 1.961 1.926-7.066 1.469 1.309-7.117 1.941 1.902 4.633-4.715zm-8.91-14.078l4.723 4.633 1.918-1.961 1.473 7.07-7.121-1.312 1.91-1.937-4.723-4.637zM35.5 22.473l4.637-4.727-1.965-1.926 7.07-1.465-1.309 7.113-1.941-1.91-4.633 4.73zm-.68-16.109c-10.336 0-18.723 8.387-18.723 18.723s8.387 18.719 18.723 18.719a18.73 18.73 0 0 0 18.719-18.719c0-10.336-8.387-18.723-18.719-18.723zm0 .473a18.25 18.25 0 0 1 18.246 18.25c0 10.078-8.168 18.246-18.246 18.246s-18.25-8.168-18.25-18.246 8.172-18.25 18.25-18.25zm0 0"/><use href="#D" fill="#fff"/><use href="#E"/><use href="#F"/><use href="#F" x="5.041"/><use href="#G"/><use href="#H"/><use href="#I"/><use href="#J"/><use href="#K"/><use href="#L"/><use href="#G" x="30.712"/><use href="#M"/><use href="#N"/><use href="#O"/><use href="#P"/><use href="#P" x="5.138"/><path d="M48.523 63.72c0 2.512-.977 3.766-2.922 3.766-.336 0-.602-.031-.797-.094v-.625c.227.074.492.109.797.109.695 0 1.223-.211 1.578-.641.363-.437.563-1.102.594-2h-.047c-.168.242-.387.422-.656.547-.262.125-.559.188-.891.188-.562 0-1.012-.164-1.344-.5-.336-.344-.5-.816-.5-1.422 0-.664.18-1.191.547-1.578.375-.383.867-.578 1.484-.578a1.94 1.94 0 0 1 1.141.344c.32.219.57.543.75.969s.266.934.266 1.516zm-2.156-2.219c-.418 0-.742.137-.969.406s-.344.648-.344 1.125c0 .43.102.762.313 1s.531.359.969.359a1.64 1.64 0 0 0 .719-.156 1.35 1.35 0 0 0 .531-.453c.133-.187.203-.379.203-.578 0-.312-.062-.598-.187-.859-.117-.258-.281-.461-.5-.609-.219-.156-.465-.234-.734-.234zm0 0"/><use href="#O" x="20.551"/><g fill="#d6b656"><path d="M55.813 101.889l-.056 2.246 20.217.507a24.22 24.22 0 0 1 13.124 4.155l42.442 28.289 1.246-1.869-42.442-28.289c-4.322-2.88-9.121-4.402-14.313-4.532z"/><path d="M55.785 102.961a2.25 2.25 0 0 1-.172.859c-.113.273-.273.516-.484.727a2.2 2.2 0 0 1-.73.488c-.273.113-.562.172-.859.172s-.586-.059-.859-.172a2.2 2.2 0 0 1-.73-.488c-.211-.211-.371-.453-.484-.727a2.25 2.25 0 0 1-.172-.859c0-.301.059-.586.172-.863s.273-.516.484-.727a2.2 2.2 0 0 1 .73-.488c.273-.113.563-.172.859-.172s.586.059.859.172a2.2 2.2 0 0 1 .73.488c.211.211.371.453.484.727s.172.562.172.863zm0 0"/><path d="M53.539 99.588c-.444 0-.883.09-1.288.257a3.36 3.36 0 0 0-1.095.731c-.314.314-.562.688-.728 1.091l-.001.003v.003c-.164.401-.256.84-.256 1.287a3.41 3.41 0 0 0 .256 1.284v.003l.001.003c.167.403.414.777.728 1.091s.683.562 1.1.733c.404.167.841.256 1.284.256s.88-.089 1.284-.256c.417-.17.791-.424 1.1-.733s.562-.688.728-1.091l.001-.003v-.003a3.41 3.41 0 0 0 .256-1.284c0-.447-.092-.886-.256-1.287v-.003l-.001-.003c-.167-.403-.414-.777-.728-1.091a3.36 3.36 0 0 0-1.094-.731 3.39 3.39 0 0 0-1.29-.257zm0 2.246a1.1 1.1 0 0 1 .43.086l.001.001h.003a1.05 1.05 0 0 1 .361.243 1.06 1.06 0 0 1 .238.358c.062.153.089.283.089.437 0 .149-.027.281-.089.434a1.06 1.06 0 0 1-.238.358 1.05 1.05 0 0 1-.361.243h-.003l-.001.001a1.1 1.1 0 0 1-.43.086 1.1 1.1 0 0 1-.43-.086l-.001-.001h-.003a1.05 1.05 0 0 1-.361-.243 1.06 1.06 0 0 1-.238-.358c-.063-.153-.089-.285-.089-.434 0-.154.027-.285.089-.437.059-.143.132-.252.238-.358a1.05 1.05 0 0 1 .361-.243h.003l.001-.001a1.1 1.1 0 0 1 .43-.086z"/></g><path fill="#fff2cc" d="M53.539 102.961l-.09 1.832a17.7 17.7 0 0 1-.27 1.816l-.445 1.785-.621 1.727-.785 1.664-.945 1.574-1.094 1.477c-.387.473-.801.926-1.234 1.359l-1.359 1.234c-.473.391-.965.754-1.477 1.094l-1.574.945-1.66.785-1.73.617a18.56 18.56 0 0 1-1.781.449l-1.82.27-1.832.09a19.16 19.16 0 0 1-1.836-.09l-1.816-.27-1.781-.449c-.59-.176-1.164-.383-1.73-.617l-1.66-.785a18.93 18.93 0 0 1-1.578-.945l-1.473-1.094-1.363-1.234-1.234-1.359-1.094-1.477-.945-1.574-.785-1.664-.617-1.727c-.18-.59-.328-1.184-.449-1.785l-.27-1.816-.09-1.832.09-1.836.27-1.816.449-1.785a18.16 18.16 0 0 1 .617-1.727l.785-1.664.945-1.574 1.094-1.477 1.234-1.359 1.363-1.234a18.18 18.18 0 0 1 1.473-1.094l1.578-.945 1.66-.785 1.73-.617c.586-.18 1.18-.328 1.781-.449l1.816-.27 1.836-.09 1.832.09 1.82.27 1.781.449c.586.176 1.164.383 1.73.617l1.66.785 1.574.945c.512.34 1.004.703 1.477 1.094l1.359 1.234 1.234 1.359 1.094 1.477a18.45 18.45 0 0 1 .945 1.574l.785 1.664.621 1.727.445 1.785a17.86 17.86 0 0 1 .27 1.816l.09 1.836zm0 0"/><path fill="#d6b656" d="M44.613 114.477l-4.727-4.637-1.922 1.961-1.469-7.066 7.121 1.309-1.91 1.949 4.727 4.625zm-10.602-8.992l-4.629 4.723 1.961 1.926-7.066 1.465 1.309-7.113 1.941 1.902 4.633-4.715zm-8.91-14.078l4.723 4.633 1.918-1.961 1.473 7.07-7.121-1.312 1.91-1.937-4.723-4.637zm10.398 8.941l4.637-4.727-1.965-1.926 7.07-1.465-1.309 7.113-1.941-1.91-4.633 4.73zm-.68-16.109c-10.336 0-18.723 8.387-18.723 18.723s8.387 18.719 18.723 18.719a18.73 18.73 0 0 0 18.719-18.719c0-10.336-8.387-18.723-18.719-18.723zm0 .473a18.25 18.25 0 0 1 18.246 18.25c0 10.078-8.168 18.246-18.246 18.246s-18.25-8.168-18.25-18.246 8.172-18.25 18.25-18.25zm0 0"/><use href="#D" y="77.875" fill="#fff"/><use href="#E" y="77.875"/><use href="#F" y="77.875"/><use href="#F" x="5.041" y="77.875"/><use href="#G" y="77.875"/><use href="#H" y="77.875"/><use href="#I" y="77.875"/><use href="#J" y="77.876"/><use href="#K" y="77.875"/><use href="#L" y="77.875"/><use href="#G" x="30.712" y="77.875"/><use href="#M" y="77.874"/><use href="#N" y="77.874"/><use href="#O" y="77.874"/><path d="M38.545 143.797h-.953v1.469h-.687v-1.469H33.78v-.641l3.047-4.344h.766v4.313h.953zm-1.641-.672V141l.047-1.422h-.047c-.137.281-.266.516-.391.703l-2 2.844zm3.076 2.141l2.656-5.75h-3.5v-.656h4.281v.578l-2.625 5.828zm0 0"/><use href="#Q"/><use href="#Q" x="5.138"/><g fill="#666"><path d="M83.796 305.509v-7.484h.875v7.484zm7.908 0h-1l-2-3.297-2.047 3.297h-.922l2.484-3.906-2.328-3.578h.969l1.859 2.969 1.875-2.969h.922l-2.312 3.547zm0 0"/><use href="#R"/><path d="M106.523 302.697c0 .918-.234 1.637-.703 2.156-.461.512-1.094.766-1.906.766-.5 0-.949-.117-1.344-.359-.387-.238-.684-.578-.891-1.016s-.312-.953-.312-1.547c0-.914.223-1.629.672-2.141.457-.508 1.094-.766 1.906-.766.789 0 1.414.266 1.875.797.469.523.703 1.227.703 2.109zm-4.281 0c0 .719.141 1.266.422 1.641.289.375.711.563 1.266.563.563 0 .984-.187 1.266-.562.289-.375.438-.922.438-1.641 0-.707-.148-1.242-.437-1.609-.281-.375-.703-.562-1.266-.562s-.984.184-1.266.547-.422.906-.422 1.625zm0 0"/><use href="#R" x="12.644"/></g><g fill="#9673a6"><path d="M138.387 166.766l-51.921 84.231c-2.455 3.98-5.795 5.863-10.47 5.9l-20.219.156.018 2.246 20.219-.156c5.309-.042 9.578-2.448 12.365-6.967l51.921-84.231z"/><path d="M55.785 258.199c0 .297-.059.586-.172.859a2.19 2.19 0 0 1-1.215 1.215c-.273.117-.562.172-.859.172s-.586-.055-.859-.172a2.19 2.19 0 0 1-1.215-1.215c-.113-.273-.172-.563-.172-.859s.059-.586.172-.859a2.23 2.23 0 0 1 .484-.73 2.25 2.25 0 0 1 .73-.484c.273-.113.563-.172.859-.172s.586.059.859.172a2.25 2.25 0 0 1 .73.484 2.23 2.23 0 0 1 .484.73c.113.273.172.562.172.859zm0 0"/><path d="M53.539 254.83c-.444 0-.883.09-1.288.257-.415.17-.783.42-1.088.72l-.004.004-.003.003a3.38 3.38 0 0 0-.728 1.095c-.168.406-.257.845-.257 1.29a3.37 3.37 0 0 0 .256 1.284c.168.409.416.786.73 1.1s.686.557 1.091.724a3.31 3.31 0 0 0 2.586 0c.405-.167.78-.413 1.091-.724s.561-.691.728-1.098a3.37 3.37 0 0 0 .257-1.286c0-.445-.089-.884-.257-1.29a3.38 3.38 0 0 0-.728-1.095l-.003-.003-.004-.004c-.304-.299-.672-.549-1.087-.72a3.39 3.39 0 0 0-1.29-.257zm0 2.246a1.1 1.1 0 0 1 .43.086l.001.001h.003c.136.056.25.133.364.244.101.102.178.215.238.361a1.1 1.1 0 0 1 .086.43 1.09 1.09 0 0 1-.086.429l-.001.003-.001.003a1.03 1.03 0 0 1-.6.6l-.009.003-.009.004a1.02 1.02 0 0 1-.417.08 1.02 1.02 0 0 1-.417-.08l-.009-.004-.009-.003a1.03 1.03 0 0 1-.6-.6l-.001-.003-.001-.003a1.09 1.09 0 0 1-.086-.429 1.1 1.1 0 0 1 .086-.43c.061-.146.137-.259.238-.361.115-.112.228-.189.364-.244h.003l.001-.001a1.1 1.1 0 0 1 .43-.086z"/></g><g fill="#d79b00"><path d="M131.68 156.565l-41.918 20.027c-4.358 2.083-8.927 3.117-13.758 3.117H55.785v2.246h20.219a33.78 33.78 0 0 0 14.726-3.337l41.918-20.027z"/><path d="M55.785 180.832c0 .301-.059.586-.172.863s-.273.516-.484.727a2.2 2.2 0 0 1-.73.488c-.273.113-.562.172-.859.172s-.586-.059-.859-.172a2.2 2.2 0 0 1-.73-.488c-.211-.211-.371-.453-.484-.727s-.172-.563-.172-.863a2.25 2.25 0 0 1 .172-.859c.113-.273.273-.516.484-.727a2.2 2.2 0 0 1 .73-.488c.273-.113.563-.172.859-.172s.586.059.859.172a2.2 2.2 0 0 1 .73.488c.211.211.371.453.484.727a2.25 2.25 0 0 1 .172.859zm0 0"/><path d="M53.539 177.463c-.444 0-.883.09-1.288.257a3.36 3.36 0 0 0-1.095.731c-.314.314-.562.688-.728 1.091l-.001.003v.003a3.41 3.41 0 0 0-.256 1.284c0 .447.092.886.256 1.287v.003l.001.003c.167.403.414.777.728 1.091a3.36 3.36 0 0 0 1.094.731 3.39 3.39 0 0 0 1.29.257c.444 0 .883-.09 1.288-.257a3.35 3.35 0 0 0 1.095-.731c.314-.314.562-.688.728-1.091l.001-.003v-.003c.164-.401.256-.84.256-1.287a3.41 3.41 0 0 0-.256-1.284v-.003l-.001-.003c-.167-.403-.414-.777-.728-1.091a3.36 3.36 0 0 0-1.094-.731 3.39 3.39 0 0 0-1.29-.257zm0 2.246a1.1 1.1 0 0 1 .43.086l.001.001h.003a1.05 1.05 0 0 1 .361.243 1.06 1.06 0 0 1 .238.358 1.1 1.1 0 0 1 .089.434c0 .154-.027.285-.089.437a1.06 1.06 0 0 1-.238.358 1.05 1.05 0 0 1-.361.243h-.003l-.001.001a1.1 1.1 0 0 1-.43.086 1.1 1.1 0 0 1-.43-.086l-.001-.001h-.003a1.05 1.05 0 0 1-.361-.243 1.06 1.06 0 0 1-.238-.357v-.001c-.062-.153-.089-.283-.089-.437a1.1 1.1 0 0 1 .089-.434c.059-.143.132-.252.238-.358a1.05 1.05 0 0 1 .361-.243h.003l.001-.001a1.1 1.1 0 0 1 .43-.086z"/></g><path fill="#e1d5e7" d="M53.539 258.199l-.09 1.836a17.86 17.86 0 0 1-.27 1.816l-.445 1.781-.621 1.73-.785 1.66-.945 1.578-1.094 1.473a17.74 17.74 0 0 1-1.234 1.363l-1.359 1.234-1.477 1.094a17.82 17.82 0 0 1-1.574.941l-1.66.789-1.73.617a17.45 17.45 0 0 1-1.781.445 17.77 17.77 0 0 1-1.82.27 17.92 17.92 0 0 1-1.832.09 18 18 0 0 1-1.836-.09 17.86 17.86 0 0 1-1.816-.27 17.45 17.45 0 0 1-1.781-.445l-1.73-.617c-.566-.234-1.121-.5-1.66-.789s-1.066-.602-1.578-.941l-1.473-1.094-1.363-1.234-1.234-1.363-1.094-1.473-.945-1.578c-.289-.539-.551-1.094-.785-1.66s-.441-1.145-.617-1.73a18.56 18.56 0 0 1-.449-1.781l-.27-1.816-.09-1.836.09-1.836.27-1.816.449-1.781c.176-.586.383-1.164.617-1.73l.785-1.66.945-1.574c.34-.512.707-1.004 1.094-1.477l1.234-1.363a17.69 17.69 0 0 1 1.363-1.23l1.473-1.098 1.578-.941 1.66-.785 1.73-.621 1.781-.445c.602-.121 1.207-.211 1.816-.27a18 18 0 0 1 1.836-.09l1.832.09a17.78 17.78 0 0 1 1.82.27 18.54 18.54 0 0 1 1.781.445l1.73.621 1.66.785 1.574.941 1.477 1.098 1.359 1.23 1.234 1.363a17.58 17.58 0 0 1 1.094 1.477 17.86 17.86 0 0 1 .945 1.574c.289.539.551 1.094.785 1.66l.621 1.73.445 1.781a17.86 17.86 0 0 1 .27 1.816l.09 1.836zm0 0"/><path fill="#9673a6" d="M44.613 269.707l-4.727-4.625-1.922 1.961-1.469-7.078 7.121 1.32-1.91 1.938 4.727 4.637zm-10.602-8.984l-4.629 4.727 1.961 1.914-7.066 1.477 1.309-7.113 1.941 1.902 4.633-4.727zm-8.91-14.078l4.723 4.629 1.918-1.953 1.473 7.066-7.121-1.309 1.91-1.949-4.723-4.625zm10.398 8.934l4.637-4.723-1.965-1.926 7.07-1.469-1.309 7.121-1.941-1.91-4.633 4.727zm-.68-16.098c-10.336 0-18.723 8.379-18.723 18.711 0 10.34 8.387 18.727 18.723 18.727s18.719-8.387 18.719-18.727c0-10.332-8.387-18.711-18.719-18.711zm0 .473c10.078 0 18.246 8.16 18.246 18.238 0 10.086-8.168 18.25-18.246 18.25a18.25 18.25 0 0 1-18.25-18.25c0-10.078 8.172-18.238 18.25-18.238zm0 0"/><use href="#D" y="232.875" fill="#fff"/><use href="#E" y="232.876"/><use href="#F" y="232.876"/><use href="#F" x="5.041" y="232.876"/><use href="#G" y="232.876"/><use href="#H" y="232.876"/><use href="#I" y="232.876"/><use href="#J" y="232.877"/><use href="#K" y="232.876"/><use href="#L" y="232.876"/><use href="#G" x="30.712" y="232.876"/><use href="#M" y="232.875"/><use href="#N" y="232.875"/><use href="#O" y="232.875"/><use href="#S"/><use href="#S" x="5.139"/><path d="M48.273 295.361c0 .406-.117.742-.344 1s-.555.438-.969.531v.031c.508.063.891.23 1.141.5.25.262.375.605.375 1.031 0 .605-.215 1.074-.641 1.406-.418.336-1.016.5-1.797.5-.344 0-.656-.027-.937-.078a3.01 3.01 0 0 1-.828-.281v-.687a4.08 4.08 0 0 0 .891.313 3.85 3.85 0 0 0 .891.109c1.113 0 1.672-.43 1.672-1.297 0-.781-.617-1.172-1.844-1.172h-.625v-.625h.641c.5 0 .895-.109 1.188-.328.289-.227.438-.535.438-.922 0-.312-.109-.555-.328-.734-.211-.187-.496-.281-.859-.281a2.54 2.54 0 0 0-.797.125c-.25.074-.539.215-.859.422l-.359-.5a2.96 2.96 0 0 1 .906-.484c.344-.113.703-.172 1.078-.172.625 0 1.109.141 1.453.422s.516.672.516 1.172zm0 0"/><use href="#O" x="20.551" y="232.875"/><path fill="#ffe6cc" d="M53.539 180.832l-.09 1.836a17.86 17.86 0 0 1-.27 1.816l-.445 1.785-.621 1.727-.785 1.664-.945 1.574-1.094 1.477c-.387.473-.801.926-1.234 1.359l-1.359 1.234c-.473.391-.965.754-1.477 1.094l-1.574.945-1.66.785-1.73.617a18.56 18.56 0 0 1-1.781.449l-1.82.27-1.832.09a19.16 19.16 0 0 1-1.836-.09l-1.816-.27-1.781-.449c-.59-.176-1.164-.383-1.73-.617l-1.66-.785a18.93 18.93 0 0 1-1.578-.945l-1.473-1.094-1.363-1.234-1.234-1.359-1.094-1.477-.945-1.574-.785-1.664-.617-1.727c-.18-.59-.328-1.184-.449-1.785l-.27-1.816-.09-1.836.09-1.832.27-1.816.449-1.785a18.16 18.16 0 0 1 .617-1.727l.785-1.664.945-1.574 1.094-1.477 1.234-1.359 1.363-1.234a18.18 18.18 0 0 1 1.473-1.094l1.578-.945 1.66-.785 1.73-.617c.586-.18 1.18-.328 1.781-.449l1.816-.27 1.836-.09 1.832.09 1.82.27 1.781.449c.586.176 1.164.383 1.73.617l1.66.785 1.574.945c.512.34 1.004.703 1.477 1.094l1.359 1.234 1.234 1.359 1.094 1.477a18.45 18.45 0 0 1 .945 1.574l.785 1.664.621 1.727.445 1.785a17.7 17.7 0 0 1 .27 1.816l.09 1.832zm0 0"/><path fill="#d79b00" d="M44.613 192.352l-4.727-4.637-1.922 1.961-1.469-7.066 7.121 1.309-1.91 1.949 4.727 4.625zm-10.602-8.996l-4.629 4.727 1.961 1.926-7.066 1.465 1.309-7.113 1.941 1.902 4.633-4.715zm-8.91-14.074l4.723 4.633 1.918-1.961 1.473 7.07-7.121-1.312 1.91-1.937-4.723-4.637zm10.398 8.938l4.637-4.723-1.965-1.926 7.07-1.465-1.309 7.113-1.941-1.91-4.633 4.73zm-.68-16.105c-10.336 0-18.723 8.387-18.723 18.719s8.387 18.723 18.723 18.723 18.719-8.387 18.719-18.723a18.73 18.73 0 0 0-18.719-18.719zm0 .473c10.078 0 18.246 8.168 18.246 18.246a18.25 18.25 0 0 1-18.246 18.25c-10.078 0-18.25-8.168-18.25-18.25s8.172-18.246 18.25-18.246zm0 0"/><use href="#D" y="155.75" fill="#fff"/><use href="#E" y="155.75"/><use href="#F" y="155.75"/><use href="#F" x="5.041" y="155.75"/><use href="#G" y="155.75"/><use href="#H" y="155.75"/><use href="#I" y="155.75"/><use href="#J" y="155.751"/><use href="#K" y="155.75"/><use href="#L" y="155.75"/><use href="#G" x="30.712" y="155.75"/><use href="#M" y="155.749"/><use href="#N" y="155.749"/><use href="#O" y="155.749"/><use href="#S" y="-77.126"/><path d="M43.386 223.141h-4.219v-.625l1.688-1.703 1.016-1.109a2.9 2.9 0 0 0 .375-.641c.082-.219.125-.445.125-.687 0-.344-.105-.613-.312-.812-.211-.207-.496-.312-.859-.312-.273 0-.527.047-.766.141-.242.086-.508.246-.797.484l-.391-.5c.594-.488 1.238-.734 1.938-.734.602 0 1.07.156 1.406.469.344.305.516.715.516 1.234a2.4 2.4 0 0 1-.344 1.203c-.219.398-.641.902-1.266 1.516l-1.406 1.375v.031h3.297zm0 0"/><use href="#T"/><use href="#T" x="5.137"/><path fill="#fafafa" d="M134.461 129.914c-1.266 0-2.297 1.027-2.297 2.285v32.871c0 1.258 1.031 2.285 2.297 2.285h32.844c1.266 0 2.297-1.027 2.297-2.285v-32.871c0-1.258-1.031-2.285-2.297-2.285zm0 0"/><path fill="#005073" d="M149.668 160.258v-2.988h-7.937v-2.352l-6.762 3.984 6.762 3.93v-2.574zm3.699-14.273v-2.98h-7.93v-2.359l-6.762 3.992 6.762 3.926v-2.578zm-4.445 7.188v-2.98h7.938v-2.355l6.754 3.988-6.754 3.934v-2.586zm3.43-14.031v-2.98h7.93v-2.352l6.762 3.984-6.762 3.93v-2.582zm-17.891-9.227c-1.266 0-2.297 1.027-2.297 2.285v32.871c0 1.258 1.031 2.285 2.297 2.285h32.844c1.266 0 2.297-1.027 2.297-2.285v-32.871c0-1.258-1.031-2.285-2.297-2.285zm0 1.035h32.844c.711 0 1.266.547 1.266 1.25v32.871c0 .707-.555 1.25-1.266 1.25h-32.844c-.711 0-1.266-.543-1.266-1.25v-32.871c0-.703.555-1.25 1.266-1.25zm0 0"/><path fill="#fff" d="M122.055 172.223h57.656v10.484h-57.656zm0 0"/><path d="M126.735 177.069h.438c.414 0 .727-.082.938-.25s.313-.406.313-.719c0-.32-.09-.555-.266-.703-.168-.156-.437-.234-.812-.234h-.609zm3.063-1.016c0 .688-.219 1.215-.656 1.578-.43.367-1.039.547-1.828.547h-.578v2.281h-1.359v-6.406h2.047c.77 0 1.359.168 1.766.5s.609.836.609 1.5zm0 0"/><use href="#U"/><use href="#U" x="5.308"/><path d="M144.261 175.46a1.79 1.79 0 0 1 .453.047l-.094 1.25a1.57 1.57 0 0 0-.406-.047c-.43 0-.762.109-1 .328-.23.219-.344.527-.344.922v2.5h-1.344v-4.906h1.016l.188.828h.078c.145-.281.348-.504.609-.672a1.52 1.52 0 0 1 .844-.25zm1.284-1.172c0-.437.242-.656.734-.656.477 0 .719.219.719.656 0 .211-.062.371-.187.484-.117.117-.293.172-.531.172-.492 0-.734-.219-.734-.656zm1.406 6.172h-1.344v-4.906h1.344zm5.929 0h-1.344v-2.859c0-.352-.062-.617-.187-.797s-.328-.266-.609-.266c-.367 0-.633.125-.797.375s-.25.664-.25 1.234v2.313h-1.344v-4.906h1.016l.188.625h.078a1.45 1.45 0 0 1 .609-.531c.261-.125.555-.187.891-.187.57 0 1.004.156 1.297.469.301.305.453.746.453 1.328zm5.64-4.906v.688l-.766.188a1.39 1.39 0 0 1 .203.734c0 .531-.184.945-.547 1.234s-.875.438-1.531.438h-.234l-.203-.031c-.137.105-.203.227-.203.359 0 .188.242.281.734.281h.844c.531 0 .938.121 1.219.359.281.23.422.563.422 1a1.5 1.5 0 0 1-.719 1.328c-.469.32-1.152.484-2.047.484-.687 0-1.215-.121-1.578-.359a1.14 1.14 0 0 1-.531-1c0-.293.086-.539.266-.734.188-.195.457-.344.813-.437-.137-.051-.258-.145-.359-.281s-.156-.273-.156-.422a.7.7 0 0 1 .156-.469c.113-.125.273-.242.484-.359a1.38 1.38 0 0 1-.625-.531c-.148-.25-.219-.539-.219-.875 0-.539.172-.957.516-1.25.352-.289.852-.437 1.5-.437.133 0 .297.016.484.047l.375.047zm-3.781 5.594a.48.48 0 0 0 .266.438c.176.102.422.156.734.156.477 0 .852-.07 1.125-.203.281-.125.422-.305.422-.531 0-.187-.086-.32-.25-.391-.156-.062-.406-.094-.75-.094h-.687a1.02 1.02 0 0 0-.609.172.52.52 0 0 0-.25.453zm.484-3.984c0 .262.055.469.172.625.125.156.313.234.563.234s.43-.078.547-.234c.125-.156.188-.363.188-.625 0-.594-.246-.891-.734-.891s-.734.297-.734.891zm6.552 3.296v-6.406h1.359v5.281h2.594v1.125zm8.997 0l-.469-1.531h-2.328l-.469 1.531h-1.469l2.266-6.437h1.656l2.281 6.438zm-.797-2.672l-.719-2.344-.125-.422-.828 2.766zm8.763 2.672h-1.734l-2.781-4.859h-.047l.078 1.844v3.016h-1.203v-6.406h1.703l2.797 4.797h.031l-.078-1.766v-3.031h1.234zm0 0"/><defs ><path id="B" d="M103.874 265.194c0 .574.094 1.008.281 1.297.188.281.488.422.906.422s.711-.141.891-.422c.188-.289.281-.723.281-1.297 0-.562-.094-.984-.281-1.266-.18-.289-.48-.437-.906-.437-.418 0-.719.141-.906.422-.18.281-.266.711-.266 1.281zm3.953 0c0 .938-.246 1.672-.734 2.203-.492.523-1.172.781-2.047.781-.555 0-1.043-.117-1.469-.359a2.51 2.51 0 0 1-.969-1.047c-.219-.445-.328-.973-.328-1.578 0-.937.242-1.66.734-2.172.488-.52 1.176-.781 2.063-.781.539 0 1.02.121 1.438.359.426.242.75.586.969 1.031.227.449.344.969.344 1.563zm0 0"/><path id="C" d="M112.756 268.069l-.297-.781h-.047c-.262.336-.531.57-.812.703-.281.125-.641.188-1.078.188-.555 0-.992-.156-1.312-.469-.312-.32-.469-.77-.469-1.344 0-.613.211-1.062.641-1.344.426-.289 1.066-.453 1.922-.484l1-.031v-.25c0-.582-.297-.875-.891-.875-.461 0-1 .141-1.625.422l-.516-1.062c.656-.344 1.383-.516 2.188-.516.77 0 1.359.168 1.766.5.414.336.625.844.625 1.531v3.813zm-.453-2.656l-.609.031c-.461.012-.797.094-1.016.25-.219.148-.328.371-.328.672 0 .438.25.656.75.656.363 0 .656-.098.875-.297.219-.207.328-.488.328-.844zm0 0"/><path id="D" d="M8.984 48.672h51.668v21.715H8.984zm0 0"/><path id="E" d="M16.003 52.361c0 .648-.227 1.148-.672 1.5-.437.355-1.074.531-1.906.531h-.75v2.516h-.75v-6.406h1.672c1.602 0 2.406.621 2.406 1.859zm-3.328 1.391h.672c.664 0 1.145-.102 1.438-.312.289-.219.438-.566.438-1.047 0-.414-.141-.727-.422-.937-.273-.207-.699-.312-1.281-.312h-.844zm0 0"/><path id="F" d="M19.257 57.002c-.711 0-1.273-.211-1.687-.641-.406-.437-.609-1.039-.609-1.812 0-.781.191-1.395.578-1.844.383-.457.895-.687 1.531-.687.602 0 1.082.199 1.438.594s.531.918.531 1.563v.469h-3.312c.008.563.148.992.422 1.281s.648.438 1.141.438a3.79 3.79 0 0 0 1.531-.328v.656a4.26 4.26 0 0 1-.719.234c-.23.051-.512.078-.844.078zm-.187-4.375c-.387 0-.695.125-.922.375s-.367.602-.406 1.047h2.516c0-.457-.105-.805-.312-1.047-.211-.25-.5-.375-.875-.375zm0 0"/><path id="G" d="M29.512 52.017c.207 0 .398.016.578.047l-.109.672c-.199-.039-.375-.062-.531-.062-.387 0-.719.164-1 .484-.273.313-.406.703-.406 1.172v2.578h-.734v-4.812h.609l.078.891h.031a2.22 2.22 0 0 1 .656-.719c.25-.164.523-.25.828-.25zm0 0"/><path id="H" d="M34.17 54.236v2.672h-.75v-6.406h1.766c.789 0 1.375.152 1.75.453.375.293.563.742.563 1.344 0 .855-.434 1.434-1.297 1.734l1.75 2.875h-.891l-1.547-2.672zm0-.641h1.031c.52 0 .898-.102 1.141-.312.25-.207.375-.52.375-.937 0-.426-.125-.734-.375-.922s-.652-.281-1.203-.281h-.969zm0 0"/><path id="I" d="M43.021 54.502c0 .781-.199 1.398-.594 1.844-.398.438-.945.656-1.641.656-.43 0-.809-.098-1.141-.297-.336-.207-.594-.5-.781-.875-.18-.383-.266-.828-.266-1.328 0-.781.195-1.391.594-1.828s.938-.656 1.625-.656c.676 0 1.211.227 1.609.672s.594 1.055.594 1.813zm-3.656 0c0 .617.117 1.086.359 1.406.25.324.613.484 1.094.484.469 0 .828-.16 1.078-.484s.375-.789.375-1.406-.125-1.078-.375-1.391c-.25-.32-.617-.484-1.094-.484s-.84.156-1.078.469-.359.781-.359 1.406zm0 0"/><path id="J" d="M44.98 52.095v3.125c0 .398.086.695.266.891.176.188.457.281.844.281.5 0 .863-.133 1.094-.406.238-.281.359-.734.359-1.359v-2.531h.734v4.813h-.609l-.109-.641h-.031c-.156.23-.367.414-.625.547-.262.125-.562.188-.906.188-.586 0-1.023-.141-1.312-.422s-.437-.723-.437-1.328v-3.156zm0 0"/><path id="K" d="M51.37 56.392l.359-.016a2.12 2.12 0 0 0 .297-.062v.547c-.086.043-.203.07-.359.094-.148.031-.281.047-.406.047-.93 0-1.391-.488-1.391-1.469v-2.859h-.687v-.359l.688-.297.297-1.031h.422v1.109h1.406v.578h-1.406v2.828c0 .281.066.5.203.656.145.156.336.234.578.234zm0 0"/><path id="L" d="M55.011 57.002c-.711 0-1.273-.211-1.687-.641-.406-.437-.609-1.039-.609-1.812 0-.781.191-1.395.578-1.844.383-.457.895-.687 1.531-.687.602 0 1.082.199 1.438.594s.531.918.531 1.563v.469H53.48c.008.563.148.992.422 1.281s.648.438 1.141.438a3.79 3.79 0 0 0 1.531-.328v.656a4.26 4.26 0 0 1-.719.234c-.23.051-.512.078-.844.078zm-.187-4.375c-.387 0-.695.125-.922.375s-.367.602-.406 1.047h2.516c0-.457-.105-.805-.312-1.047-.211-.25-.5-.375-.875-.375zm0 0"/><path id="M" d="M22.742 67.392l-.797-2.047h-2.562l-.797 2.047h-.75l2.531-6.437h.625l2.531 6.438zm-1.031-2.719l-.734-1.984c-.105-.25-.203-.555-.297-.922l-.281.922-.75 1.984zm0 0"/><path id="N" d="M28.023 65.689c0 .563-.211 1.008-.625 1.328-.406.313-.961.469-1.656.469-.762 0-1.344-.098-1.75-.297v-.719c.258.105.547.195.859.266.313.063.617.094.922.094.488 0 .859-.094 1.109-.281.258-.187.391-.453.391-.797 0-.219-.047-.395-.141-.531-.086-.145-.234-.273-.453-.391-.211-.125-.523-.266-.937-.422-.605-.207-1.039-.457-1.297-.75-.25-.301-.375-.687-.375-1.156 0-.488.18-.879.547-1.172.375-.289.867-.437 1.484-.437.633 0 1.223.117 1.766.344l-.234.656c-.531-.227-1.047-.344-1.547-.344-.398 0-.711.09-.937.266-.219.168-.328.402-.328.703 0 .219.039.402.125.547.082.137.219.266.406.391.195.117.5.246.906.391.664.242 1.125.5 1.375.781.258.273.391.625.391 1.063zm0 0"/><path id="O" d="M28.97 64.658c0-1.258.242-2.203.734-2.828s1.211-.937 2.172-.937c.332 0 .594.027.781.078v.625c-.23-.07-.484-.109-.766-.109-.687 0-1.215.215-1.578.641s-.562 1.105-.594 2.031h.047c.32-.508.832-.766 1.531-.766.57 0 1.023.18 1.359.531.332.344.5.813.5 1.406 0 .668-.184 1.195-.547 1.578s-.859.578-1.484.578c-.656 0-1.184-.25-1.578-.75-.387-.5-.578-1.191-.578-2.078zm2.156 2.203c.414 0 .738-.129.969-.391s.344-.641.344-1.141c0-.414-.109-.742-.328-.984-.211-.25-.527-.375-.953-.375-.262 0-.5.059-.719.172a1.36 1.36 0 0 0-.531.438c-.125.188-.187.387-.187.594 0 .305.055.586.172.844s.273.469.484.625a1.3 1.3 0 0 0 .75.219zm0 0"/><path id="P" d="M38.545 65.923h-.953v1.469h-.687v-1.469h-3.125v-.641l3.047-4.344h.766v4.313h.953zm-1.641-.672v-2.125l.047-1.422h-.047c-.137.281-.266.516-.391.703l-2 2.844zm0 0"/><path id="Q" d="M47.008 145.266h-.719v-4.578l.047-1.078-.219.203-1.047.844-.375-.5 1.688-1.297h.625zm0 0"/><path id="R" d="M100.242 300.212c0 .75-.262 1.336-.781 1.75-.523.406-1.262.609-2.219.609h-.875v2.938h-.875v-7.484h1.938c1.875 0 2.813.73 2.813 2.188zm-3.875 1.609h.781c.77 0 1.328-.125 1.672-.375s.516-.648.516-1.203c0-.488-.164-.852-.484-1.094-.324-.25-.828-.375-1.516-.375h-.969zm0 0"/><path id="S" d="M36.029 296.345c.676 0 1.207.172 1.594.516.395.336.594.789.594 1.359 0 .668-.215 1.195-.641 1.578-.418.375-1 .563-1.75.563-.719 0-1.273-.117-1.656-.359v-.687a2.61 2.61 0 0 0 .766.297 3.76 3.76 0 0 0 .906.109c.508 0 .906-.117 1.188-.359.289-.238.438-.586.438-1.047 0-.895-.547-1.344-1.641-1.344-.281 0-.656.043-1.125.125l-.375-.234.25-3h3.188v.656h-2.578l-.156 1.938a4.81 4.81 0 0 1 1-.109zm0 0"/><path id="T" d="M48.555 219.922c0 1.117-.18 1.949-.531 2.5-.344.543-.875.813-1.594.813-.687 0-1.215-.281-1.578-.844-.355-.562-.531-1.383-.531-2.469 0-1.113.172-1.941.516-2.484s.875-.812 1.594-.812c.695 0 1.223.281 1.578.844.363.563.547 1.383.547 2.453zm-3.5 0c0 .938.109 1.621.328 2.047.219.418.566.625 1.047.625.488 0 .836-.211 1.047-.641.219-.426.328-1.102.328-2.031 0-.914-.109-1.586-.328-2.016-.211-.437-.559-.656-1.047-.656-.48 0-.828.215-1.047.641s-.328 1.105-.328 2.031zm0 0"/><path id="U" d="M132.94 176.413c-.281 0-.508.094-.672.281-.156.18-.246.43-.266.75h1.875c-.012-.32-.102-.57-.266-.75-.168-.187-.391-.281-.672-.281zm.188 4.141c-.793 0-1.414-.219-1.859-.656-.437-.437-.656-1.055-.656-1.859 0-.82.203-1.457.609-1.906.414-.445.984-.672 1.703-.672.695 0 1.238.199 1.625.594s.578.945.578 1.641v.641h-3.156c.008.387.117.688.328.906.207.211.504.313.891.313.289 0 .566-.031.828-.094.27-.062.547-.16.828-.297v1.031c-.23.125-.48.215-.75.266-.262.063-.586.094-.969.094zm0 0"/></defs></svg>