<svg xmlns="http://www.w3.org/2000/svg" width="718.844" height="422.696" viewBox="0 0 539.133 317.022" xmlns:v="https://vecta.io/nano"><style><![CDATA[.B{fill:none}.C{stroke-miterlimit:10}.D{fill:#fff}.E{stroke-width:2.246}.F{stroke-width:.749}.G{fill:#f5f5f5}.H{fill:#d6b656}.I{fill:#6c8ebf}]]></style><defs><path d="M.938-7.484h2.328c1.063 0 1.832.152 2.313.453s.719.781.719 1.438c0 .449-.105.82-.312 1.109-.211.281-.484.453-.828.516v.047c.469.105.805.305 1.016.594s.313.68.313 1.156c0 .688-.246 1.227-.734 1.609-.492.375-1.156.563-2 .563H.938zm1.594 2.969h.922c.426 0 .734-.066.922-.203.195-.133.297-.352.297-.656 0-.289-.105-.5-.312-.625s-.543-.187-1-.187h-.828zm0 1.25v1.953h1.031c.438 0 .758-.082.969-.25s.313-.422.313-.766c0-.625-.445-.937-1.328-.937zm0 0" id="A"/><path d="M4.016-5.828c.207 0 .383.016.531.047l-.125 1.453a1.9 1.9 0 0 0-.453-.047c-.5 0-.891.133-1.172.391-.281.25-.422.609-.422 1.078V0H.813v-5.719H2l.234.953h.078c.176-.32.414-.578.719-.766.301-.195.629-.297.984-.297zm0 0" id="B"/><path d="M2.063-2.875c0 .574.094 1.008.281 1.297.188.281.488.422.906.422s.711-.141.891-.422c.188-.289.281-.723.281-1.297 0-.562-.094-.984-.281-1.266-.18-.289-.48-.437-.906-.437-.418 0-.719.141-.906.422-.18.281-.266.711-.266 1.281zm3.953 0c0 .938-.246 1.672-.734 2.203-.492.523-1.172.781-2.047.781-.555 0-1.043-.117-1.469-.359a2.51 2.51 0 0 1-.969-1.047C.578-1.742.469-2.27.469-2.875c0-.937.242-1.66.734-2.172.488-.52 1.176-.781 2.063-.781.539 0 1.02.121 1.438.359.426.242.75.586.969 1.031.227.449.344.969.344 1.563zm0 0" id="C"/><path d="M4.453 0l-.297-.781h-.047c-.262.336-.531.57-.812.703-.281.125-.641.188-1.078.188-.555 0-.992-.156-1.312-.469-.312-.32-.469-.77-.469-1.344 0-.613.211-1.062.641-1.344C1.504-3.336 2.145-3.5 3-3.531l1-.031v-.25c0-.582-.297-.875-.891-.875-.461 0-1 .141-1.625.422L.969-5.328c.656-.344 1.383-.516 2.188-.516.77 0 1.359.168 1.766.5.414.336.625.844.625 1.531V0zM4-2.656l-.609.031c-.461.012-.797.094-1.016.25-.219.148-.328.371-.328.672 0 .438.25.656.75.656.363 0 .656-.098.875-.297.219-.207.328-.488.328-.844zm0 0" id="D"/><path d="M2.625.109c-.668 0-1.195-.258-1.578-.781C.66-1.203.469-1.926.469-2.844c0-.945.191-1.68.578-2.203.395-.52.938-.781 1.625-.781.719 0 1.27.281 1.656.844h.047c-.086-.426-.125-.812-.125-1.156v-1.828h1.578V0H4.625l-.297-.75H4.25c-.355.574-.898.859-1.625.859zm.547-1.25c.406 0 .703-.113.891-.344.188-.238.285-.633.297-1.187v-.172c0-.613-.094-1.051-.281-1.312-.187-.27-.496-.406-.922-.406-.355 0-.633.152-.828.453-.187.293-.281.719-.281 1.281s.098.984.297 1.266a.95.95 0 0 0 .828.422zm0 0" id="E"/><path d="M3.141.109C1.359.109.469-.867.469-2.828c0-.977.238-1.723.719-2.234.488-.508 1.188-.766 2.094-.766.664 0 1.258.133 1.781.391l-.453 1.203-.703-.234a1.97 1.97 0 0 0-.625-.109c-.812 0-1.219.578-1.219 1.734 0 1.125.406 1.688 1.219 1.688a2.54 2.54 0 0 0 .828-.125c.258-.082.52-.207.781-.375v1.328a2.57 2.57 0 0 1-.781.344c-.25.063-.574.094-.969.094zm0 0" id="F"/><path d="M4.813-1.703c0 .594-.203 1.047-.609 1.359-.406.305-1.016.453-1.828.453-.418 0-.777-.031-1.078-.094a3.18 3.18 0 0 1-.812-.25v-1.281c.289.137.613.25.969.344.363.086.688.125.969.125.563 0 .844-.16.844-.484 0-.125-.039-.223-.109-.297-.074-.082-.203-.172-.391-.266l-.734-.344c-.437-.176-.762-.344-.969-.5S.703-3.27.609-3.469C.516-3.676.469-3.93.469-4.234c0-.508.195-.898.594-1.172.395-.281.953-.422 1.672-.422.688 0 1.359.152 2.016.453L4.281-4.25c-.293-.125-.562-.223-.812-.297-.242-.082-.492-.125-.75-.125-.469 0-.703.125-.703.375 0 .137.07.258.219.359.156.105.484.258.984.453.445.188.773.359.984.516s.359.34.453.547c.102.199.156.438.156.719zm0 0" id="G"/><path d="M3.234-1.141c.27 0 .598-.062.984-.187v1.172C3.82.02 3.344.109 2.781.109c-.625 0-1.086-.156-1.375-.469C1.125-.68.984-1.16.984-1.797v-2.75h-.75v-.672l.859-.516.453-1.203h1v1.219h1.609v1.172H2.547v2.75c0 .23.063.398.188.5s.289.156.5.156zm0 0" id="H"/><path d="M7.156-3.812c0 1.23-.355 2.172-1.062 2.828C5.395-.328 4.383 0 3.063 0H.938v-7.484h2.359c1.219 0 2.164.324 2.844.969s1.016 1.547 1.016 2.703zM5.5-3.766c0-1.613-.711-2.422-2.125-2.422h-.844v4.875h.672c1.531 0 2.297-.816 2.297-2.453zm0 0" id="I"/><path d="M5.938 0H4.375v-3.344c0-.414-.07-.723-.203-.922-.137-.207-.355-.312-.656-.312-.398 0-.687.148-.875.438-.18.293-.266.777-.266 1.453V0H.813v-5.719h1.203l.203.734h.094c.156-.27.375-.477.656-.625.289-.145.625-.219 1-.219.852 0 1.438.281 1.75.844h.125c.156-.27.383-.477.688-.625a2.32 2.32 0 0 1 1.016-.219c.645 0 1.133.168 1.469.5s.5.867.5 1.594V0H7.938v-3.344c0-.414-.07-.723-.203-.922-.137-.207-.355-.312-.656-.312-.375 0-.664.137-.859.406-.187.273-.281.703-.281 1.297zm0 0" id="J"/><path d="M.75-7.203c0-.508.285-.766.859-.766.563 0 .844.258.844.766 0 .242-.074.43-.219.563-.137.137-.344.203-.625.203-.574 0-.859-.254-.859-.766zM2.375 0H.813v-5.719h1.563zm0 0" id="K"/><path d="M6.109 0H4.547v-3.344c0-.414-.078-.723-.234-.922-.148-.207-.375-.312-.687-.312-.437 0-.758.148-.953.438s-.297.777-.297 1.453V0H.813v-5.719h1.203l.203.734h.094a1.5 1.5 0 0 1 .703-.625 2.46 2.46 0 0 1 1.047-.219c.664 0 1.172.184 1.516.547.352.355.531.871.531 1.547zm0 0" id="L"/><path d="M3.781-4.203H6.75v3.875c-.48.156-.934.266-1.359.328-.43.07-.859.109-1.297.109-1.137 0-2-.332-2.594-1S.609-2.508.609-3.75c0-1.207.344-2.148 1.031-2.828.695-.676 1.656-1.016 2.875-1.016a5.45 5.45 0 0 1 2.219.469l-.516 1.266c-.555-.27-1.121-.406-1.703-.406-.687 0-1.242.23-1.656.688-.406.461-.609 1.078-.609 1.859 0 .813.16 1.434.484 1.859.332.43.816.641 1.453.641a4.81 4.81 0 0 0 1.016-.109v-1.547H3.781zm0 0" id="M"/><path d="M3.188-4.719c-.336 0-.594.105-.781.313s-.293.508-.312.891h2.188c-.012-.383-.117-.68-.312-.891-.187-.207-.449-.312-.781-.312zM3.406.109c-.918 0-1.637-.254-2.156-.766S.469-1.891.469-2.828c0-.957.238-1.695.719-2.219s1.141-.781 1.984-.781c.813 0 1.441.23 1.891.688.457.461.688 1.094.688 1.906v.766H2.047c.02.438.148.781.391 1.031.25.25.598.375 1.047.375.344 0 .664-.035.969-.109.313-.07.633-.187.969-.344v1.219A3.45 3.45 0 0 1 4.547 0c-.312.07-.695.109-1.141.109zm0 0" id="N"/><path d="M5.797-5.719v.781l-.891.234c.164.262.25.547.25.859 0 .617-.219 1.094-.656 1.438-.43.344-1.023.516-1.781.516l-.281-.016-.219-.031c-.168.125-.25.266-.25.422 0 .219.285.328.859.328h.969c.633 0 1.113.137 1.438.406.332.273.5.668.5 1.188 0 .664-.281 1.18-.844 1.547-.555.375-1.352.563-2.391.563-.805 0-1.418-.141-1.844-.422A1.3 1.3 0 0 1 .031.938c0-.344.102-.637.313-.875.219-.227.535-.395.953-.5C1.141-.5 1-.609.875-.766a.81.81 0 0 1-.172-.5c0-.219.063-.395.188-.531a2.32 2.32 0 0 1 .547-.437 1.5 1.5 0 0 1-.719-.609c-.18-.289-.266-.633-.266-1.031 0-.625.203-1.102.609-1.437.406-.344.988-.516 1.75-.516.156 0 .344.016.563.047l.422.063zM1.375.813c0 .207.102.375.313.5s.5.188.875.188c.563 0 1-.078 1.313-.234.313-.148.469-.355.469-.625 0-.219-.094-.371-.281-.453-.187-.074-.477-.109-.859-.109h-.812c-.293 0-.539.063-.734.188-.187.133-.281.316-.281.547zm.578-4.656c0 .305.066.547.203.734.145.18.363.266.656.266s.504-.086.641-.266c.133-.187.203-.43.203-.734 0-.695-.281-1.047-.844-1.047-.574 0-.859.352-.859 1.047zm0 0" id="O"/><path d="M3.969.109c-.68 0-1.211-.242-1.594-.734h-.078l.078.828v2.313H.813v-8.234h1.281l.219.734h.063c.363-.562.906-.844 1.625-.844.676 0 1.203.262 1.578.781.383.523.578 1.246.578 2.172 0 .617-.09 1.148-.266 1.594s-.434.793-.766 1.031c-.324.242-.711.359-1.156.359zM3.5-4.578c-.387 0-.668.121-.844.359-.18.23-.273.621-.281 1.172v.172c0 .617.086 1.059.266 1.328.188.262.477.391.875.391.707 0 1.063-.578 1.063-1.734 0-.562-.09-.984-.266-1.266s-.449-.422-.812-.422zm0 0" id="P"/><path d="M6.109 0H4.547v-3.344c0-.82-.309-1.234-.922-1.234-.437 0-.758.152-.953.453-.199.293-.297.773-.297 1.438V0H.813v-7.969h1.563v1.625l-.031.891-.031.469h.078c.344-.562.895-.844 1.656-.844.676 0 1.188.184 1.531.547.352.355.531.871.531 1.547zm0 0" id="Q"/><path d="M2.375 0H.813v-7.969h1.563zm0 0" id="R"/><path d="M.422-2.875c0-.906.129-1.75.391-2.531.27-.789.648-1.484 1.141-2.078h1.281a7.47 7.47 0 0 0-1.094 2.172c-.242.793-.359 1.605-.359 2.438s.125 1.641.375 2.422.609 1.484 1.078 2.109H1.953C1.453 1.07 1.07.395.813-.375s-.391-1.602-.391-2.5zm0 0" id="S"/><path d="M5.25 0H.938v-7.484H5.25v1.297H2.531v1.641h2.531v1.313H2.531v1.922H5.25zm0 0" id="T"/><path d="M1.984-2.922L.156-5.719h1.766l1.109 1.813 1.125-1.812h1.766L4.063-2.922 6.016 0H4.234L3.031-1.953 1.828 0H.047zm0 0" id="U"/><path d="M0-5.719h1.703L2.797-2.5c.082.281.145.609.188.984h.031c.031-.344.102-.672.219-.984l1.063-3.219h1.672L3.547.734c-.23.594-.555 1.035-.969 1.328a2.33 2.33 0 0 1-1.422.453c-.273 0-.539-.027-.797-.078v-1.25c.188.051.391.078.609.078.281 0 .52-.09.719-.266.207-.168.375-.422.5-.766l.078-.281zm0 0" id="V"/><path d="M5.219-7.484h1.594L4.266 0H2.547L0-7.484h1.609l1.406 4.453.234.922.156.734c.039-.32.172-.875.391-1.656zm0 0" id="W"/><path d="M3.141-2.875a7.65 7.65 0 0 1-.406 2.516c-.262.77-.641 1.441-1.141 2.016H.328c.457-.625.813-1.328 1.063-2.109s.375-1.586.375-2.422a8.06 8.06 0 0 0-.375-2.437C1.148-6.102.789-6.828.313-7.484h1.281a6.24 6.24 0 0 1 1.141 2.078c.27.793.406 1.637.406 2.531zm0 0" id="X"/><path d="M4.953-4.547c0 .648-.227 1.148-.672 1.5-.437.355-1.074.531-1.906.531h-.75V0h-.75v-6.406h1.672c1.602 0 2.406.621 2.406 1.859zM1.625-3.156h.672c.664 0 1.145-.102 1.438-.312.289-.219.438-.566.438-1.047 0-.414-.141-.727-.422-.937-.273-.207-.699-.312-1.281-.312h-.844zm0 0" id="Y"/><path d="M2.797.094c-.711 0-1.273-.211-1.687-.641C.703-.984.5-1.586.5-2.359c0-.781.191-1.395.578-1.844.383-.457.895-.687 1.531-.687.602 0 1.082.199 1.438.594s.531.918.531 1.563v.469H1.266c.008.563.148.992.422 1.281s.648.438 1.141.438a3.79 3.79 0 0 0 1.531-.328v.656a4.26 4.26 0 0 1-.719.234c-.23.051-.512.078-.844.078zm-.187-4.375c-.387 0-.695.125-.922.375s-.367.602-.406 1.047h2.516c0-.457-.105-.805-.312-1.047-.211-.25-.5-.375-.875-.375zm0 0" id="Z"/><path d="M2.969-4.891c.207 0 .398.016.578.047l-.109.672c-.199-.039-.375-.062-.531-.062-.387 0-.719.164-1 .484-.273.313-.406.703-.406 1.172V0H.766v-4.812h.609l.078.891h.031a2.22 2.22 0 0 1 .656-.719c.25-.164.523-.25.828-.25zm0 0" id="a"/><path d="M1.625-2.672V0h-.75v-6.406h1.766c.789 0 1.375.152 1.75.453.375.293.563.742.563 1.344 0 .855-.434 1.434-1.297 1.734L5.406 0h-.891L2.969-2.672zm0-.641h1.031c.52 0 .898-.102 1.141-.312.25-.207.375-.52.375-.937 0-.426-.125-.734-.375-.922s-.652-.281-1.203-.281h-.969zm0 0" id="b"/><path d="M4.922-2.406c0 .781-.199 1.398-.594 1.844-.398.438-.945.656-1.641.656-.43 0-.809-.098-1.141-.297-.336-.207-.594-.5-.781-.875C.586-1.461.5-1.906.5-2.406c0-.781.195-1.391.594-1.828s.938-.656 1.625-.656c.676 0 1.211.227 1.609.672s.594 1.055.594 1.813zm-3.656 0c0 .617.117 1.086.359 1.406.25.324.613.484 1.094.484.469 0 .828-.16 1.078-.484s.375-.789.375-1.406-.125-1.078-.375-1.391c-.25-.32-.617-.484-1.094-.484s-.84.156-1.078.469-.359.781-.359 1.406zm0 0" id="c"/><path d="M1.453-4.812v3.125c0 .398.086.695.266.891.176.188.457.281.844.281.5 0 .863-.133 1.094-.406.238-.281.359-.734.359-1.359v-2.531h.734V0h-.609l-.109-.641H4c-.156.23-.367.414-.625.547-.262.125-.562.188-.906.188-.586 0-1.023-.141-1.312-.422S.719-1.051.719-1.656v-3.156zm0 0" id="d"/><path d="M2.328-.516l.359-.016a2.12 2.12 0 0 0 .297-.062v.547c-.086.043-.203.07-.359.094-.148.031-.281.047-.406.047-.93 0-1.391-.488-1.391-1.469v-2.859H.141v-.359l.688-.297.297-1.031h.422v1.109h1.406v.578H1.547v2.828c0 .281.066.5.203.656.145.156.336.234.578.234zm0 0" id="e"/><path d="M4.906 0l-.797-2.047H1.547L.75 0H0l2.531-6.437h.625L5.688 0zM3.875-2.719l-.734-1.984c-.105-.25-.203-.555-.297-.922l-.281.922-.75 1.984zm0 0" id="f"/><path d="M4.5-1.703c0 .563-.211 1.008-.625 1.328-.406.313-.961.469-1.656.469-.762 0-1.344-.098-1.75-.297v-.719c.258.105.547.195.859.266.313.063.617.094.922.094.488 0 .859-.094 1.109-.281.258-.187.391-.453.391-.797 0-.219-.047-.395-.141-.531-.086-.145-.234-.273-.453-.391-.211-.125-.523-.266-.937-.422-.605-.207-1.039-.457-1.297-.75-.25-.301-.375-.687-.375-1.156 0-.488.18-.879.547-1.172.375-.289.867-.437 1.484-.437.633 0 1.223.117 1.766.344l-.234.656c-.531-.227-1.047-.344-1.547-.344-.398 0-.711.09-.937.266-.219.168-.328.402-.328.703 0 .219.039.402.125.547.082.137.219.266.406.391.195.117.5.246.906.391.664.242 1.125.5 1.375.781.258.273.391.625.391 1.063zm0 0" id="g"/><path d="M.516-2.734c0-1.258.242-2.203.734-2.828S2.461-6.5 3.422-6.5c.332 0 .594.027.781.078v.625c-.23-.07-.484-.109-.766-.109-.687 0-1.215.215-1.578.641s-.562 1.105-.594 2.031h.047C1.633-3.742 2.145-4 2.844-4c.57 0 1.023.18 1.359.531.332.344.5.813.5 1.406 0 .668-.184 1.195-.547 1.578s-.859.578-1.484.578c-.656 0-1.184-.25-1.578-.75-.387-.5-.578-1.191-.578-2.078zM2.672-.531c.414 0 .738-.129.969-.391s.344-.641.344-1.141c0-.414-.109-.742-.328-.984-.211-.25-.527-.375-.953-.375-.262 0-.5.059-.719.172a1.36 1.36 0 0 0-.531.438c-.125.188-.187.387-.187.594 0 .305.055.586.172.844s.273.469.484.625a1.3 1.3 0 0 0 .75.219zm0 0" id="h"/><path d="M4.953-1.469H4V0h-.687v-1.469H.188v-.641l3.047-4.344H4v4.313h.953zm-1.641-.672v-2.125l.047-1.422h-.047c-.137.281-.266.516-.391.703l-2 2.844zm0 0" id="i"/><path d="M4.656-3.672C4.656-1.16 3.68.094 1.734.094 1.398.094 1.133.063.938 0v-.625c.227.074.492.109.797.109.695 0 1.223-.211 1.578-.641.363-.437.563-1.102.594-2h-.047c-.168.242-.387.422-.656.547-.262.125-.559.188-.891.188-.562 0-1.012-.164-1.344-.5-.336-.344-.5-.816-.5-1.422 0-.664.18-1.191.547-1.578.375-.383.867-.578 1.484-.578a1.94 1.94 0 0 1 1.141.344c.32.219.57.543.75.969s.266.934.266 1.516zM2.5-5.891c-.418 0-.742.137-.969.406s-.344.648-.344 1.125c0 .43.102.762.313 1S2.031-3 2.469-3a1.64 1.64 0 0 0 .719-.156 1.35 1.35 0 0 0 .531-.453c.133-.187.203-.379.203-.578 0-.312-.062-.598-.187-.859-.117-.258-.281-.461-.5-.609-.219-.156-.465-.234-.734-.234zm0 0" id="j"/><path d="M.875 0v-6.406h.75v5.734h2.828V0zm0 0" id="k"/><path d="M4.656 0H.438v-.625l1.688-1.703 1.016-1.109a2.9 2.9 0 0 0 .375-.641c.082-.219.125-.445.125-.687 0-.344-.105-.613-.312-.812-.211-.207-.496-.312-.859-.312-.273 0-.527.047-.766.141-.242.086-.508.246-.797.484l-.391-.5c.594-.488 1.238-.734 1.938-.734.602 0 1.07.156 1.406.469.344.305.516.715.516 1.234a2.4 2.4 0 0 1-.344 1.203c-.219.398-.641.902-1.266 1.516L1.359-.703v.031h3.297zm0 0" id="l"/><path d="M3.016-4.891c.625 0 1.109.219 1.453.656.352.43.531 1.039.531 1.828S4.82-1 4.469-.562c-.344.438-.828.656-1.453.656-.312 0-.602-.059-.859-.172-.262-.125-.48-.305-.656-.547h-.047L1.297 0H.766v-6.828H1.5v1.656l-.031 1H1.5c.344-.477.848-.719 1.516-.719zm-.109.609c-.5 0-.859.148-1.078.438-.219.281-.328.762-.328 1.438s.109 1.164.328 1.453c.227.293.594.438 1.094.438.445 0 .781-.16 1-.484.219-.332.328-.805.328-1.422 0-.625-.109-1.086-.328-1.391-.219-.312-.559-.469-1.016-.469zm0 0" id="m"/><path d="M3.734 0l-.156-.687h-.031c-.242.305-.48.512-.719.625-.242.102-.539.156-.891.156-.48 0-.855-.125-1.125-.375S.406-.879.406-1.328c0-.969.773-1.477 2.328-1.531l.828-.016v-.312c0-.375-.086-.648-.25-.828-.156-.176-.418-.266-.781-.266-.398 0-.852.121-1.359.359l-.219-.547c.238-.133.5-.238.781-.312s.563-.109.844-.109c.57 0 .992.133 1.266.391.281.25.422.656.422 1.219V0zM2.078-.516c.457 0 .816-.125 1.078-.375s.391-.598.391-1.047v-.422l-.734.031c-.586.023-1.008.109-1.266.266-.25.156-.375.402-.375.734 0 .273.078.477.234.609.164.137.391.203.672.203zm0 0" id="n"/><path d="M2.688.094C2 .094 1.461-.117 1.078-.547.691-.984.5-1.594.5-2.375c0-.801.191-1.422.578-1.859.395-.437.945-.656 1.656-.656a3.26 3.26 0 0 1 .703.078c.227.043.41.102.547.172l-.234.609c-.156-.062-.336-.113-.531-.156-.187-.039-.355-.062-.5-.062-.969 0-1.453.625-1.453 1.875 0 .586.113 1.039.344 1.359.238.313.594.469 1.063.469.406 0 .816-.086 1.234-.266v.656c-.324.164-.73.25-1.219.25zm0 0" id="o"/><path d="M1.484-2.469c.133-.176.328-.406.578-.687l1.563-1.656h.859L2.531-2.766 4.625 0h-.891L2.047-2.266l-.562.469V0H.766v-6.828h.719v3.625l-.031.734zm0 0" id="p"/><path d="M4.063 0v-3.109c0-.395-.09-.687-.266-.875-.18-.195-.461-.297-.844-.297-.5 0-.871.141-1.109.422-.23.273-.344.719-.344 1.344V0H.766v-6.828H1.5v2.063c0 .25-.012.461-.031.625h.047c.133-.227.332-.41.594-.547.27-.133.578-.203.922-.203.582 0 1.02.141 1.313.422.301.281.453.727.453 1.328V0zm0 0" id="q"/><path d="M1.5 0H.766v-6.828H1.5zm0 0" id="r"/><path d="M1.25 0l2.656-5.75h-3.5v-.656h4.281v.578L2.063 0zm0 0" id="s"/><path d="M3.141 0h-.719v-4.578l.047-1.078-.219.203-1.047.844-.375-.5 1.688-1.297h.625zm0 0" id="t"/><path d="M2.438-3.922c.676 0 1.207.172 1.594.516.395.336.594.789.594 1.359 0 .668-.215 1.195-.641 1.578-.418.375-1 .563-1.75.563C1.516.094.961-.023.578-.266v-.687a2.61 2.61 0 0 0 .766.297 3.76 3.76 0 0 0 .906.109c.508 0 .906-.117 1.188-.359.289-.238.438-.586.438-1.047 0-.895-.547-1.344-1.641-1.344-.281 0-.656.043-1.125.125l-.375-.234.25-3h3.188v.656H1.594l-.156 1.938a4.81 4.81 0 0 1 1-.109zm0 0" id="u"/><path d="M4.406-4.906c0 .406-.117.742-.344 1s-.555.438-.969.531v.031c.508.063.891.23 1.141.5.25.262.375.605.375 1.031 0 .605-.215 1.074-.641 1.406-.418.336-1.016.5-1.797.5-.344 0-.656-.027-.937-.078a3.01 3.01 0 0 1-.828-.281v-.687a4.08 4.08 0 0 0 .891.313 3.85 3.85 0 0 0 .891.109c1.113 0 1.672-.43 1.672-1.297C3.859-2.609 3.242-3 2.016-3h-.625v-.625h.641c.5 0 .895-.109 1.188-.328.289-.227.438-.535.438-.922 0-.312-.109-.555-.328-.734-.211-.187-.496-.281-.859-.281a2.54 2.54 0 0 0-.797.125c-.25.074-.539.215-.859.422l-.359-.5a2.96 2.96 0 0 1 .906-.484c.344-.113.703-.172 1.078-.172.625 0 1.109.141 1.453.422s.516.672.516 1.172zm0 0" id="v"/><path d="M4.688-3.219c0 1.117-.18 1.949-.531 2.5-.344.543-.875.813-1.594.813-.687 0-1.215-.281-1.578-.844C.629-1.312.453-2.133.453-3.219c0-1.113.172-1.941.516-2.484s.875-.812 1.594-.812c.695 0 1.223.281 1.578.844.363.563.547 1.383.547 2.453zm-3.5 0c0 .938.109 1.621.328 2.047.219.418.566.625 1.047.625.488 0 .836-.211 1.047-.641.219-.426.328-1.102.328-2.031 0-.914-.109-1.586-.328-2.016-.211-.437-.559-.656-1.047-.656-.48 0-.828.215-1.047.641s-.328 1.105-.328 2.031zm0 0" id="w"/><path d="M5.891 0h-.844L1.531-5.375H1.5l.078 1.734V0H.875v-6.406h.844l3.5 5.359h.031l-.031-.766-.031-.922v-3.672h.703zm0 0" id="x"/><path d="M1.031 0v-7.484h.875V0zm0 0" id="y"/><path d="M6.016 0h-1l-2-3.297L.969 0H.047l2.484-3.906L.203-7.484h.969l1.859 2.969 1.875-2.969h.922L3.516-3.937zm0 0" id="z"/><path d="M5.781-5.297c0 .75-.262 1.336-.781 1.75-.523.406-1.262.609-2.219.609h-.875V0h-.875v-7.484h1.938c1.875 0 2.813.73 2.813 2.188zM1.906-3.687h.781c.77 0 1.328-.125 1.672-.375s.516-.648.516-1.203c0-.488-.164-.852-.484-1.094-.324-.25-.828-.375-1.516-.375h-.969zm0 0" id="AA"/><path d="M5.75-2.812c0 .918-.234 1.637-.703 2.156-.461.512-1.094.766-1.906.766-.5 0-.949-.117-1.344-.359-.387-.238-.684-.578-.891-1.016S.594-2.219.594-2.812c0-.914.223-1.629.672-2.141.457-.508 1.094-.766 1.906-.766.789 0 1.414.266 1.875.797.469.523.703 1.227.703 2.109zm-4.281 0c0 .719.141 1.266.422 1.641.289.375.711.563 1.266.563.563 0 .984-.187 1.266-.562.289-.375.438-.922.438-1.641 0-.707-.148-1.242-.437-1.609-.281-.375-.703-.562-1.266-.562s-.984.184-1.266.547-.422.906-.422 1.625zm0 0" id="AB"/><path d="M5.016-4.609l-.328 1.75h1.453v.656H4.563L4.125 0h-.687l.422-2.203H2.313L1.891 0h-.703l.422-2.203H.266v-.656h1.469l.344-1.75H.656v-.641h1.531l.422-2.234h.719L2.906-5.25h1.563l.422-2.234h.688L5.156-5.25H6.5v.641zm-2.578 1.75h1.547l.344-1.75H2.766zm0 0" id="AC"/><path d="M5.438 0H.516v-.734l1.969-1.984 1.188-1.297c.188-.258.328-.508.422-.75a2.1 2.1 0 0 0 .156-.797c0-.395-.125-.707-.375-.937-.242-.238-.574-.359-1-.359-.312 0-.609.055-.891.156-.273.094-.578.277-.922.547l-.453-.578c.688-.57 1.438-.859 2.25-.859.707 0 1.258.184 1.656.547.395.355.594.84.594 1.453 0 .469-.137.938-.406 1.406-.262.461-.758 1.043-1.484 1.75L1.578-.828v.047h3.859zm0 0" id="AD"/><path d="M3.656 0h-.828v-5.328l.047-1.266-.25.234-1.219.984-.437-.578 1.969-1.531h.719zm0 0" id="AE"/><path d="M2.172-3.391h.438c.414 0 .727-.082.938-.25s.313-.406.313-.719c0-.32-.09-.555-.266-.703-.168-.156-.437-.234-.812-.234h-.609zm3.063-1.016c0 .688-.219 1.215-.656 1.578-.43.367-1.039.547-1.828.547h-.578V0H.813v-6.406h2.047c.77 0 1.359.168 1.766.5s.609.836.609 1.5zm0 0" id="AF"/><path d="M2.734-4.047c-.281 0-.508.094-.672.281-.156.18-.246.43-.266.75h1.875c-.012-.32-.102-.57-.266-.75-.168-.187-.391-.281-.672-.281zM2.922.094c-.793 0-1.414-.219-1.859-.656C.625-1 .406-1.617.406-2.422c0-.82.203-1.457.609-1.906C1.43-4.773 2-5 2.719-5c.695 0 1.238.199 1.625.594s.578.945.578 1.641v.641H1.766c.008.387.117.688.328.906.207.211.504.313.891.313.289 0 .566-.031.828-.094.27-.062.547-.16.828-.297v1.031c-.23.125-.48.215-.75.266-.262.063-.586.094-.969.094zm0 0" id="AG"/><path d="M3.438-5a1.79 1.79 0 0 1 .453.047l-.094 1.25a1.57 1.57 0 0 0-.406-.047c-.43 0-.762.109-1 .328-.23.219-.344.527-.344.922V0H.703v-4.906h1.016l.188.828h.078c.145-.281.348-.504.609-.672S3.133-5 3.438-5zm0 0" id="AH"/><path d="M.641-6.172c0-.437.242-.656.734-.656.477 0 .719.219.719.656 0 .211-.062.371-.187.484-.117.117-.293.172-.531.172-.492 0-.734-.219-.734-.656zM2.047 0H.703v-4.906h1.344zm0 0" id="AI"/><path d="M5.234 0H3.891v-2.859c0-.352-.062-.617-.187-.797s-.328-.266-.609-.266c-.367 0-.633.125-.797.375s-.25.664-.25 1.234V0H.703v-4.906h1.016l.188.625h.078c.145-.227.348-.406.609-.531S3.148-5 3.484-5c.57 0 1.004.156 1.297.469.301.305.453.746.453 1.328zm0 0" id="AJ"/><path d="M4.969-4.906v.688l-.766.188c.133.219.203.465.203.734 0 .531-.184.945-.547 1.234s-.875.438-1.531.438h-.234l-.203-.031c-.137.105-.203.227-.203.359 0 .188.242.281.734.281h.844c.531 0 .938.121 1.219.359.281.23.422.563.422 1a1.5 1.5 0 0 1-.719 1.328c-.469.32-1.152.484-2.047.484-.687 0-1.215-.121-1.578-.359a1.14 1.14 0 0 1-.531-1c0-.293.086-.539.266-.734.188-.195.457-.344.813-.437C.973-.426.852-.52.75-.656S.594-.93.594-1.078a.7.7 0 0 1 .156-.469c.113-.125.273-.242.484-.359a1.38 1.38 0 0 1-.625-.531c-.148-.25-.219-.539-.219-.875 0-.539.172-.957.516-1.25.352-.289.852-.437 1.5-.437.133 0 .297.016.484.047l.375.047zM1.188.688a.48.48 0 0 0 .266.438c.176.102.422.156.734.156.477 0 .852-.07 1.125-.203.281-.125.422-.305.422-.531 0-.187-.086-.32-.25-.391-.156-.062-.406-.094-.75-.094h-.687c-.242 0-.445.055-.609.172a.52.52 0 0 0-.25.453zm.484-3.984c0 .262.055.469.172.625.125.156.313.234.563.234s.43-.078.547-.234c.125-.156.188-.363.188-.625 0-.594-.246-.891-.734-.891s-.734.297-.734.891zm0 0" id="AK"/><path d="M.813 0v-6.406h1.359v5.281h2.594V0zm0 0" id="AL"/><path d="M4.734 0l-.469-1.531H1.938L1.469 0H0l2.266-6.437h1.656L6.203 0zm-.797-2.672l-.719-2.344-.125-.422-.828 2.766zm0 0" id="AM"/><path d="M6.5 0H4.766L1.984-4.859h-.047l.078 1.844V0H.813v-6.406h1.703l2.797 4.797h.031l-.078-1.766v-3.031H6.5zm0 0" id="AN"/></defs><g fill="#f8cecc"><path d="M437.297 77.784h83.867l1.762.086 1.742.258c.578.113 1.148.258 1.711.43s1.117.367 1.66.594a17.03 17.03 0 0 1 1.598.754l1.512.906 1.414 1.051 1.309 1.184c.418.418.813.852 1.184 1.309a17.67 17.67 0 0 1 1.051 1.414l.906 1.516a16.51 16.51 0 0 1 .754 1.594 16.79 16.79 0 0 1 .594 1.66c.172.563.316 1.133.43 1.711l.258 1.742a17.73 17.73 0 0 1 .086 1.762v182.199l-.086 1.762c-.055.586-.145 1.164-.258 1.742s-.258 1.148-.43 1.711a16.79 16.79 0 0 1-.594 1.66 16.96 16.96 0 0 1-.754 1.594l-.906 1.516-1.051 1.414c-.371.457-.766.891-1.184 1.309l-1.309 1.184a17.67 17.67 0 0 1-1.414 1.051 17.99 17.99 0 0 1-1.512.906c-.52.277-1.051.527-1.598.754a17.46 17.46 0 0 1-1.66.594c-.562.172-1.133.316-1.711.43l-1.742.258a17.67 17.67 0 0 1-1.762.086h-83.867a17.73 17.73 0 0 1-1.762-.086l-1.742-.258c-.578-.113-1.148-.258-1.711-.43l-1.66-.594-1.594-.754-1.516-.906-1.414-1.051-1.309-1.184-1.184-1.309c-.375-.453-.723-.926-1.051-1.414l-.906-1.516a18 18 0 0 1-.754-1.594c-.227-.543-.422-1.098-.594-1.66a18.26 18.26 0 0 1-.43-1.711l-.258-1.742-.086-1.762V95.753l.086-1.762.258-1.742.43-1.711.594-1.66.754-1.594.906-1.516 1.051-1.414 1.184-1.309 1.309-1.184a17.67 17.67 0 0 1 1.414-1.051l1.516-.906 1.594-.754c.543-.227 1.098-.426 1.66-.594s1.133-.316 1.711-.43l1.742-.258a17.73 17.73 0 0 1 1.762-.086zm0 0"/><path d="M437.297 17.878h83.867l1.762.086 1.742.262a18.24 18.24 0 0 1 1.711.426l1.66.594 1.598.758 1.512.906c.488.324.961.676 1.414 1.051s.891.766 1.309 1.184a16.98 16.98 0 0 1 1.184 1.305l1.051 1.418a17.38 17.38 0 0 1 .906 1.512l.754 1.594.594 1.66.43 1.711.258 1.746a17.67 17.67 0 0 1 .086 1.762v196.184l-.086 1.762c-.055.586-.145 1.168-.258 1.746a17.67 17.67 0 0 1-.43 1.711 16.79 16.79 0 0 1-.594 1.66c-.223.543-.477 1.074-.754 1.594s-.578 1.023-.906 1.512l-1.051 1.418a16.98 16.98 0 0 1-1.184 1.305c-.418.418-.852.813-1.309 1.184s-.926.727-1.414 1.051a19.14 19.14 0 0 1-1.512.91 18.07 18.07 0 0 1-1.598.754l-1.66.594-1.711.426c-.574.117-1.156.203-1.742.262l-1.762.086h-83.867a18.99 18.99 0 0 1-1.762-.086l-1.742-.262-1.711-.426-1.66-.594-1.594-.754-1.516-.91a16.77 16.77 0 0 1-1.414-1.051c-.457-.371-.891-.766-1.309-1.184l-1.184-1.305-1.051-1.418a17.38 17.38 0 0 1-.906-1.512l-.754-1.594c-.227-.543-.422-1.098-.594-1.66l-.43-1.711-.258-1.746-.086-1.762V35.85l.086-1.762.258-1.746.43-1.711.594-1.66.754-1.594.906-1.512 1.051-1.418 1.184-1.305c.418-.418.852-.812 1.309-1.184a16.77 16.77 0 0 1 1.414-1.051l1.516-.906a17.47 17.47 0 0 1 1.594-.758l1.66-.594 1.711-.426c.578-.117 1.156-.203 1.742-.262l1.762-.086zm0 0"/><path d="M105.207 243.507h336.211a7.74 7.74 0 0 1 1.531.152 7.81 7.81 0 0 1 1.477.445 8.11 8.11 0 0 1 1.359.727c.43.285.824.613 1.191.977s.691.766.977 1.191a7.58 7.58 0 0 1 .727 1.359 7.75 7.75 0 0 1 .449 1.477 7.82 7.82 0 0 1 .148 1.535v36.691a7.74 7.74 0 0 1-.148 1.531 7.82 7.82 0 0 1-.449 1.477 7.58 7.58 0 0 1-.727 1.359c-.285.43-.613.824-.977 1.191s-.762.691-1.191.977a8.11 8.11 0 0 1-1.359.727 7.75 7.75 0 0 1-1.477.449 8.04 8.04 0 0 1-1.531.148H105.207c-.516 0-1.027-.051-1.535-.148s-.996-.25-1.473-.449a8.11 8.11 0 0 1-1.359-.727c-.43-.285-.828-.613-1.191-.977a7.95 7.95 0 0 1-.98-1.191 8.11 8.11 0 0 1-.727-1.359c-.195-.477-.344-.969-.445-1.477a7.74 7.74 0 0 1-.152-1.531V251.37a7.78 7.78 0 0 1 .152-1.535c.102-.508.25-1 .445-1.477a8.11 8.11 0 0 1 .727-1.359c.289-.426.613-.824.98-1.191a7.78 7.78 0 0 1 1.191-.977 8.11 8.11 0 0 1 1.359-.727 7.8 7.8 0 0 1 1.473-.445 7.81 7.81 0 0 1 1.535-.152zm82.367-77.367h268.82a7.74 7.74 0 0 1 1.531.152c.508.102 1 .25 1.477.445a8.11 8.11 0 0 1 1.359.727 7.95 7.95 0 0 1 1.191.98 7.82 7.82 0 0 1 .977 1.191 8.11 8.11 0 0 1 .727 1.359 7.8 7.8 0 0 1 .449 1.473 8.12 8.12 0 0 1 .148 1.535v36.691c0 .516-.051 1.027-.148 1.535s-.25.996-.449 1.473a8.11 8.11 0 0 1-.727 1.359c-.285.43-.613.828-.977 1.191a7.87 7.87 0 0 1-1.191.977 7.58 7.58 0 0 1-1.359.727 7.75 7.75 0 0 1-1.477.449 7.74 7.74 0 0 1-1.531.152h-268.82a7.81 7.81 0 0 1-1.535-.152 7.87 7.87 0 0 1-1.473-.449 7.58 7.58 0 0 1-1.359-.727c-.43-.285-.828-.609-1.191-.977a8.07 8.07 0 0 1-.977-1.191 7.58 7.58 0 0 1-.727-1.359 7.8 7.8 0 0 1-.449-1.473 7.81 7.81 0 0 1-.152-1.535v-36.691a7.81 7.81 0 0 1 .152-1.535 7.87 7.87 0 0 1 .449-1.473 7.58 7.58 0 0 1 .727-1.359c.285-.43.609-.828.977-1.191a7.76 7.76 0 0 1 1.191-.98 8.11 8.11 0 0 1 1.359-.727 8.1 8.1 0 0 1 1.473-.445 7.81 7.81 0 0 1 1.535-.152zm132.539-70.387h153.5a5.45 5.45 0 0 1 1.098.109 5.65 5.65 0 0 1 1.055.32 5.41 5.41 0 0 1 .969.52 5.61 5.61 0 0 1 .852.695c.262.262.492.547.699.852s.379.633.52.973.246.691.316 1.051a5.48 5.48 0 0 1 .109 1.098v26.207a5.45 5.45 0 0 1-.109 1.098 5.55 5.55 0 0 1-.316 1.051c-.14.34-.316.664-.52.973s-.437.59-.699.852a5.88 5.88 0 0 1-.852.699 5.66 5.66 0 0 1-.969.516c-.34.141-.695.25-1.055.32a5.45 5.45 0 0 1-1.098.109h-153.5a5.45 5.45 0 0 1-1.098-.109c-.359-.07-.711-.176-1.055-.32a5.65 5.65 0 0 1-.969-.516 5.88 5.88 0 0 1-.852-.699c-.262-.262-.492-.547-.699-.852a5.31 5.31 0 0 1-.52-.973c-.141-.344-.246-.691-.316-1.051a5.45 5.45 0 0 1-.109-1.098V101.37a5.48 5.48 0 0 1 .109-1.098 5.55 5.55 0 0 1 .316-1.051c.14-.34.316-.664.52-.973s.438-.59.699-.852a5.61 5.61 0 0 1 .852-.695 5.41 5.41 0 0 1 .969-.52 5.65 5.65 0 0 1 1.055-.32 5.45 5.45 0 0 1 1.098-.109zm82.368-77.875h78.621a5.45 5.45 0 0 1 1.098.109c.359.07.711.18 1.051.32a5.28 5.28 0 0 1 .973.52 5.61 5.61 0 0 1 .852.695c.262.262.492.547.699.852s.375.633.52.973a5.19 5.19 0 0 1 .316 1.051 5.48 5.48 0 0 1 .109 1.098v26.207a5.45 5.45 0 0 1-.109 1.098 5.55 5.55 0 0 1-.316 1.051 5.95 5.95 0 0 1-.52.973c-.207.305-.437.59-.699.852a5.61 5.61 0 0 1-.852.699 5.51 5.51 0 0 1-.973.516 5.26 5.26 0 0 1-1.051.32 5.45 5.45 0 0 1-1.098.109h-78.621a5.45 5.45 0 0 1-1.098-.109c-.359-.07-.711-.176-1.055-.32a5.65 5.65 0 0 1-.969-.516c-.305-.204-.59-.437-.852-.699s-.492-.547-.699-.852a5.95 5.95 0 0 1-.52-.973c-.141-.34-.246-.691-.316-1.051a5.45 5.45 0 0 1-.109-1.098V23.495a5.48 5.48 0 0 1 .109-1.098 5.55 5.55 0 0 1 .316-1.051c.14-.34.316-.664.52-.973s.438-.59.699-.852a5.61 5.61 0 0 1 .852-.695 5.41 5.41 0 0 1 .969-.52 5.65 5.65 0 0 1 1.055-.32 5.45 5.45 0 0 1 1.098-.109zm0 0"/></g><g fill="#b85450" transform="translate(-111.98 -152.517)"><use href="#A" x="545.523" y="439.588"/><use href="#B" x="552.566" y="439.588"/><use href="#C" x="557.117" y="439.588"/><use href="#D" x="563.608" y="439.588"/><use href="#E" x="569.939" y="439.588"/><use href="#F" x="576.573" y="439.588"/><use href="#D" x="581.963" y="439.588"/><use href="#G" x="588.295" y="439.588"/><use href="#H" x="593.506" y="439.588"/><use href="#I" x="600.78" y="439.588"/><use href="#C" x="608.54" y="439.588"/><use href="#J" x="615.03" y="439.588"/><use href="#D" x="625.324" y="439.588"/><use href="#K" x="631.656" y="439.588"/><use href="#L" x="634.855" y="439.588"/></g><g fill="#666"><path d="M322.617 247.827a11.36 11.36 0 0 1 1.617 1.625l-.574.477c-.488-.59-.992-1.098-1.516-1.52zm2.945 3.5a22.67 22.67 0 0 1 1.094 2.039l-.68.32a21.13 21.13 0 0 0-1.055-1.969zm1.926 4.012l.719 2.148-.715.215-.707-2.102zm1.324 4.461l.438 2.215-.738.125-.43-2.172zm.746 4.406l.211 2.27-.75.051-.203-2.234zm.309 4.617l.008.887-.019 1.465-.75-.023.023-1.434-.008-.887zm-.141 4.656l-.23 2.258-.746-.098.23-2.219zm-.57 4.449l-.484 2.285-.727-.18.473-2.238zm-1.109 4.543l-.75 2.113-.695-.277.73-2.062zm-1.641 4.105a20.34 20.34 0 0 1-1.148 2.008l-.629-.41a18.87 18.87 0 0 0 1.109-1.934zm-2.559 3.848c-.555.609-1.129 1.125-1.723 1.543l-.43-.609a9.8 9.8 0 0 0 1.594-1.437zm-3.816 2.594c-.582.18-1.168.27-1.762.27h-.566v-.75h.566c.516 0 1.031-.078 1.543-.234zm-4.574.27h-2.246v-.75h2.246zm-4.492 0h-2.246v-.75h2.246zm-4.492 0h-2.246v-.75h2.246zm-4.492 0h-2.25v-.75h2.25zm-4.496 0h-2.246v-.75h2.246zm-4.492 0h-2.246v-.75h2.246zm-4.492 0h-2.246v-.75h2.246zm-4.492 0h-2.246v-.75h2.246zm-4.492 0h-2.246v-.75h2.246zm-4.492 0h-2.246v-.75h2.246zm-4.496 0h-2.246v-.75h2.246zm-4.492 0h-2.246v-.75h2.246zm-4.492 0h-2.246v-.75h2.246zm-4.492 0h-2.246v-.75h2.246zm-4.492 0h-2.246v-.75h2.246zm-4.492 0h-2.246v-.75h2.246zm-4.492 0h-2.246v-.75h2.246zm-4.496 0h-2.246v-.75h2.246zm-4.492 0h-2.246v-.75h2.246zm-4.492 0h-2.246v-.75h2.246zm-4.492 0h-2.246v-.75h2.246zm-4.492 0h-2.246v-.75h2.246zm-4.492 0h-2.246v-.75h2.246zm-4.492 0h-2.25v-.75h2.25zm-4.496 0h-2.246v-.75h2.246zm-4.492 0h-2.246v-.75h2.246zm-4.492 0h-2.246v-.75h2.246zm-4.492 0h-2.246v-.75h2.246zm-4.492 0h-2.246v-.75h2.246zm-4.492 0h-2.246v-.75h2.246zm-4.496 0h-2.246v-.75h2.246zm-4.492 0h-2.246v-.75h2.246zm-4.492 0h-2.246v-.75h2.246zm-4.492 0h-2.246v-.75h2.246zm-4.492 0h-2.246v-.75h2.246zm-4.492 0h-2.246v-.75h2.246zm-4.492 0h-2.25v-.75h2.25zm-4.496 0h-2.246v-.75h2.246zm-4.492 0h-2.246v-.75h2.246zm-4.492 0h-2.246v-.75h2.246zm-4.492 0h-1.23c-.363 0-.723-.035-1.078-.102l.137-.734c.313.055.625.086.941.086h1.23zm-4.504-.937a9.38 9.38 0 0 1-1.844-1.445l.527-.531c.551.543 1.113.988 1.695 1.328zm-3.352-3.238a19.11 19.11 0 0 1-1.184-1.918l.656-.355c.359.664.742 1.277 1.137 1.84zm-2.148-3.922l-.785-2.055.711-.238.762 2zm-1.453-4.277l-.539-2.34.734-.145.527 2.293zm-.906-4.48l-.266-2.227.746-.07.262 2.191zm-.426-4.535l-.047-2.184v-.187h.746v.188l.051 2.148zm.019-4.734l.176-2.293.746.074-.176 2.258zm.457-4.512l.387-2.141.73.152-.375 2.102zm.953-4.496l.688-2.199.707.25-.672 2.148zm1.488-4.227l1.008-2.016.652.367c-.344.609-.668 1.262-.977 1.953zm2.238-3.914c.492-.66 1.004-1.238 1.539-1.734l.512.547c-.504.469-.988 1.012-1.449 1.633zm3.445-3.113c.734-.387 1.484-.625 2.25-.719l.09.746c-.672.078-1.336.293-1.988.637zm4.539-.758h2.25v.746h-2.25zm4.496 0h2.246v.746h-2.246zm4.492 0h2.246v.746h-2.246zm4.492 0h2.246v.746h-2.246zm4.492 0h2.246v.746h-2.246zm4.492 0h2.246v.746h-2.246zm4.492 0h2.246v.746h-2.246zm4.492 0h2.25v.746h-2.25zm4.496 0h2.246v.746h-2.246zm4.492 0h2.246v.746h-2.246zm4.492 0h2.246v.746h-2.246zm4.492 0h2.246v.746h-2.246zm4.492 0h2.246v.746h-2.246zm4.492 0h2.246v.746h-2.246zm4.496 0h2.246v.746H199zm4.492 0h2.246v.746h-2.246zm4.492 0h2.246v.746h-2.246zm4.492 0h2.246v.746h-2.246zm4.492 0h2.246v.746h-2.246zm4.492 0h2.246v.746h-2.246zm4.492 0h2.25v.746h-2.25zm4.496 0h2.246v.746h-2.246zm4.492 0h2.246v.746h-2.246zm4.492 0h2.246v.746h-2.246zm4.492 0h2.246v.746h-2.246zm4.492 0h2.246v.746h-2.246zm4.492 0h2.246v.746h-2.246zm4.496 0h2.246v.746h-2.246zm4.492 0h2.246v.746h-2.246zm4.492 0h2.246v.746h-2.246zm4.492 0h2.246v.746h-2.246zm4.492 0h2.246v.746h-2.246zm4.492 0h2.246v.746h-2.246zm4.492 0h2.246v.746h-2.246zm4.496 0h2.246v.746h-2.246zm4.492 0h2.246v.746h-2.246zm4.492 0h2.246v.746h-2.246zm4.492 0h2.246v.746h-2.246zm4.492 0h2.246v.746h-2.246zm4.492 0h2.246v.746h-2.246zm4.492 0h2.25v.746h-2.25zm2.461 0a6.11 6.11 0 0 1 2.344.473l-.285.691c-.676-.277-1.363-.418-2.059-.418zm0 0"/><path d="M318.27 293.288c-.793 0-1.574-.16-2.344-.477l.285-.691c.676.277 1.363.418 2.059.418zm-4.344-1.687c-.562-.457-1.102-1-1.621-1.629l.578-.477a11.16 11.16 0 0 0 1.512 1.523zm-2.945-3.504a21.17 21.17 0 0 1-1.094-2.035l.676-.32a21.13 21.13 0 0 0 1.055 1.969zm-1.926-4.008l-.723-2.152.719-.211.703 2.098zm-1.328-4.465l-.434-2.211.738-.125.426 2.172zm-.746-4.402l-.211-2.273.75-.051.203 2.238zm-.309-4.621l-.008-.883.023-1.496.746.023-.023 1.465.012.887zm.141-4.703l.238-2.254.742.098-.234 2.215zm.574-4.422l.484-2.273.727.18-.477 2.227zm1.117-4.547l.75-2.105.695.277-.73 2.055zm1.633-4.074a20.25 20.25 0 0 1 1.145-2.004l.629.41a18.79 18.79 0 0 0-1.105 1.93zm2.555-3.848c.551-.613 1.125-1.129 1.723-1.551l.43.613c-.547.387-1.082.867-1.598 1.441zm3.813-2.598c.582-.18 1.172-.266 1.766-.266v.746a5.27 5.27 0 0 0-1.547.234zm26.819 70.613v-1.496h1.496v1.496m-1.496-5.988v-1.5h1.496v1.5m-1.496-5.992v-1.496h1.496v1.496m-1.496-5.988v-1.5h1.496v1.5m-1.496-5.992v-1.496h1.496v1.496m-1.496-5.992v-1.496h1.496v1.496m-1.496-5.988v-1.496h1.496v1.496m-1.496-5.992v-1.496h1.496v1.496m-1.496-5.988v-1.496h1.496v1.496m-1.496-5.992v-1.496h1.496v1.496m-1.496-5.988v-1.5h1.496v1.5m-1.496-5.992v-1.496h1.496v1.496m-1.496-5.988v-1.5h1.496v1.5m-1.496-5.992v-1.496h1.496v1.496m-1.496-5.988v-1.5h1.496v1.5m-1.496-5.992v-1.496h1.496v1.496m-1.496-5.988v-1.5h1.496v1.5m-1.496-5.992v-1.496h1.496v1.496m-1.496-5.988v-1.5h1.496v1.5m-1.496-5.992v-1.496h1.496v1.496m-1.496-5.992v-1.496h1.496v1.496m-1.496-5.988v-1.496h1.496v1.496m-1.496-5.992v-1.496h1.496v1.496m-1.496-5.988v-1.5h1.496v1.5m-1.496-5.992v-1.496h1.496v1.496m-1.496-5.988v-1.5h1.496v1.5m-1.496-5.992v-1.496h1.496v1.496m-1.496-5.988v-1.5h1.496v1.5m-1.496-5.992v-1.496h1.496v1.496m-1.496-5.988v-1.5h1.496v1.5m-1.496-5.992v-1.496h1.496v1.496m-1.496-5.988v-1.5h1.496v1.5m-1.496-5.992v-1.496h1.496v1.496m-1.496-5.988v-1.5h1.496v1.5m-1.496-5.992v-1.496h1.496v1.496m-1.496-5.992v-1.496h1.496v1.496m-1.496-5.988v-1.496h1.496v1.496m-1.496-5.992V93.89h1.496v1.496m-1.496-5.988v-1.5h1.496v1.5m-1.496-5.992V81.91h1.496v1.496m-1.496-5.988v-1.5h1.496v1.5m-1.496-5.992V69.93h1.496v1.496m-1.496-5.988v-1.5h1.496v1.5m-1.496-5.992V57.94h1.496v1.496m-1.496-5.988v-1.5h1.496v1.5m-1.496-5.992V45.96h1.496v1.496m-1.496-5.988v-1.5h1.496v1.5m-1.496-5.992V33.98h1.496v1.496m-1.496-5.988v-1.5h1.496v1.5m-1.496-5.992V22h1.496v1.496m-1.496-5.992v-1.496h1.496v1.496m-1.496-5.988V10.02h1.496v1.496"/></g><g stroke="#82b366" class="E"><path d="M399.109 36.6h20.219c4.992 0 9.648 1.246 13.973 3.742l42.187 24.383" class="B C"/><path fill="#82b366" d="M399.109 36.6a2.25 2.25 0 0 1-.172.859c-.113.273-.273.516-.484.727a2.2 2.2 0 0 1-.73.488c-.273.113-.562.172-.859.172s-.586-.059-.859-.172a2.2 2.2 0 0 1-.73-.488c-.211-.211-.371-.453-.484-.727a2.25 2.25 0 0 1-.172-.859 2.22 2.22 0 0 1 .172-.859 2.19 2.19 0 0 1 .484-.73 2.2 2.2 0 0 1 .73-.488 2.23 2.23 0 0 1 .859-.168 2.23 2.23 0 0 1 .859.168 2.2 2.2 0 0 1 .73.488 2.19 2.19 0 0 1 .484.73 2.22 2.22 0 0 1 .172.859zm0 0"/></g><path fill="#d5e8d4" d="M396.863 36.6l-.09 1.832c-.059.613-.148 1.219-.27 1.82l-.445 1.781-.621 1.73-.785 1.66-.945 1.574c-.34.512-.703 1-1.094 1.477s-.801.926-1.234 1.359l-1.359 1.234c-.473.391-.965.754-1.477 1.094l-1.574.945-1.66.785-1.73.621-1.781.445-1.82.27-1.832.09a19.19 19.19 0 0 1-1.836-.09l-1.816-.27-1.781-.445-1.73-.621-1.66-.785a18.93 18.93 0 0 1-1.578-.945l-1.473-1.094a17.74 17.74 0 0 1-1.363-1.234l-1.234-1.359-1.094-1.477-.945-1.574-.785-1.66c-.234-.566-.441-1.145-.617-1.73s-.328-1.184-.449-1.781l-.27-1.82-.09-1.832.09-1.836.27-1.816.449-1.785a18.16 18.16 0 0 1 .617-1.727l.785-1.66a18.93 18.93 0 0 1 .945-1.578l1.094-1.477 1.234-1.359 1.363-1.234 1.473-1.094 1.578-.945 1.66-.785 1.73-.617c.586-.18 1.18-.328 1.781-.449l1.816-.27 1.836-.09 1.832.09 1.82.27 1.781.449c.586.176 1.164.383 1.73.617l1.66.785 1.574.945c.512.34 1.004.707 1.477 1.094l1.359 1.234 1.234 1.359 1.094 1.477c.344.512.656 1.035.945 1.578s.551 1.094.785 1.66l.621 1.727.445 1.785a17.86 17.86 0 0 1 .27 1.816l.09 1.836zm0 0"/><path fill="#82b366" d="M387.938 48.116l-4.727-4.637-1.922 1.961-1.469-7.066 7.121 1.309-1.91 1.949 4.727 4.625zm-10.602-8.992l-4.629 4.723 1.961 1.926-7.066 1.469 1.309-7.117 1.941 1.902 4.633-4.715zm-8.91-14.078l4.723 4.633 1.918-1.961 1.473 7.07-7.121-1.312 1.91-1.937-4.723-4.637zm10.398 8.941l4.637-4.727-1.965-1.926 7.07-1.465-1.309 7.113-1.941-1.91-4.633 4.73zm-.68-16.109c-10.336 0-18.723 8.387-18.723 18.723s8.387 18.719 18.723 18.719A18.73 18.73 0 0 0 396.863 36.6c0-10.336-8.387-18.723-18.719-18.723zm0 .473a18.25 18.25 0 0 1 18.246 18.25c0 10.078-8.168 18.246-18.246 18.246s-18.25-8.168-18.25-18.246 8.172-18.25 18.25-18.25zm0 0"/><path d="M352.309 60.186h51.668v21.715h-51.668zm0 0" class="D"/><g transform="translate(-111.98 -152.517)"><use href="#Y" x="466.355" y="220.939"/><use href="#Z" x="471.765" y="220.939"/><use href="#Z" x="476.806" y="220.939"/><use href="#a" x="481.848" y="220.939"/><use href="#b" x="487.85" y="220.939"/><use href="#c" x="493.404" y="220.939"/><use href="#d" x="498.832" y="220.939"/><use href="#e" x="504.347" y="220.939"/><use href="#Z" x="507.519" y="220.939"/><use href="#a" x="512.56" y="220.939"/><use href="#f" x="473.141" y="231.423"/><use href="#g" x="478.828" y="231.423"/><use href="#h" x="483.759" y="231.423"/><use href="#i" x="488.897" y="231.423"/><use href="#i" x="494.035" y="231.423"/><use href="#j" x="499.172" y="231.423"/><use href="#h" x="504.31" y="231.423"/></g><g class="C"><path stroke="#d6b656" d="M396.863 114.475l22.465.559c4.992.125 9.637-1.078 13.941-3.609l42.219-24.867" class="B E"/><g stroke="#666" class="F"><path d="M385.195 169.151c6.203 0 11.234 10.387 11.234 23.195 0 6.156-1.184 12.059-3.289 16.406s-4.965 6.793-7.945 6.793h-154.91c-6.199 0-11.23-10.387-11.23-23.199s5.031-23.195 11.23-23.195zm0 0" class="G"/><path d="M385.195 215.546c-6.199 0-11.23-10.387-11.23-23.199s5.031-23.195 11.23-23.195" class="B"/></g></g><g fill="#333" transform="translate(-111.98 -152.517)"><use href="#k" x="385.409" y="347.486"/><use href="#l" x="390.073" y="347.486"/><use href="#m" x="397.545" y="347.486"/><use href="#n" x="403.051" y="347.486"/><use href="#o" x="408.049" y="347.486"/><use href="#p" x="412.327" y="347.486"/><use href="#q" x="417.043" y="347.486"/><use href="#n" x="422.558" y="347.486"/><use href="#d" x="427.556" y="347.486"/><use href="#r" x="433.071" y="347.486"/></g><path fill="#fff2cc" d="M314.496 114.475l-.09 1.832-.27 1.816-.445 1.785-.621 1.727-.785 1.664-.945 1.574-1.094 1.477a18.45 18.45 0 0 1-1.234 1.359l-1.359 1.234-1.477 1.094-1.574.945-1.66.785-1.73.617a18.86 18.86 0 0 1-1.781.449l-1.82.27-1.832.09a19.16 19.16 0 0 1-1.836-.09l-1.816-.27-1.785-.449a18.16 18.16 0 0 1-1.727-.617l-1.66-.785a18.93 18.93 0 0 1-1.578-.945l-1.477-1.094-1.359-1.234-1.234-1.359-1.094-1.477-.945-1.574-.785-1.664-.617-1.727c-.18-.59-.328-1.184-.449-1.785l-.27-1.816-.09-1.832.09-1.836.27-1.816.449-1.785a18.16 18.16 0 0 1 .617-1.727l.785-1.664.945-1.574 1.094-1.477 1.234-1.359 1.359-1.234 1.477-1.094 1.578-.945 1.66-.785 1.727-.617 1.785-.449 1.816-.27 1.836-.09 1.832.09 1.82.27 1.781.449c.586.176 1.164.383 1.73.617l1.66.785 1.574.945c.512.34 1 .703 1.477 1.094l1.359 1.234 1.234 1.359 1.094 1.477.945 1.574.785 1.664.621 1.727.445 1.785.27 1.816.09 1.836zm0 0"/><path d="M305.57 125.991l-4.727-4.637-1.922 1.961-1.469-7.066 7.121 1.309-1.91 1.949 4.727 4.625zm-10.602-8.992l-4.629 4.723 1.961 1.926-7.066 1.465 1.309-7.113 1.941 1.902 4.633-4.715zm-8.914-14.078l4.727 4.633 1.918-1.961 1.473 7.07-7.121-1.312 1.91-1.937-4.723-4.637zm10.402 8.941l4.637-4.727-1.965-1.926 7.07-1.465-1.312 7.113-1.937-1.91-4.637 4.73zm-.68-16.109c-10.336 0-18.723 8.387-18.723 18.723s8.387 18.719 18.723 18.719a18.73 18.73 0 0 0 18.719-18.719c0-10.336-8.387-18.723-18.719-18.723zm0 .473a18.25 18.25 0 0 1 18.246 18.25c0 10.078-8.168 18.246-18.246 18.246a18.25 18.25 0 0 1-18.25-18.246 18.25 18.25 0 0 1 18.25-18.25zm0 0" class="H"/><path d="M269.941 138.061h51.668v21.715h-51.668zm0 0" class="D"/><g transform="translate(-111.98 -152.517)"><use href="#Y" x="383.988" y="298.814"/><use href="#Z" x="389.398" y="298.814"/><use href="#Z" x="394.439" y="298.814"/><use href="#a" x="399.48" y="298.814"/><use href="#b" x="405.482" y="298.814"/><use href="#c" x="411.037" y="298.814"/><use href="#d" x="416.464" y="298.814"/><use href="#e" x="421.979" y="298.814"/><use href="#Z" x="425.151" y="298.814"/><use href="#a" x="430.192" y="298.814"/><use href="#f" x="390.774" y="309.297"/><use href="#g" x="396.46" y="309.297"/><use href="#h" x="401.392" y="309.297"/><use href="#i" x="406.529" y="309.297"/><use href="#s" x="411.667" y="309.297"/><use href="#t" x="416.805" y="309.297"/><use href="#t" x="421.942" y="309.297"/></g><g stroke="#d79b00" class="E"><path d="M181.957 192.346h37.098" class="B C"/><path fill="#d79b00" d="M181.957 192.346a2.25 2.25 0 0 1-.168.863 2.29 2.29 0 0 1-.488.727 2.2 2.2 0 0 1-.73.488 2.22 2.22 0 0 1-.859.172 2.25 2.25 0 0 1-.859-.172c-.273-.113-.516-.277-.727-.488s-.375-.453-.488-.727-.172-.562-.172-.863a2.25 2.25 0 0 1 .172-.859c.113-.273.277-.516.488-.727s.453-.375.727-.488a2.25 2.25 0 0 1 .859-.172 2.22 2.22 0 0 1 .859.172 2.2 2.2 0 0 1 .73.488 2.29 2.29 0 0 1 .488.727c.113.277.168.563.168.859zm0 0"/></g><path fill="#e1d5e7" d="M97.344 269.714l-.09 1.836a17.86 17.86 0 0 1-.27 1.816c-.117.602-.27 1.195-.445 1.781l-.621 1.73-.785 1.66-.941 1.578-1.098 1.473a17.69 17.69 0 0 1-1.23 1.363c-.434.434-.887.844-1.363 1.234l-1.477 1.094a17.82 17.82 0 0 1-1.574.941l-1.66.789-1.73.617a17.45 17.45 0 0 1-1.781.445 17.86 17.86 0 0 1-1.816.27 18 18 0 0 1-1.836.09 18 18 0 0 1-1.836-.09 17.86 17.86 0 0 1-1.816-.27 17.45 17.45 0 0 1-1.781-.445l-1.73-.617c-.566-.234-1.121-.5-1.66-.789a17.27 17.27 0 0 1-1.574-.941c-.512-.34-1.004-.707-1.477-1.094l-1.363-1.234-1.234-1.363-1.094-1.473-.941-1.578-.789-1.66c-.234-.566-.437-1.145-.617-1.73s-.328-1.18-.445-1.781-.211-1.207-.27-1.816a18 18 0 0 1-.09-1.836l.09-1.836c.059-.609.148-1.215.27-1.816s.266-1.195.445-1.781l.617-1.73.789-1.66.941-1.574 1.094-1.477 1.234-1.363a17.69 17.69 0 0 1 1.363-1.23 18.53 18.53 0 0 1 1.477-1.098 18.21 18.21 0 0 1 1.574-.941l1.66-.785 1.73-.621 1.781-.445c.602-.121 1.207-.211 1.816-.27a18 18 0 0 1 1.836-.09l1.836.09c.609.059 1.215.148 1.816.27s1.195.27 1.781.445l1.73.621 1.66.785 1.574.941 1.477 1.098a17.69 17.69 0 0 1 1.363 1.23 18.45 18.45 0 0 1 1.23 1.363 18.53 18.53 0 0 1 1.098 1.477 18.82 18.82 0 0 1 .941 1.574c.289.539.551 1.094.785 1.66a18.26 18.26 0 0 1 .621 1.73l.445 1.781a17.86 17.86 0 0 1 .27 1.816c.063.613.09 1.223.09 1.836zm0 0"/><path fill="#9673a6" d="M88.418 281.222l-4.723-4.625-1.926 1.961-1.469-7.078 7.121 1.32-1.906 1.938 4.723 4.637zm-10.602-8.984l-4.629 4.727 1.965 1.914-7.07 1.477 1.309-7.113 1.941 1.902 4.633-4.727zm-8.91-14.078l4.723 4.629 1.918-1.953 1.477 7.066-7.121-1.309 1.91-1.949-4.727-4.625zm10.398 8.934l4.637-4.723-1.961-1.926 7.066-1.469-1.309 7.121-1.941-1.91-4.633 4.727zm-.68-16.098c-10.332 0-18.719 8.379-18.719 18.711 0 10.34 8.387 18.727 18.719 18.727s18.719-8.387 18.719-18.727c0-10.332-8.387-18.711-18.719-18.711zm0 .473c10.078 0 18.25 8.16 18.25 18.238a18.25 18.25 0 1 1-36.5 0c0-10.078 8.172-18.238 18.25-18.238zm0 0"/><path d="M52.793 293.061h51.664v21.715H52.793zm364.856 7.628h47.723v10.016h-47.723zm0 0" class="D"/><g transform="translate(-111.98 -152.517)"><use href="#Y" x="166.837" y="453.815"/><use href="#Z" x="172.247" y="453.815"/><use href="#Z" x="177.288" y="453.815"/><use href="#a" x="182.329" y="453.815"/><use href="#b" x="188.331" y="453.815"/><use href="#c" x="193.886" y="453.815"/><use href="#d" x="199.313" y="453.815"/><use href="#e" x="204.828" y="453.815"/><use href="#Z" x="208" y="453.815"/><use href="#a" x="213.042" y="453.815"/><use href="#f" x="173.623" y="464.298"/><use href="#g" x="179.309" y="464.298"/><use href="#h" x="184.241" y="464.298"/><use href="#u" x="189.378" y="464.298"/><use href="#u" x="194.516" y="464.298"/><use href="#v" x="199.654" y="464.298"/><use href="#h" x="204.792" y="464.298"/></g><g stroke="#9673a6" class="E"><path d="M99.59 269.714h28.426" class="B C"/><path fill="#9673a6" d="M99.59 269.714a2.23 2.23 0 0 1-.168.859 2.26 2.26 0 0 1-.488.73 2.19 2.19 0 0 1-.73.484 2.15 2.15 0 0 1-.859.172 2.18 2.18 0 0 1-.859-.172c-.273-.113-.516-.273-.727-.484a2.2 2.2 0 0 1-.488-.73c-.113-.273-.172-.562-.172-.859s.059-.586.172-.859a2.24 2.24 0 0 1 .488-.73c.211-.207.453-.371.727-.484a2.25 2.25 0 0 1 .859-.172 2.22 2.22 0 0 1 .859.172 2.25 2.25 0 0 1 .73.484c.211.211.371.457.488.73a2.23 2.23 0 0 1 .168.859zm0 0"/></g><path fill="#ffe6cc" d="M179.711 192.347l-.09 1.836c-.059.609-.148 1.215-.27 1.816s-.266 1.195-.445 1.785l-.617 1.727-.785 1.664-.945 1.574-1.094 1.477-1.234 1.359a18.59 18.59 0 0 1-1.363 1.234c-.473.391-.965.754-1.473 1.094l-1.578.945c-.539.289-1.094.551-1.66.785l-1.73.617a18.56 18.56 0 0 1-1.781.449l-1.816.27-1.836.09a19.22 19.22 0 0 1-1.836-.09l-1.816-.27-1.781-.449c-.586-.176-1.164-.383-1.73-.617l-1.66-.785-1.574-.945c-.512-.34-1.004-.703-1.477-1.094l-1.363-1.234-1.23-1.359-1.098-1.477-.941-1.574-.785-1.664-.621-1.727-.445-1.785a17.86 17.86 0 0 1-.27-1.816 18 18 0 0 1-.09-1.836l.09-1.832c.059-.609.148-1.219.27-1.816s.27-1.195.445-1.785l.621-1.727.785-1.664.941-1.574 1.098-1.477a18.39 18.39 0 0 1 1.23-1.359l1.363-1.234a17.58 17.58 0 0 1 1.477-1.094l1.574-.945 1.66-.785 1.73-.617c.586-.18 1.18-.328 1.781-.449l1.816-.27 1.836-.09 1.836.09 1.816.27 1.781.449c.586.176 1.164.383 1.73.617l1.66.785a18.93 18.93 0 0 1 1.578.945l1.473 1.094 1.363 1.234 1.234 1.359 1.094 1.477.945 1.574.785 1.664.617 1.727c.18.59.328 1.184.445 1.785a17.7 17.7 0 0 1 .27 1.816c.063.609.09 1.223.09 1.832zm0 0"/><path fill="#d79b00" d="M170.785 203.866l-4.723-4.637-1.926 1.961-1.469-7.066 7.121 1.309-1.906 1.949 4.723 4.625zm-10.602-8.996l-4.629 4.727 1.965 1.926-7.07 1.465 1.313-7.113 1.938 1.902 4.637-4.715zm-8.91-14.074l4.723 4.633 1.918-1.961 1.477 7.07-7.121-1.312 1.91-1.937-4.727-4.637zm10.402 8.938l4.633-4.723-1.961-1.926 7.066-1.465-1.309 7.113-1.941-1.91-4.633 4.73zm-.684-16.105a18.73 18.73 0 0 0-18.719 18.719c0 10.336 8.387 18.723 18.719 18.723s18.719-8.387 18.719-18.723a18.73 18.73 0 0 0-18.719-18.719zm0 .473c10.078 0 18.25 8.168 18.25 18.246s-8.172 18.25-18.25 18.25a18.25 18.25 0 0 1-18.246-18.25c0-10.078 8.168-18.246 18.246-18.246zm0 0"/><path d="M135.16 215.936h51.664v21.715H135.16zM0 0h119.214v26.704H0zm417.845 1.201h45.702v9.86h-45.702zm0 0" class="D"/><g transform="translate(-111.98 -152.517)"><use href="#Y" x="249.205" y="376.689"/><use href="#Z" x="254.614" y="376.689"/><use href="#Z" x="259.656" y="376.689"/><use href="#a" x="264.697" y="376.689"/><use href="#b" x="270.699" y="376.689"/><use href="#c" x="276.253" y="376.689"/><use href="#d" x="281.681" y="376.689"/><use href="#e" x="287.196" y="376.689"/><use href="#Z" x="290.368" y="376.689"/><use href="#a" x="295.409" y="376.689"/><use href="#f" x="255.991" y="387.172"/><use href="#g" x="261.677" y="387.172"/><use href="#h" x="266.608" y="387.172"/><use href="#u" x="271.746" y="387.172"/><use href="#l" x="276.884" y="387.172"/><use href="#w" x="282.021" y="387.172"/><use href="#w" x="287.159" y="387.172"/></g><g stroke="#d6b656" class="E"><path d="M316.742 114.475h42.68" class="B C"/><path d="M316.742 114.475a2.25 2.25 0 0 1-.172.859c-.113.273-.277.516-.484.727a2.24 2.24 0 0 1-.73.488c-.273.113-.562.172-.859.172s-.586-.059-.859-.172a2.2 2.2 0 0 1-.73-.488c-.211-.211-.371-.453-.484-.727a2.18 2.18 0 0 1-.172-.859c0-.301.055-.586.172-.863s.273-.516.484-.727a2.2 2.2 0 0 1 .73-.488c.273-.113.563-.172.859-.172s.586.059.859.172a2.24 2.24 0 0 1 .73.488c.207.211.371.453.484.727s.172.562.172.863zm0 0" class="H"/></g><path fill="#fff2cc" d="M361.723 95.753a2.3 2.3 0 0 0-2.301 2.285v32.871a2.3 2.3 0 0 0 2.301 2.285h32.844a2.3 2.3 0 0 0 2.297-2.285V98.038a2.3 2.3 0 0 0-2.297-2.285zm0 0"/><path d="M376.93 126.097v-2.988h-7.937v-2.352l-6.762 3.984 6.762 3.93v-2.574zm3.699-14.273v-2.98h-7.93v-2.359l-6.762 3.992 6.762 3.922v-2.574zm-4.449 7.188v-2.98h7.938v-2.359l6.754 3.992-6.754 3.934v-2.586zm3.43-14.031v-2.98h7.93v-2.352l6.762 3.984-6.762 3.93v-2.582zm-17.887-9.227a2.3 2.3 0 0 0-2.301 2.285v32.871a2.3 2.3 0 0 0 2.301 2.285h32.844a2.3 2.3 0 0 0 2.297-2.285V98.038a2.3 2.3 0 0 0-2.297-2.285zm0 1.035h32.844c.711 0 1.262.547 1.262 1.25v32.871c0 .703-.551 1.25-1.262 1.25h-32.844c-.711 0-1.266-.547-1.266-1.25V98.038c0-.703.555-1.25 1.266-1.25zm0 0" class="H"/><path d="M357.551 138.061h41.184v21.715h-41.184zm0 0" class="D"/><g transform="translate(-111.98 -152.517)"><use href="#Y" x="471.983" y="298.814"/><use href="#Z" x="477.393" y="298.814"/><use href="#Z" x="482.434" y="298.814"/><use href="#a" x="487.475" y="298.814"/><use href="#k" x="493.477" y="298.814"/><use href="#f" x="498.141" y="298.814"/><use href="#x" x="503.827" y="298.814"/><use href="#f" x="473.141" y="309.297"/><use href="#g" x="478.828" y="309.297"/><use href="#h" x="483.759" y="309.297"/><use href="#i" x="488.897" y="309.297"/><use href="#s" x="494.035" y="309.297"/><use href="#t" x="499.172" y="309.297"/><use href="#t" x="504.31" y="309.297"/><g fill="#666"><use href="#y" x="530.325" y="462.052"/><use href="#z" x="533.248" y="462.052"/><use href="#AA" x="542.021" y="462.052"/><use href="#AB" x="548.333" y="462.052"/><use href="#AA" x="554.664" y="462.052"/><use href="#AC" x="563.699" y="462.052"/><use href="#AD" x="570.471" y="462.052"/></g></g><g stroke="#666" class="C F"><path d="M208.414 250.995c6.199 0 11.23 8.379 11.23 18.719 0 4.965-1.184 9.727-3.285 13.238-2.113 3.512-4.965 5.48-7.945 5.48h-69.168c-6.199 0-11.23-8.379-11.23-18.719s5.031-18.719 11.23-18.719zm0 0" class="G"/><path d="M208.414 288.432c-6.199 0-11.23-8.379-11.23-18.719s5.031-18.719 11.23-18.719" class="B"/></g><g fill="#333" transform="translate(-111.98 -152.517)"><use href="#k" x="251" y="424.612"/><use href="#l" x="255.664" y="424.612"/><use href="#m" x="263.136" y="424.612"/><use href="#n" x="268.643" y="424.612"/><use href="#o" x="273.64" y="424.612"/><use href="#p" x="277.918" y="424.612"/><use href="#q" x="282.634" y="424.612"/><use href="#n" x="288.149" y="424.612"/><use href="#d" x="293.147" y="424.612"/><use href="#r" x="298.662" y="424.612"/></g><g stroke="#666" class="C F"><path d="M383.324 246.514c6.199 0 11.234 10.387 11.234 23.199 0 6.156-1.184 12.055-3.289 16.406-2.113 4.352-4.965 6.793-7.945 6.793H203.141c-6.199 0-11.23-10.387-11.23-23.199s5.031-23.199 11.23-23.199zm0 0" class="G"/><path d="M383.324 292.913c-6.199 0-11.23-10.387-11.23-23.199s5.031-23.199 11.23-23.199" class="B"/></g><g fill="#333" transform="translate(-111.98 -152.517)"><use href="#k" x="370.433" y="424.612"/><use href="#l" x="375.097" y="424.612"/><use href="#m" x="382.569" y="424.612"/><use href="#n" x="388.076" y="424.612"/><use href="#o" x="393.073" y="424.612"/><use href="#p" x="397.351" y="424.612"/><use href="#q" x="402.067" y="424.612"/><use href="#n" x="407.582" y="424.612"/><use href="#d" x="412.58" y="424.612"/><use href="#r" x="418.095" y="424.612"/></g><g class="B C E"><path stroke="#9673a6" d="M475.488 242.518l-42.258 25.355c-4.277 2.562-8.91 3.848-13.902 3.848h-34.445"/><path stroke="#d79b00" d="M385.633 193.846h33.695c4.992 0 9.668 1.211 14.031 3.637l42.129 23.402"/></g><path fill="#dae8fc" d="M29.953 294.933L0 25.366v269.566zm0 0"/><g transform="translate(-111.98 -152.517)" class="I"><use href="#M" x="113.105" y="162.533"/><use href="#N" x="120.696" y="162.533"/><use href="#C" x="126.89" y="162.533"/><use href="#O" x="133.38" y="162.533"/><use href="#B" x="139.303" y="162.533"/><use href="#D" x="143.853" y="162.533"/><use href="#P" x="150.185" y="162.533"/><use href="#Q" x="156.819" y="162.533"/><use href="#K" x="163.709" y="162.533"/><use href="#F" x="166.908" y="162.533"/><use href="#D" x="172.298" y="162.533"/><use href="#R" x="178.63" y="162.533"/><use href="#I" x="184.552" y="162.533"/><use href="#K" x="192.312" y="162.533"/><use href="#G" x="195.511" y="162.533"/><use href="#H" x="200.722" y="162.533"/><use href="#D" x="205.273" y="162.533"/><use href="#L" x="211.605" y="162.533"/><use href="#F" x="218.494" y="162.533"/><use href="#N" x="223.884" y="162.533"/><use href="#S" x="113.105" y="175.263"/><use href="#T" x="116.657" y="175.263"/><use href="#U" x="122.529" y="175.263"/><use href="#N" x="128.379" y="175.263"/><use href="#J" x="134.573" y="175.263"/><use href="#P" x="144.867" y="175.263"/><use href="#R" x="151.501" y="175.263"/><use href="#D" x="154.7" y="175.263"/><use href="#B" x="161.032" y="175.263"/><use href="#V" x="165.792" y="175.263"/><use href="#W" x="174.478" y="175.263"/><use href="#D" x="181.082" y="175.263"/><use href="#B" x="187.414" y="175.263"/><use href="#K" x="192.174" y="175.263"/><use href="#D" x="195.373" y="175.263"/><use href="#L" x="201.705" y="175.263"/><use href="#H" x="208.595" y="175.263"/><use href="#G" x="213.145" y="175.263"/><use href="#X" x="218.356" y="175.263"/></g><g stroke-width="2.995" stroke="#6c8ebf"><path d="M503.191 96.128v113.816" class="B C"/><path d="M505.437 93.882a2.23 2.23 0 0 1-.168.859 2.26 2.26 0 0 1-.488.73 2.19 2.19 0 0 1-.73.484 2.24 2.24 0 0 1-.859.172 2.25 2.25 0 0 1-.859-.172c-.273-.113-.52-.273-.727-.484a2.2 2.2 0 0 1-.488-.73c-.113-.273-.172-.562-.172-.859s.059-.586.172-.859a2.2 2.2 0 0 1 .488-.73c.207-.211.453-.371.727-.484a2.25 2.25 0 0 1 .859-.172c.297 0 .586.059.859.172a2.19 2.19 0 0 1 .73.484 2.26 2.26 0 0 1 .488.73 2.23 2.23 0 0 1 .168.859zm0 118.308a2.22 2.22 0 0 1-.168.859 2.26 2.26 0 0 1-1.219 1.219 2.23 2.23 0 0 1-.859.168c-.297 0-.582-.055-.859-.168s-.52-.277-.727-.488a2.2 2.2 0 0 1-.488-.73 2.22 2.22 0 0 1-.172-.859 2.25 2.25 0 0 1 .172-.859c.113-.273.277-.516.488-.727s.453-.375.727-.488a2.25 2.25 0 0 1 .859-.172c.297 0 .586.059.859.172a2.2 2.2 0 0 1 .73.488 2.28 2.28 0 0 1 .488.727c.117.274.168.563.168.859zm0 0" class="I"/><path d="M484.473 96.128v113.816" class="B C"/><path d="M486.719 93.882c0 .297-.059.586-.172.859a2.25 2.25 0 0 1-.484.73 2.23 2.23 0 0 1-.73.484c-.273.113-.562.172-.859.172s-.586-.059-.859-.172a2.19 2.19 0 0 1-1.215-1.215c-.117-.273-.172-.562-.172-.859s.055-.586.172-.859a2.19 2.19 0 0 1 1.215-1.215 2.24 2.24 0 0 1 1.718 0 2.23 2.23 0 0 1 .73.484 2.25 2.25 0 0 1 .484.73 2.24 2.24 0 0 1 .172.859zm0 118.308a2.22 2.22 0 0 1-.172.859 2.25 2.25 0 0 1-.484.73c-.211.211-.457.371-.73.488a2.23 2.23 0 0 1-.859.168 2.23 2.23 0 0 1-.859-.168 2.26 2.26 0 0 1-.73-.488 2.19 2.19 0 0 1-.484-.73 2.15 2.15 0 0 1-.172-.859 2.18 2.18 0 0 1 .172-.859c.113-.273.273-.516.484-.727a2.2 2.2 0 0 1 .73-.488 2.24 2.24 0 0 1 1.718 0 2.24 2.24 0 0 1 .73.488 2.27 2.27 0 0 1 .484.727 2.25 2.25 0 0 1 .172.859zm0 0" class="I"/></g><path fill="#fafafa" d="M477.785 56.815c-1.266 0-2.297 1.027-2.297 2.285v32.871c0 1.258 1.031 2.285 2.297 2.285h32.844c1.266 0 2.297-1.027 2.297-2.285V59.1c0-1.258-1.031-2.285-2.297-2.285zm0 0"/><path fill="#005073" d="M494.231 60.261l-3.137 4.484h2.078v4.77c-.91.16-1.781.52-2.535 1.066l-3.402-3.363 1.469-1.477-5.383-.98.996 5.383 1.465-1.473 3.402 3.367a6.01 6.01 0 0 0-1.02 2.465h-4.793v-2.066l-4.516 3.078 4.516 3.121v-2.074h4.785c.156.898.508 1.746 1.043 2.488l-3.395 3.375-1.473-1.461-.977 5.387 5.387-1.004-1.477-1.461 3.383-3.379a6.13 6.13 0 0 0 2.523 1.043v4.777h-2.078l3.137 4.484 3.09-4.484h-2.082v-4.77c.906-.156 1.762-.512 2.512-1.043l3.398 3.371-1.469 1.469 5.414.957-1.02-5.355-1.465 1.469-3.402-3.363a5.92 5.92 0 0 0 1.043-2.5h4.793v2.074l4.516-3.121-4.516-3.078v2.066h-4.785c-.156-.906-.523-1.758-1.062-2.508l3.391-3.379 1.469 1.469 1.004-5.359-5.406.973 1.465 1.465-3.383 3.379c-.742-.523-1.594-.867-2.496-1.02v-4.777h2.082zm-16.445-3.445c-1.266 0-2.297 1.027-2.297 2.285v32.871c0 1.258 1.031 2.285 2.297 2.285h32.844c1.266 0 2.297-1.027 2.297-2.285V59.1c0-1.258-1.031-2.285-2.297-2.285zm0 1.035h32.844c.711 0 1.266.547 1.266 1.25v32.871c0 .703-.555 1.25-1.266 1.25h-32.844c-.711 0-1.258-.547-1.258-1.25V59.1c0-.703.547-1.25 1.258-1.25zm0 0"/><path d="M465.379 99.124h57.656v10.484h-57.656zm0 0" class="D"/><g transform="translate(-111.98 -152.517)"><use href="#AF" x="579.868" y="259.877"/><use href="#AG" x="585.511" y="259.877"/><use href="#AG" x="590.819" y="259.877"/><use href="#AH" x="596.128" y="259.877"/><use href="#AI" x="600.209" y="259.877"/><use href="#AJ" x="602.951" y="259.877"/><use href="#AK" x="608.856" y="259.877"/><use href="#AL" x="616.267" y="259.877"/><use href="#AM" x="621.343" y="259.877"/><use href="#AN" x="627.543" y="259.877"/></g><path fill="#fafafa" d="M477.785 212.565c-1.266 0-2.297 1.027-2.297 2.285v32.871c0 1.258 1.031 2.285 2.297 2.285h32.844c1.266 0 2.297-1.027 2.297-2.285V214.85c0-1.258-1.031-2.285-2.297-2.285zm0 0"/><path fill="#005073" d="M494.231 216.011l-3.137 4.484h2.078v4.77a6.17 6.17 0 0 0-2.535 1.063l-3.402-3.359 1.469-1.477-5.383-.98.996 5.383 1.465-1.473 3.402 3.367a6.01 6.01 0 0 0-1.02 2.465h-4.793v-2.066l-4.516 3.078 4.516 3.121v-2.074h4.785a5.96 5.96 0 0 0 1.043 2.484l-3.395 3.379-1.473-1.461-.977 5.383 5.387-1-1.477-1.461 3.383-3.379c.758.531 1.617.891 2.523 1.043v4.777h-2.078l3.137 4.484 3.09-4.484h-2.082v-4.77a6.2 6.2 0 0 0 2.512-1.043l3.398 3.371-1.469 1.469 5.414.957-1.02-5.355-1.465 1.469-3.402-3.363a5.92 5.92 0 0 0 1.043-2.5h4.793v2.074l4.516-3.121-4.516-3.078v2.066h-4.785c-.156-.906-.523-1.762-1.062-2.508l3.391-3.379 1.469 1.469 1.004-5.363-5.406.977 1.465 1.465-3.383 3.379c-.742-.523-1.594-.867-2.496-1.02v-4.777h2.082zm-16.445-3.445c-1.266 0-2.297 1.027-2.297 2.285v32.871c0 1.258 1.031 2.285 2.297 2.285h32.844c1.266 0 2.297-1.027 2.297-2.285V214.85c0-1.258-1.031-2.285-2.297-2.285zm0 1.035h32.844c.711 0 1.266.547 1.266 1.25v32.871c0 .703-.555 1.25-1.266 1.25h-32.844c-.711 0-1.258-.547-1.258-1.25V214.85c0-.703.547-1.25 1.258-1.25zm0 0"/><path d="M465.379 254.874h57.656v10.48h-57.656zm0 0" class="D"/><g transform="translate(-111.98 -152.517)"><use href="#AF" x="579.868" y="415.626"/><use href="#AG" x="585.511" y="415.626"/><use href="#AG" x="590.819" y="415.626"/><use href="#AH" x="596.128" y="415.626"/><use href="#AI" x="600.209" y="415.626"/><use href="#AJ" x="602.951" y="415.626"/><use href="#AK" x="608.856" y="415.626"/><use href="#AL" x="616.267" y="415.626"/><use href="#AM" x="621.343" y="415.626"/><use href="#AN" x="627.543" y="415.626"/><g fill="#666"><use href="#y" x="530.325" y="162.533"/><use href="#z" x="533.248" y="162.533"/><use href="#AA" x="542.021" y="162.533"/><use href="#AB" x="548.333" y="162.533"/><use href="#AA" x="554.664" y="162.533"/><use href="#AC" x="563.699" y="162.533"/><use href="#AE" x="570.471" y="162.533"/></g></g><path fill="#666" d="M343.328 159.776l1.496.004-.004 1.496-1.496-.004m5.992-1.48l1.496.004-.004 1.496-1.496-.004m5.996-1.48h1.496l-.004 1.5-1.496-.004m5.992-1.484l1.496.004v1.5l-1.5-.004m5.996-1.484l1.496.004-.004 1.496h-1.496m5.992-1.484l1.5.004-.004 1.496-1.5-.004m5.996-1.48l1.496.004-.004 1.496-1.496-.004m5.992-1.48h1.5l-.004 1.5-1.5-.004m5.996-1.484l1.496.004-.004 1.5-1.496-.004m5.992-1.484l1.5.004-.004 1.496h-1.5m5.996-1.484l1.496.004-.004 1.496-1.496-.004m5.992-1.48l1.5.004-.004 1.496-1.5-.004m5.996-1.48l1.496.004-.004 1.496-1.496-.004m5.992-1.484l1.5.004-.004 1.5-1.5-.004m5.996-1.484l1.496.004-.004 1.5-1.496-.004m5.992-1.484l1.5.004-.004 1.496-1.496-.004m5.992-1.48l1.496.004-.004 1.496-1.496-.004m5.996-1.48l1.496.004-.004 1.496-1.496-.004m5.992-1.484l1.496.004-.004 1.5-1.496-.004m5.996-1.484l1.496.004-.004 1.5-1.496-.004m5.992-1.484l1.496.004v1.496l-1.5-.004m5.996-1.48l1.496.004-.004 1.496-1.496-.004m5.992-1.48l1.5.004-.004 1.496-1.5-.004m5.996-1.484l1.496.004-.004 1.5-1.496-.004m5.992-1.484l1.5.004-.004 1.5-1.5-.004m5.996-1.484l1.496.004-.004 1.496-1.496-.004m5.992-1.48l1.5.004-.004 1.496-1.5-.004m5.996-1.48l1.496.004-.004 1.496-1.496-.004m5.992-1.48h1.5l-.004 1.5-1.5-.004m5.996-1.484l1.496.004-.004 1.5-1.496-.004m5.992-1.484l1.5.004-.004 1.496h-1.5m5.996-1.484l1.496.004-.004 1.496-1.496-.004m5.992-1.48l1.5.004-.004 1.496-1.496-.004"/></svg>