<svg xmlns="http://www.w3.org/2000/svg" width="877.063" height="572.949" viewBox="0 0 657.797 429.712" xmlns:v="https://vecta.io/nano"><style><![CDATA[.B{fill:none}.C{stroke-miterlimit:10}.D{stroke-width:1.526}.E{fill:#fafafa}.F{fill:#005073}.G{stroke-width:.763}.H{stroke:#666}.I{fill:#82b366}.J{stroke:#82b366}.K{stroke:#d6b656}.L{fill:#d5e8d4}.M{fill:#d6b656}.N{fill:#f5f5f5}.O{fill:#333}.P{fill:#fff2cc}.Q{stroke-width:7.631}]]></style><defs><path d="M.766-7.344c0-.52.289-.781.875-.781.57 0 .859.262.859.781 0 .25-.074.445-.219.578s-.359.203-.641.203c-.586 0-.875-.258-.875-.781zM2.422 0H.828v-5.828h1.594zm0 0" id="A"/><path d="M2.031-2.984L.156-5.828h1.797l1.141 1.859 1.141-1.859h1.797L4.141-2.984 6.125 0H4.313L3.094-2 1.859 0H.047zm0 0" id="B"/><path d="M4.047.109c-.687 0-1.23-.25-1.625-.75h-.078l.078.844v2.359H.828v-8.391h1.297l.234.75h.063c.375-.57.926-.859 1.656-.859.688 0 1.223.266 1.609.797.395.531.594 1.273.594 2.219 0 .617-.094 1.156-.281 1.625-.18.461-.437.809-.781 1.047-.336.242-.727.359-1.172.359zm-.484-4.781c-.387 0-.672.125-.859.375-.18.242-.273.637-.281 1.188v.172c0 .625.094 1.074.281 1.344s.484.406.891.406c.707 0 1.063-.586 1.063-1.766 0-.57-.09-1-.266-1.281-.168-.289-.445-.437-.828-.437zm0 0" id="C"/><path d="M.313-2.219v-1.297h2.813v1.297zm0 0" id="D"/><path d="M4.094-5.937a2.45 2.45 0 0 1 .531.047l-.109 1.484c-.137-.031-.293-.047-.469-.047-.512 0-.914.133-1.203.391-.281.262-.422.625-.422 1.094V0H.828v-5.828h1.219l.234.969h.078c.176-.32.414-.582.719-.781.313-.195.648-.297 1.016-.297zm0 0" id="E"/><path d="M4.906-1.734c0 .605-.211 1.063-.625 1.375S3.242.109 2.422.109c-.43 0-.793-.031-1.094-.094-.305-.051-.586-.133-.844-.25v-1.312c.301.137.633.25 1 .344.375.094.703.141.984.141.57 0 .859-.164.859-.5 0-.125-.039-.223-.109-.297-.074-.082-.203-.172-.391-.266l-.75-.359c-.449-.187-.781-.359-1-.516-.211-.156-.359-.336-.453-.547s-.141-.461-.141-.766c0-.52.195-.922.594-1.203.406-.281.977-.422 1.719-.422.695 0 1.379.152 2.047.453l-.484 1.141a7.17 7.17 0 0 0-.828-.297c-.25-.082-.508-.125-.766-.125-.469 0-.703.125-.703.375 0 .148.07.273.219.375.156.105.488.262 1 .469.457.188.789.359 1 .516.219.156.375.34.469.547.102.211.156.461.156.75zm0 0" id="F"/><path d="M5.719-3.812c0 1.336-.219 2.324-.656 2.969-.437.637-1.109.953-2.016.953-.875 0-1.539-.328-1.984-.984C.613-1.539.391-2.52.391-3.812c0-1.344.211-2.332.641-2.969.438-.645 1.109-.969 2.016-.969.883 0 1.551.336 2 1s.672 1.648.672 2.938zm-3.734 0c0 .938.078 1.609.234 2.016.164.406.441.609.828.609.375 0 .645-.203.813-.609.164-.414.25-1.086.25-2.016 0-.937-.086-1.609-.25-2.016s-.437-.609-.812-.609-.648.203-.812.609-.25 1.078-.25 2.016zm0 0" id="G"/><path d="M4.422 0H2.797v-4.422l.016-.719.031-.797-.562.531-.875.703-.781-.969 2.469-1.953h1.328zm0 0" id="H"/><path d="M.609-.75c0-.289.078-.508.234-.656.156-.156.383-.234.688-.234.289 0 .516.078.672.234s.234.375.234.656-.086.5-.25.656c-.156.156-.375.234-.656.234-.293 0-.523-.078-.687-.234C.688-.25.609-.469.609-.75zm0 0" id="I"/><path d="M2.688.109c-.687 0-1.23-.266-1.625-.797C.676-1.227.484-1.969.484-2.906c0-.957.195-1.703.594-2.234s.941-.797 1.641-.797c.738 0 1.301.281 1.688.844h.047c-.074-.426-.109-.812-.109-1.156v-1.875h1.594V0H4.719l-.312-.75h-.062c-.367.574-.918.859-1.656.859zm.547-1.266c.406 0 .703-.117.891-.359.195-.238.305-.641.328-1.203v-.172c0-.625-.102-1.07-.297-1.344-.199-.281-.512-.422-.937-.422-.355 0-.633.152-.828.453s-.297.742-.297 1.313.098 1.008.297 1.297a.95.95 0 0 0 .844.438zm0 0" id="J"/><path d="M6.219 0H4.625v-3.406c0-.426-.074-.742-.219-.953s-.387-.312-.719-.312c-.449 0-.773.152-.969.453-.199.293-.297.781-.297 1.469V0H.828v-5.828h1.219l.219.734h.094c.176-.281.414-.488.719-.625.313-.145.672-.219 1.078-.219.676 0 1.188.184 1.531.547.352.367.531.898.531 1.594zm0 0" id="K"/><path d="M3.25-4.812c-.336 0-.602.109-.797.328-.187.211-.297.512-.328.906h2.234c0-.395-.105-.695-.312-.906-.199-.219-.465-.328-.797-.328zM3.469.109c-.937 0-1.672-.258-2.203-.781-.523-.52-.781-1.254-.781-2.203 0-.977.242-1.734.734-2.266s1.16-.797 2.016-.797c.832 0 1.477.234 1.938.703s.688 1.117.688 1.938v.781H2.094c.02.449.156.805.406 1.063.25.25.598.375 1.047.375.352 0 .688-.035 1-.109s.641-.191.984-.359v1.234c-.281.148-.586.25-.906.313-.312.07-.699.109-1.156.109zm0 0" id="L"/><path d="M3.297-1.156c.27 0 .602-.062 1-.187v1.188C3.898.02 3.41.109 2.828.109c-.637 0-1.102-.16-1.391-.484S1-1.18 1-1.828v-2.812H.25v-.672l.875-.531.453-1.234h1.016v1.25h1.641v1.188H2.594v2.813c0 .23.063.402.188.516.133.105.305.156.516.156zm0 0" id="M"/><path d="M5.766 0H.422v-1.125l1.922-1.937 1.109-1.203c.176-.227.301-.437.375-.625a1.67 1.67 0 0 0 .109-.594c0-.301-.086-.523-.25-.672-.168-.156-.391-.234-.672-.234-.293 0-.578.07-.859.203a4.38 4.38 0 0 0-.875.578L.406-6.641c.375-.32.688-.551.938-.687a3.1 3.1 0 0 1 .813-.297c.289-.07.613-.109.969-.109.477 0 .898.09 1.266.266.363.168.645.406.844.719.207.313.313.672.313 1.078 0 .355-.062.688-.187 1-.125.305-.32.617-.578.938-.25.324-.703.781-1.359 1.375l-.984.922v.078h3.328zm0 0" id="N"/><path d="M3.5-5.094a1.6 1.6 0 0 1 1.375.703c.344.461.516 1.086.516 1.875 0 .836-.18 1.48-.531 1.938-.344.449-.812.672-1.406.672-.586 0-1.043-.211-1.375-.641h-.094L1.75 0H.719v-6.953h1.359v1.609l-.047 1h.047c.32-.5.797-.75 1.422-.75zM3.063-4c-.344 0-.594.105-.75.313-.148.211-.227.547-.234 1.016v.156c0 .531.078.918.234 1.156.164.23.422.344.766.344.281 0 .504-.125.672-.375.164-.258.25-.641.25-1.141 0-.488-.09-.852-.266-1.094C3.566-3.875 3.344-4 3.063-4zm0 0" id="O"/><path d="M.656-6.297c0-.437.25-.656.75-.656.488 0 .734.219.734.656 0 .219-.062.387-.187.5s-.309.172-.547.172c-.5 0-.75-.223-.75-.672zM2.078 0H.719v-5h1.359zm0 0" id="P"/><path d="M3.5-5.094c.188 0 .344.016.469.047l-.109 1.281a1.47 1.47 0 0 0-.406-.047c-.43 0-.766.117-1.016.344-.242.219-.359.527-.359.922V0H.719v-5H1.75l.203.844h.063c.156-.281.363-.504.625-.672.27-.176.555-.266.859-.266zm0 0" id="Q"/><path d="M2.297.094C1.711.094 1.25-.133.906-.594.57-1.051.406-1.68.406-2.484c0-.82.172-1.461.516-1.922s.813-.687 1.406-.687c.633 0 1.113.246 1.438.734h.047c-.062-.375-.094-.707-.094-1v-1.594h1.359V0H4.031l-.266-.641h-.047c-.312.492-.789.734-1.422.734zM2.781-1c.344 0 .594-.098.75-.297.164-.207.258-.551.281-1.031v-.156c0-.531-.086-.91-.25-1.141-.168-.238-.437-.359-.812-.359a.79.79 0 0 0-.703.391c-.168.262-.25.637-.25 1.125s.082.859.25 1.109c.164.242.41.359.734.359zm0 0" id="R"/><path d="M4.828 0l-.484-1.562H1.969L1.5 0H0l2.313-6.562H4L6.313 0zm-.812-2.719l-.734-2.391-.125-.437c-.094.387-.375 1.328-.844 2.828zm0 0" id="S"/><path d="M2.078 0H.719v-6.953h1.359zm0 0" id="T"/><path d="M2.75.094C1.188.094.406-.758.406-2.469c0-.852.211-1.504.641-1.953s1.031-.672 1.813-.672c.582 0 1.102.117 1.563.344l-.406 1.047-.594-.203A1.77 1.77 0 0 0 2.859-4c-.711 0-1.062.508-1.062 1.516 0 .98.352 1.469 1.063 1.469.27 0 .516-.031.734-.094.227-.07.453-.187.672-.344v1.172c-.219.137-.445.23-.672.281-.219.063-.5.094-.844.094zm0 0" id="U"/><path d="M2.781-4.125c-.281 0-.508.094-.672.281-.168.18-.262.438-.281.781h1.906c0-.344-.09-.602-.266-.781-.168-.187-.398-.281-.687-.281zM2.984.094c-.812 0-1.449-.223-1.906-.672C.629-1.023.406-1.656.406-2.469c0-.832.207-1.477.625-1.937.426-.457 1.008-.687 1.75-.687.707 0 1.254.203 1.641.609.395.398.594.949.594 1.656v.672H1.797c.008.387.117.688.328.906.219.219.523.328.922.328.289 0 .57-.031.844-.094a4.29 4.29 0 0 0 .844-.297v1.047c-.242.125-.496.215-.766.266-.273.063-.602.094-.984.094zm0 0" id="V"/><path d="M.828 0v-6.531h1.375v5.391h2.656V0zm0 0" id="W"/><path d="M3.297-3.672h2.594v3.391c-.418.137-.812.23-1.187.281-.367.063-.742.094-1.125.094-.992 0-1.746-.289-2.266-.875s-.781-1.414-.781-2.5c0-1.051.301-1.867.906-2.453.602-.594 1.441-.891 2.516-.891a5.05 5.05 0 0 1 1.938.391l-.469 1.109a3.24 3.24 0 0 0-1.484-.359c-.594 0-1.074.203-1.437.609s-.547.949-.547 1.625c0 .711.145 1.25.438 1.625s.711.563 1.266.563c.289 0 .586-.031.891-.094v-1.359h-1.25zm0 0" id="X"/><path d="M3.953-1.344c0 .461-.172.813-.516 1.063S2.613.094 2 .094C1.352.094.848-.008.484-.219v-.687a3.96 3.96 0 0 0 .766.281 2.94 2.94 0 0 0 .781.109c.383 0 .68-.062.891-.187s.313-.316.313-.578c0-.187-.086-.348-.25-.484s-.492-.297-.969-.484c-.461-.164-.789-.312-.984-.437-.187-.125-.328-.266-.422-.422-.094-.164-.141-.363-.141-.594a1.09 1.09 0 0 1 .484-.937c.332-.227.781-.344 1.344-.344a4.01 4.01 0 0 1 1.547.313l-.266.609c-.492-.207-.934-.312-1.328-.312-.355 0-.621.059-.797.172s-.266.266-.266.453c0 .137.031.25.094.344a.87.87 0 0 0 .313.266c.156.086.445.203.875.359.57.211.961.422 1.172.641.207.211.313.477.313.797zm0 0" id="Y"/><path d="M3-4.328H1.75V0H1v-4.328H.125v-.328L1-4.922v-.281C1-6.398 1.523-7 2.578-7c.258 0 .566.055.922.156l-.203.594c-.281-.094-.523-.141-.719-.141-.281 0-.492.094-.625.281s-.203.484-.203.891v.313H3zm0 0" id="Z"/><path d="M3.063.094a2.24 2.24 0 0 1-.875-.172c-.262-.125-.48-.305-.656-.547h-.062c.039.281.063.555.063.813v2.016h-.75v-7.109h.609l.109.672h.031c.188-.258.406-.445.656-.562.258-.125.551-.187.875-.187.656 0 1.156.227 1.5.672.352.438.531 1.059.531 1.859s-.18 1.43-.531 1.875-.855.672-1.5.672zm-.109-4.453c-.5 0-.867.141-1.094.422-.219.273-.328.711-.328 1.313v.172c0 .688.113 1.184.344 1.484.227.293.598.438 1.109.438a1.14 1.14 0 0 0 .984-.516c.238-.344.359-.816.359-1.422s-.121-1.066-.359-1.391c-.242-.332-.578-.5-1.016-.5zm0 0" id="a"/><path d="M3.203 0h-.734v-4.656l.047-1.109-.219.203c-.074.074-.43.367-1.062.875l-.391-.516 1.734-1.328h.625zm0 0" id="b"/><path d="M4.75 0H.453v-.641l1.719-1.734L3.203-3.5c.164-.227.289-.445.375-.656.082-.219.125-.453.125-.703 0-.352-.105-.629-.312-.828C3.18-5.895 2.891-6 2.516-6a2.12 2.12 0 0 0-.781.141c-.242.086-.512.246-.812.484l-.391-.5c.602-.5 1.258-.75 1.969-.75.613 0 1.094.156 1.438.469.352.313.531.734.531 1.266 0 .418-.121.828-.359 1.234-.23.406-.664.918-1.297 1.531L1.375-.719v.031H4.75zm0 0" id="c"/><path d="M3.063-4.984c.645 0 1.145.227 1.5.672.352.438.531 1.059.531 1.859s-.18 1.43-.531 1.875-.855.672-1.5.672a2.24 2.24 0 0 1-.875-.172c-.262-.125-.48-.305-.656-.547h-.062L1.313 0H.781v-6.953h.75v1.688L1.5-4.25h.031c.344-.488.852-.734 1.531-.734zm-.109.625c-.5 0-.867.148-1.094.438-.219.293-.328.781-.328 1.469s.113 1.184.344 1.484c.227.293.598.438 1.109.438.445 0 .781-.164 1-.5.227-.332.344-.812.344-1.437 0-.633-.117-1.109-.344-1.422-.219-.312-.562-.469-1.031-.469zm0 0" id="d"/><path d="M5.016-2.453c0 .805-.203 1.43-.609 1.875-.398.449-.949.672-1.656.672-.437 0-.828-.102-1.172-.312S.969-.723.781-1.109c-.18-.383-.266-.832-.266-1.344 0-.801.195-1.422.594-1.859.406-.445.961-.672 1.672-.672.676 0 1.219.23 1.625.688.406.449.609 1.063.609 1.844zm-3.734 0c0 .625.125 1.105.375 1.438.25.324.617.484 1.109.484.477 0 .844-.16 1.094-.484.258-.332.391-.812.391-1.437s-.133-1.098-.391-1.422c-.25-.32-.621-.484-1.109-.484-.48 0-.844.164-1.094.484-.25.313-.375.789-.375 1.422zm0 0" id="e"/><path d="M4.141 0v-3.172c0-.395-.094-.691-.281-.891-.18-.195-.461-.297-.844-.297-.512 0-.887.141-1.125.422-.242.273-.359.727-.359 1.359V0h-.75v-4.906h.609l.125.672h.031c.156-.238.367-.422.641-.547.27-.133.578-.203.922-.203.582 0 1.02.141 1.313.422.301.281.453.734.453 1.359V0zm0 0" id="f"/><path d="M4.125-.656h-.047c-.344.5-.855.75-1.531.75-.648 0-1.148-.219-1.5-.656S.516-1.625.516-2.437c0-.801.176-1.426.531-1.875.363-.445.863-.672 1.5-.672.664 0 1.176.242 1.531.719h.047l-.031-.359-.016-.344v-1.984h.75V0h-.609zm-1.484.125c.5 0 .863-.133 1.094-.406.227-.281.344-.727.344-1.344v-.156c0-.695-.117-1.191-.344-1.484-.23-.301-.602-.453-1.109-.453-.437 0-.773.172-1 .516-.23.336-.344.813-.344 1.438S1.395-1.32 1.625-1c.227.313.566.469 1.016.469zm0 0" id="g"/><path d="M4.781-3.281c0 1.137-.184 1.984-.547 2.547-.355.555-.898.828-1.625.828C1.91.094 1.375-.191 1-.766.633-1.336.453-2.176.453-3.281c0-1.133.176-1.977.531-2.531s.895-.828 1.625-.828c.707 0 1.242.293 1.609.875.375.574.563 1.402.563 2.484zm-3.578 0c0 .961.109 1.656.328 2.094a1.13 1.13 0 0 0 1.078.641c.5 0 .859-.219 1.078-.656.219-.445.328-1.141.328-2.078s-.109-1.625-.328-2.062S3.109-6 2.609-6a1.13 1.13 0 0 0-1.078.656c-.219.43-.328 1.117-.328 2.063zm0 0" id="h"/><path d="M3.266-6.531L.828 0H.094l2.438-6.531zm0 0" id="i"/><path d="M3.016-4.984c.219 0 .414.016.594.047L3.5-4.25c-.199-.039-.375-.062-.531-.062-.398 0-.734.164-1.016.484s-.422.727-.422 1.203V0h-.75v-4.906h.625L1.484-4h.031a2.22 2.22 0 0 1 .656-.719 1.47 1.47 0 0 1 .844-.266zm0 0" id="j"/><path d="M1.484-4.906v3.188c0 .398.086.695.266.891.188.199.473.297.859.297.508 0 .883-.141 1.125-.422s.359-.738.359-1.375v-2.578h.734V0h-.609l-.109-.656h-.031c-.156.242-.371.43-.641.563-.273.125-.578.188-.922.188-.594 0-1.043-.141-1.344-.422C.879-.617.734-1.07.734-1.687v-3.219zm0 0" id="k"/><path d="M1.531 0h-.75v-4.906h.75zM.719-6.234c0-.164.039-.285.125-.359.082-.082.188-.125.313-.125s.227.043.313.125c.082.074.125.195.125.359s-.043.293-.125.375-.187.125-.312.125-.23-.039-.312-.125-.125-.207-.125-.375zm0 0" id="l"/><path d="M.672-.469c0-.207.047-.359.141-.453.094-.102.223-.156.391-.156.176 0 .313.055.406.156.094.094.141.246.141.453 0 .188-.047.336-.141.438s-.23.156-.406.156C1.055.125.93.078.828-.016S.672-.258.672-.469zm0 0" id="m"/><path d="M2.75.094c-.711 0-1.262-.219-1.656-.656C.707-1 .516-1.617.516-2.422c0-.812.195-1.441.594-1.891s.957-.672 1.688-.672a3.43 3.43 0 0 1 .703.078 2.05 2.05 0 0 1 .563.172l-.234.625c-.168-.062-.352-.113-.547-.156-.187-.039-.355-.062-.5-.062-1 0-1.5.637-1.5 1.906 0 .594.117 1.055.359 1.375.25.324.613.484 1.094.484.406 0 .82-.086 1.25-.266v.656c-.336.176-.746.266-1.234.266zm0 0" id="n"/><path d="M2.375-.516c.125 0 .25-.008.375-.031a2.12 2.12 0 0 0 .297-.062v.563c-.086.043-.203.07-.359.094-.156.031-.297.047-.422.047-.949 0-1.422-.5-1.422-1.5v-2.922H.141v-.359l.703-.297.313-1.047h.422v1.125H3v.578H1.578v2.891c0 .293.066.523.203.688.145.156.344.234.594.234zm0 0" id="o"/><path d="M1.531 0h-.75v-6.953h.75zm0 0" id="p"/><path d="M1.969-2.516L.266-4.906h.844l1.297 1.891 1.281-1.891h.844L2.828-2.516 4.609 0h-.844L2.406-1.984 1.016 0H.172zm0 0" id="q"/><path d="M.375-2.109v-.687h2.203v.688zm0 0" id="r"/><path d="M7.031 0v-3.187c0-.383-.086-.676-.25-.875s-.43-.297-.781-.297c-.461 0-.797.137-1.016.406-.219.262-.328.668-.328 1.219V0h-.75v-3.187c0-.383-.086-.676-.25-.875s-.43-.297-.781-.297c-.469 0-.812.141-1.031.422-.211.281-.312.734-.312 1.359V0h-.75v-4.906h.609l.125.672h.031c.133-.238.328-.422.578-.547.258-.133.551-.203.875-.203.758 0 1.258.277 1.5.828h.031a1.54 1.54 0 0 1 .625-.609c.281-.145.598-.219.953-.219.563 0 .977.141 1.25.422.281.281.422.734.422 1.359V0zm0 0" id="s"/><path d="M4.797-4.906v.469l-.906.109c.082.105.156.246.219.422.07.168.109.355.109.563 0 .48-.168.867-.5 1.156-.324.281-.773.422-1.344.422-.148 0-.289-.008-.422-.031-.312.168-.469.375-.469.625 0 .137.051.234.156.297.113.063.305.094.578.094h.859c.531 0 .938.117 1.219.344.289.219.438.539.438.969 0 .539-.219.953-.656 1.234-.437.289-1.074.438-1.906.438-.637 0-1.133-.121-1.484-.359C.344 1.602.172 1.266.172.828.172.535.266.281.453.063c.195-.219.469-.367.813-.453-.125-.051-.23-.133-.312-.25C.867-.766.828-.906.828-1.062a.81.81 0 0 1 .141-.469c.094-.133.242-.266.453-.391a1.27 1.27 0 0 1-.625-.531c-.156-.25-.234-.535-.234-.859 0-.539.16-.953.484-1.234.32-.289.773-.437 1.359-.437.258 0 .492.027.703.078zM.891.828a.66.66 0 0 0 .328.594c.227.133.551.203.969.203.625 0 1.082-.094 1.375-.281.301-.18.453-.43.453-.75 0-.262-.086-.445-.25-.547-.156-.102-.465-.156-.922-.156h-.891c-.336 0-.594.078-.781.234C.984.289.891.523.891.828zm.406-4.156c0 .344.094.605.281.781.195.168.469.25.813.25.727 0 1.094-.348 1.094-1.047 0-.738-.371-1.109-1.109-1.109-.344 0-.609.094-.797.281s-.281.469-.281.844zm0 0" id="t"/><path d="M4.781 0l-.891-2.875c-.062-.176-.168-.578-.312-1.203h-.047l-.312 1.219L2.297 0h-.859L.109-4.906h.766l.719 2.828.297 1.297h.031c.031-.176.082-.395.156-.656l.188-.656.906-2.812h.797l.875 2.813.344 1.297h.031l.109-.484.922-3.625h.781L5.672 0zm0 0" id="u"/><path d="M3.797 0l-.141-.703h-.047c-.242.313-.484.527-.734.641-.242.102-.543.156-.906.156-.48 0-.859-.125-1.141-.375C.555-.531.422-.891.422-1.359c0-.988.789-1.504 2.375-1.547l.828-.031v-.297c0-.383-.086-.672-.25-.859s-.434-.281-.797-.281c-.406 0-.867.125-1.375.375l-.234-.562a3.72 3.72 0 0 1 .781-.297 3.2 3.2 0 0 1 .875-.125c.582 0 1.016.133 1.297.391s.422.68.422 1.25V0zM2.125-.516c.457 0 .816-.125 1.078-.375.27-.258.406-.617.406-1.078v-.437l-.75.031c-.586.023-1.008.117-1.266.281-.262.156-.391.406-.391.75 0 .273.078.48.234.625.164.137.395.203.688.203zm0 0" id="v"/><path d="M4.141 0v-3.172c0-.395-.094-.691-.281-.891-.18-.195-.461-.297-.844-.297-.523 0-.902.141-1.141.422-.23.281-.344.742-.344 1.375V0h-.75v-6.953h.75v2.109c0 .25-.012.461-.031.625h.031c.145-.238.352-.426.625-.562s.578-.203.922-.203c.602 0 1.051.148 1.344.438.301.281.453.73.453 1.344V0zm0 0" id="w"/><path d="M2.859.094c-.73 0-1.305-.219-1.719-.656C.723-1.008.516-1.625.516-2.406c0-.789.191-1.414.578-1.875.395-.469.922-.703 1.578-.703.602 0 1.082.203 1.438.609.363.398.547.93.547 1.594v.469H1.281c.02.574.164 1.012.438 1.313.27.293.66.438 1.172.438.52 0 1.039-.109 1.563-.328v.656c-.262.117-.512.199-.75.25-.23.051-.512.078-.844.078zm-.203-4.469c-.398 0-.715.133-.953.391-.23.262-.367.617-.406 1.063h2.563c0-.469-.105-.828-.312-1.078s-.508-.375-.891-.375zm0 0" id="x"/><path d="M5.047-4.625c0 .656-.23 1.164-.687 1.516-.449.355-1.094.531-1.937.531h-.766V0h-.75v-6.531h1.688c1.633 0 2.453.637 2.453 1.906zM1.656-3.219h.688c.676 0 1.16-.109 1.453-.328.301-.219.453-.566.453-1.047 0-.437-.141-.758-.422-.969s-.719-.312-1.312-.312h-.859zm0 0" id="y"/><path d="M.672-.469c0-.207.047-.359.141-.453.094-.102.223-.156.391-.156.176 0 .313.055.406.156.094.094.141.246.141.453 0 .188-.047.336-.141.438s-.23.156-.406.156C1.055.125.93.078.828-.016S.672-.258.672-.469zm2.375 0c0-.207.047-.359.141-.453.094-.102.223-.156.391-.156.176 0 .313.055.406.156.094.094.141.246.141.453 0 .188-.047.336-.141.438s-.23.156-.406.156c-.148 0-.273-.047-.375-.141s-.156-.242-.156-.453zm2.375 0c0-.207.047-.359.141-.453.094-.102.223-.156.391-.156.176 0 .313.055.406.156.094.094.141.246.141.453 0 .188-.047.336-.141.438s-.23.156-.406.156c-.148 0-.273-.047-.375-.141s-.156-.242-.156-.453zm0 0" id="z"/><path d="M4.391-4.016L4.094-2.5h1.266v.578H3.984L3.609 0H3l.375-1.922H2.016L1.656 0h-.609l.359-1.922H.234V-2.5h1.281l.297-1.516H.578v-.578h1.328l.375-1.937h.625l-.375 1.938h1.375l.375-1.937h.594L4.5-4.594h1.172v.578zM2.125-2.5h1.359l.281-1.516H2.422zm0 0" id="AA"/><path d="M3.797 0L1.578-5.797h-.047l.063 1.641V0H.906v-6.531h1.141l2.063 5.391h.047l2.078-5.391h1.141V0h-.766v-4.219l.063-1.562h-.031L4.406 0zm0 0" id="AB"/><path d="M4.625-6.531h.828L3.094 0h-.75L0-6.531h.813l1.5 4.219.406 1.422a10.14 10.14 0 0 1 .422-1.437zm0 0" id="AC"/><path d="M.906 0v-6.531h.75v5.844h2.891V0zm0 0" id="AD"/><path d="M5 0l-.812-2.078H1.578L.766 0H0l2.578-6.562h.641L5.797 0zM3.953-2.766l-.75-2.016a8.29 8.29 0 0 1-.312-.953c-.062.293-.156.609-.281.953l-.766 2.016zm0 0" id="AE"/><path d="M6 0h-.859L1.563-5.484h-.031l.063 1.766V0H.906v-6.531h.844l3.563 5.453h.047c-.012-.07-.027-.328-.047-.766l-.016-.937v-3.75H6zm0 0" id="AF"/><path d="M2.672-3.234h1.688v.563H2.672v1.734h-.562v-1.734H.422v-.562h1.688V-5h.563zm0 0" id="AG"/><path d="M.594 0v-4.359h.516v3.906h1.922V0zm0 0" id="AH"/><path d="M3-3.328c0 .273-.078.496-.234.672s-.375.297-.656.359v.031c.344.043.598.152.766.328.176.18.266.414.266.703 0 .418-.148.742-.437.969C2.41-.047 2 .063 1.469.063A3.27 3.27 0 0 1 .828 0C.641-.031.457-.086.281-.172v-.469c.188.094.383.168.594.219.219.043.422.063.609.063.758 0 1.141-.297 1.141-.891 0-.531-.418-.797-1.25-.797H.953v-.422h.422c.344 0 .613-.07.813-.219a.76.76 0 0 0 .297-.625c0-.219-.074-.383-.219-.5C2.117-3.937 1.922-4 1.672-4a1.97 1.97 0 0 0-.547.078c-.168.055-.355.148-.562.281l-.266-.328c.188-.145.395-.254.625-.328a2.25 2.25 0 0 1 .734-.125c.426 0 .754.102.984.297.238.188.359.453.359.797zm0 0" id="AI"/><path d="M3.094-4.359h.547L2.063 0h-.5L0-4.359h.531l1.016 2.813c.113.336.203.652.266.953a7.73 7.73 0 0 1 .281-.969zm0 0" id="AJ"/><path d="M4 0h-.578L1.047-3.656h-.031l.047 1.172V0H.594v-4.359h.578L3.547-.719h.031a4.21 4.21 0 0 1-.031-.516l-.016-.625v-2.5H4zm0 0" id="AK"/><path d="M.594 0v-4.359h.516V0zm0 0" id="AL"/><path d="M3.172 0H.297v-.422l1.156-1.156.688-.75c.113-.156.195-.305.25-.453s.078-.301.078-.469a.72.72 0 0 0-.219-.547C2.113-3.93 1.922-4 1.672-4c-.18 0-.352.031-.516.094-.156.055-.336.164-.531.328l-.266-.344c.395-.332.832-.5 1.313-.5.406 0 .723.105.953.313.238.211.359.492.359.844 0 .281-.078.559-.234.828s-.449.609-.875 1.016l-.953.938v.031h2.25zm0 0" id="AM"/><path id="AN" d="M473.666 414.839h24.085v13.841h-24.085zm0 0"/><path id="AO" d="M172.308 372.398v-26.711"/><path id="AP" d="M494.617 35.105l-6.105 3.051 1.523-3.051-1.523-3.055zm0 0"/><path id="AQ" d="M315.66 270.141c-.902 0-1.641.734-1.641 1.633v23.445c0 .898.738 1.633 1.641 1.633h23.426c.902 0 1.641-.734 1.641-1.633v-23.445c0-.898-.738-1.633-1.641-1.633zm0 0"/></defs><g fill="#fff"><path d="M223.598 59.55h21.39v10.684h-21.39zM96.206 215.763h99.627v13.841H96.206zm3.326 198.448h24.117v13.841H99.532zm61.419.09h24.117v13.841h-24.117zm60.718-.22h24.117v13.841h-24.117zm86.579.288h41.766v13.841h-41.766zm0 0"/><use href="#AN"/><use href="#AN" x="60.395" y="0.14"/><use href="#AN" x="121.451" y="1.032"/><path d="M469.117 215.621h99.627v13.841h-99.627zm0 0"/></g><path d="M229.695 222.066l-.32 122.098M54.18 222.066v122.098" class="B C H Q"/><path d="M283.875 122.863v4.578h-1.523v-4.578zm0 9.156v4.578h-1.523v-4.578zm0 9.156v4.578h-1.523v-4.578zm0 9.156v4.578h-1.523v-4.578zm0 9.16v4.578h-1.523v-4.578zm0 9.156v4.578h-1.523v-4.578zm0 9.156v4.578h-1.523v-4.578zm0 9.156v4.582h-1.523v-4.582zm0 9.16v4.578h-1.523v-4.578zm0 9.156v2.289h-3.816v-1.527h3.055v.766h-.762v-1.527zm-8.395 2.289h-4.578v-1.527h4.578zm-9.156 0h-4.578v-1.527h4.578zm-9.156 0h-4.578v-1.527h4.578zm-9.156 0h-4.582v-1.527h4.582zm-9.16 0h-4.578v-1.527h4.578zm-9.156 0h-4.578v-1.527h4.578zm-9.156 0h-4.578v-1.527h4.578zm-9.16 0h-4.578v-1.527h4.578zm-9.156 0h-4.578v-1.527h4.578zm-9.156 0h-4.578v-1.527h4.578zm-9.156 0h-4.578v-1.527h4.578zm-9.16 0h-4.578v-1.527h4.578zm-9.156 0h-4.578v-1.527h4.578zm-9.156 0h-4.578v-1.527h4.578zm-9.156 0h-4.582v-1.527h4.582zm-9.16 0h-4.578v-1.527h4.578zm-9.156 0h-4.578v-1.527h4.578zm-9.156 0h-4.578v-1.527h4.578zm-9.156 0h-4.582v-1.527h4.582zm-9.16 0h-4.578v-1.527h4.578zm-9.156 0h-4.578v-1.527h4.578zm-9.156 0h-4.578v-1.527h4.578zm-9.156 0h-4.582v-1.527h4.582zm-9.16 0h-4.578v-1.527h4.578zm-9.156 0h-4.578v-1.527h4.578zm-9.156 0h-4.578v-1.527h4.578zm-9.16 0h-4.578v-1.527h4.578zm-9.156 0h-4.578v-1.527h4.578zm-9.156 0H14.5v-1.527h4.578zm-9.156 0H5.344v-1.527h4.578zM0 206.805v-4.578h1.527v4.578zm0-9.16v-4.578h1.527v4.578zm0-9.156v-4.578h1.527v4.578zm0-9.156v-4.578h1.527v4.578zm0-9.156v-4.582h1.527v4.582zm0-9.16v-4.578h1.527v4.578zm0-9.156v-4.578h1.527v4.578zm0-9.156v-4.578h1.527v4.578zm0-9.156v-4.582h1.527v4.582zm0-9.16v-4.578h1.527v4.578zm0-9.156v-4.578h1.527v4.578zm0-9.156v-4.578h1.527v4.578zm0-9.16v-4.578h1.527v4.578zm0-9.156V83.18h1.527v4.578zm0-9.156v-4.578h1.527v4.578zm0-9.156v-4.578h1.527v4.578zm0-9.16v-4.578h1.527v4.578zm0-9.156v-4.578h1.527v4.578zm0-9.156v-4.578h1.527v4.578zm0-9.156v-4.582h1.527v4.582zm0-9.16v-4.578h1.527v4.578zM0 14.5V9.922h1.527V14.5zm0-9.156V.766h1.527v4.578zM5.344 0h4.578v1.527H5.344zM14.5 0h4.578v1.527H14.5zm9.156 0h4.578v1.527h-4.578zm9.156 0h4.578v1.527h-4.578zm9.16 0h4.578v1.527h-4.578zm9.156 0h4.578v1.527h-4.578zm9.156 0h4.578v1.527h-4.578zm9.156 0h4.582v1.527h-4.582zm9.16 0h4.578v1.527h-4.578zm9.156 0h4.578v1.527h-4.578zm9.156 0h4.578v1.527h-4.578zm9.156 0h4.582v1.527h-4.582zm9.16 0h4.578v1.527h-4.578zm9.156 0h4.578v1.527h-4.578zm9.156 0h4.578v1.527h-4.578zm9.156 0h3.055v1.527h-3.055zm0 0" class="I"/><g transform="translate(-43.883 -37.129)"><use href="#A" x="143.79" y="263.01"/><use href="#B" x="147.051" y="263.01"/><use href="#C" x="153.227" y="263.01"/><use href="#D" x="159.988" y="263.01"/><use href="#E" x="163.425" y="263.01"/><use href="#F" x="168.277" y="263.01"/><use href="#G" x="173.587" y="263.01"/><use href="#H" x="179.685" y="263.01"/><use href="#I" x="185.784" y="263.01"/><use href="#J" x="188.83" y="263.01"/><use href="#J" x="195.591" y="263.01"/><use href="#D" x="202.351" y="263.01"/><use href="#A" x="205.789" y="263.01"/><use href="#B" x="209.049" y="263.01"/><use href="#I" x="215.226" y="263.01"/><use href="#K" x="218.272" y="263.01"/><use href="#L" x="225.294" y="263.01"/><use href="#M" x="231.606" y="263.01"/></g><path d="M154.91 0h4.578v1.527h-4.578zm9.156 0h4.582v1.527h-4.582zm9.16 0h4.578v1.527h-4.578zm9.156 0h4.578v1.527h-4.578zm9.156 0h4.578v1.527h-4.578zm9.16 0h4.578v1.527h-4.578zm9.156 0h4.578v1.527h-4.578zm9.156 0h4.578v1.527h-4.578zm9.156 0h4.578v1.527h-4.578zm9.16 0h4.578v1.527h-4.578zm9.156 0h4.578v1.527h-4.578zm9.156 0h4.578v1.527h-4.578zm9.156 0h4.582v1.527h-4.582zm9.16 0h4.578v1.527h-4.578zm9.918.766v4.578h-1.523V.766zm0 9.156V14.5h-1.523V9.922zm0 9.156v4.578h-1.523v-4.578zm0 9.156v4.582h-1.523v-4.582zm0 9.16v4.578h-1.523v-4.578zm0 9.156v4.578h-1.523v-4.578zm0 9.156v4.578h-1.523v-4.578zm0 9.16v4.578h-1.523v-4.578zm0 9.156v4.578h-1.523v-4.578zm0 9.156v4.578h-1.523V83.18zm0 9.156v4.578h-1.523v-4.578zm0 9.16v4.578h-1.523v-4.578zm0 9.156v4.578h-1.523v-4.578zm0 9.156v3.816h-2.289v-1.527h1.527v.766h-.762v-3.055zm-6.867 3.816h-4.578v-1.527h4.578zm-9.156 0h-4.578v-1.527h4.578zm-9.156 0h-4.582v-1.527h4.582zm-9.16 0h-4.578v-1.527h4.578zm-9.156 0h-4.578v-1.527h4.578zm-9.156 0h-4.578v-1.527h4.578zm-9.16 0h-4.578v-1.527h4.578zm-9.156 0h-4.578v-1.527h4.578zm-9.156 0h-4.578v-1.527h4.578zm-9.156 0h-4.578v-1.527h4.578zm-9.16 0h-4.578v-1.527h4.578zm-9.156 0h-4.578v-1.527h4.578zm-9.156 0h-4.578v-1.527h4.578zm-9.156 0h-4.582v-1.527h4.582zm-9.16 0h-3.812v-2.289h1.523v1.527h-.762v-.766h3.051zm-3.812-6.867v-4.578h1.523v4.578zm0-9.16v-4.578h1.523v4.578zm0-9.156v-4.578h1.523v4.578zm0-9.156v-4.578h1.523v4.578zm0-9.156v-4.578h1.523v4.578zm0-9.16v-4.578h1.523v4.578zm0-9.156v-4.578h1.523v4.578zm0-9.156v-4.578h1.523v4.578zm0-9.156v-4.582h1.523V43.5zm0-9.16v-4.578h1.523v4.578zm0-9.156v-4.578h1.523v4.578zm0-9.156v-4.578h1.523v4.578zm0-9.156V2.289h1.523v4.582zM145.754 0h4.578v1.527h-4.578zm0 0" class="M"/><path d="M252.969 35.484l-.09 1.871-.273 1.852-.457 1.816a18.51 18.51 0 0 1-.629 1.762l-.801 1.695-.965 1.605-1.113 1.504-1.258 1.387-1.387 1.258-1.504 1.113-1.605.965-1.695.797c-.574.242-1.164.449-1.762.633l-1.816.453c-.613.125-1.23.215-1.852.277l-1.871.09c-.621 0-1.246-.031-1.867-.09l-1.852-.277a19.28 19.28 0 0 1-1.816-.453l-1.766-.633-1.691-.797-1.605-.965-1.504-1.113-1.387-1.258-1.258-1.387-1.113-1.504-.965-1.605-.801-1.695a18.51 18.51 0 0 1-.629-1.762 19.3 19.3 0 0 1-.457-1.816l-.273-1.852c-.062-.621-.09-1.246-.09-1.871l.09-1.867.273-1.852.457-1.816.629-1.766.801-1.691.965-1.605 1.113-1.504 1.258-1.387 1.387-1.258 1.504-1.113 1.605-.965 1.691-.801 1.766-.629c.598-.184 1.203-.332 1.816-.457l1.852-.273c.621-.062 1.246-.094 1.867-.094s1.25.031 1.871.094l1.852.273 1.816.457c.598.18 1.188.391 1.762.629l1.695.801 1.605.965c.52.344 1.02.719 1.504 1.113l1.387 1.258 1.258 1.387 1.113 1.504.965 1.605.801 1.691.629 1.766.457 1.816.273 1.852c.063.621.09 1.242.09 1.867zm0 0" class="E"/><path d="M243.875 47.223l-4.816-4.723-1.961 1.996-1.496-7.203 7.258 1.336-1.945 1.984 4.813 4.715zm-10.809-9.164l-4.715 4.813 2 1.961-7.203 1.496 1.336-7.25 1.977 1.941 4.723-4.809zm-9.078-14.348l4.813 4.723 1.957-2 1.5 7.207-7.254-1.336 1.945-1.977-4.816-4.727zm10.598 9.113l4.727-4.816-2-1.961 7.203-1.496-1.336 7.25-1.977-1.945-4.723 4.82zm-.695-16.418c-10.527 0-19.074 8.547-19.074 19.078s8.547 19.078 19.074 19.078 19.078-8.547 19.078-19.078-8.547-19.078-19.078-19.078zm0 .484c10.273 0 18.598 8.324 18.598 18.594s-8.324 18.598-18.598 18.598-18.594-8.324-18.594-18.598 8.324-18.594 18.594-18.594zm0 0" class="F"/><g transform="translate(-43.883 -37.129)"><use href="#O" x="268.594" y="105.047"/><use href="#P" x="274.389" y="105.047"/><use href="#Q" x="277.184" y="105.047"/></g><use href="#R" x="237.276" y="67.918"/><g class="H"><path d="M83.355 190.191l22.891-22.895m2.703 2.703l-22.895 22.891" class="B C D"/><path d="M28.617 191.922h51.891a4.61 4.61 0 0 1 .895.09c.293.059.578.145.859.258s.539.258.789.426.48.355.695.57.402.441.57.691a4.97 4.97 0 0 1 .422.793 4.65 4.65 0 0 1 .262.859c.059.293.086.59.086.891v21.367c0 .301-.027.598-.086.895a4.74 4.74 0 0 1-.262.859 4.93 4.93 0 0 1-.422.789 4.66 4.66 0 0 1-.57.695c-.215.215-.445.402-.695.57a4.38 4.38 0 0 1-.789.422c-.281.117-.566.203-.859.262s-.594.086-.895.086H28.617c-.301 0-.598-.027-.895-.086a4.45 4.45 0 0 1-.859-.262 4.38 4.38 0 0 1-.789-.422 4.43 4.43 0 0 1-.695-.57 4.66 4.66 0 0 1-.57-.695 4.38 4.38 0 0 1-.422-.789 4.45 4.45 0 0 1-.262-.859c-.059-.297-.086-.594-.086-.895V196.5a4.53 4.53 0 0 1 .086-.891 4.37 4.37 0 0 1 .262-.859 4.41 4.41 0 0 1 .422-.793c.168-.25.359-.48.57-.691a4.43 4.43 0 0 1 .695-.57c.25-.168.512-.309.789-.426a4.73 4.73 0 0 1 .859-.258 4.6 4.6 0 0 1 .895-.09zm0 0" class="G N"/></g><g transform="translate(-43.883 -37.129)" class="O"><use href="#Y" x="88.894" y="246.985"/><use href="#Z" x="93.263" y="246.985"/><use href="#a" x="96.366" y="246.985"/><use href="#b" x="101.977" y="246.985"/></g><path d="M204.133 191.922h51.891a4.54 4.54 0 0 1 .891.09 4.64 4.64 0 0 1 .859.258c.277.117.543.258.793.426s.48.355.695.57.402.441.566.691.309.516.426.793a4.64 4.64 0 0 1 .258.859 4.53 4.53 0 0 1 .09.891v21.367a4.61 4.61 0 0 1-.09.895 4.73 4.73 0 0 1-.258.859c-.117.277-.258.539-.426.789s-.355.484-.566.695-.445.402-.695.57a4.41 4.41 0 0 1-.793.422 4.37 4.37 0 0 1-.859.262 4.53 4.53 0 0 1-.891.086h-51.891c-.301 0-.602-.027-.895-.086a4.37 4.37 0 0 1-.859-.262 4.41 4.41 0 0 1-.793-.422 4.4 4.4 0 0 1-.691-.57 4.43 4.43 0 0 1-.57-.695 4.38 4.38 0 0 1-.422-.789 4.45 4.45 0 0 1-.262-.859 4.6 4.6 0 0 1-.09-.895V196.5a4.53 4.53 0 0 1 .09-.891 4.37 4.37 0 0 1 .262-.859 4.41 4.41 0 0 1 .422-.793 4.4 4.4 0 0 1 1.262-1.262c.25-.168.516-.309.793-.426a4.64 4.64 0 0 1 .859-.258 4.57 4.57 0 0 1 .895-.09zm0 0" class="G H N"/><g transform="translate(-43.883 -37.129)" class="O"><use href="#Y" x="264.409" y="246.985"/><use href="#Z" x="268.778" y="246.985"/><use href="#a" x="271.881" y="246.985"/><use href="#c" x="277.492" y="246.985"/></g><path d="M177.629 167.297l22.895 22.895m-2.703 2.699L174.926 170m1.351-31.875l22.895-27.473" class="B C D H"/><path d="M112.559 138.504h59.523a4.53 4.53 0 0 1 .891.09 4.37 4.37 0 0 1 .859.262 4.41 4.41 0 0 1 .793.422c.25.168.48.355.695.57s.402.441.566.691.309.516.426.793a4.64 4.64 0 0 1 .258.859 4.56 4.56 0 0 1 .09.891v21.367a4.58 4.58 0 0 1-.09.895 4.64 4.64 0 0 1-.258.859c-.117.277-.258.543-.426.793s-.355.48-.566.691-.445.402-.695.57a4.41 4.41 0 0 1-.793.422 4.37 4.37 0 0 1-.859.262 4.53 4.53 0 0 1-.891.09h-59.523a4.6 4.6 0 0 1-.895-.09 4.45 4.45 0 0 1-.859-.262 4.38 4.38 0 0 1-.789-.422c-.25-.168-.48-.355-.695-.57s-.402-.441-.57-.691a4.67 4.67 0 0 1-.422-.793 4.65 4.65 0 0 1-.262-.859c-.059-.293-.086-.594-.086-.895v-21.367c0-.297.027-.598.086-.891a4.65 4.65 0 0 1 .262-.859c.113-.277.258-.543.422-.793s.359-.48.57-.691.445-.402.695-.57.512-.309.789-.422a4.45 4.45 0 0 1 .859-.262 4.6 4.6 0 0 1 .895-.09zm0 0" class="G H N"/><g transform="translate(-43.883 -37.129)" class="O"><use href="#d" x="172.013" y="193.567"/><use href="#e" x="177.625" y="193.567"/><use href="#f" x="183.156" y="193.567"/><use href="#g" x="188.776" y="193.567"/><use href="#h" x="194.388" y="193.567"/></g><g class="B C D"><path d="M107.598 138.125l-22.895-27.473" class="H"/><path d="M329.664 372.398l-.766-89.285H54.18v-61.047l61.051-61.051v-15.262l-30.527-38.156V61.812L74.449 56.5" class="J"/></g><path d="M70.391 54.394l6.82.102-2.762 2.004-.047 3.414zm0 0" class="C D I J"/><path fill="#fff" d="M93.863 278.535h9.918v9.922h-9.918zm0 0"/><g transform="translate(-43.883 -37.129)"><use href="#AG" x="137.9" y="324.059"/><use href="#AG" x="142.7" y="324.059"/></g><path d="M124.629 20.223c-1.012 0-1.844.84-1.844 1.863v26.801a1.86 1.86 0 0 0 1.844 1.859h35.379a1.86 1.86 0 0 0 1.848-1.859V22.086c0-1.023-.832-1.863-1.848-1.863zm0 0" class="E"/><path d="M128.027 26.367c-.297 0-.504.191-.648.387-.137.199-.238.445-.336.727-.191.574-.344 1.328-.473 2.191-.246 1.723-.383 3.844-.383 5.539 0 2.488.145 4.785.406 6.48.129.852.289 1.555.496 2.074.098.258.211.473.363.656.145.176.367.328.633.328l28.656-.016c.289 0 .473-.191.594-.375.125-.176.223-.395.316-.656.18-.523.34-1.227.48-2.059.266-1.664.449-3.832.449-5.922 0-1.801-.129-4.043-.375-5.859-.121-.91-.273-1.703-.465-2.305-.09-.301-.199-.551-.336-.758s-.352-.41-.648-.41zm.047.793l27.805.023c-.043.105-.113.184-.152.305-.211.574-.379 1.344-.52 2.227-.281 1.781-.434 4.047-.434 6.074 0 1.957.16 4.105.441 5.785.145.848.313 1.566.52 2.105.039.109.094.168.129.254l-27.777.016c.023 0 .023.023-.035-.047s-.145-.223-.23-.434c-.168-.422-.328-1.078-.449-1.902-.254-1.633-.398-3.898-.398-6.355 0-1.656.137-3.754.375-5.426.121-.832.273-1.555.441-2.047.078-.242.168-.426.238-.523.023-.039.039-.055.047-.055zm28.66.055c.008.016.008.008.023.027a2.99 2.99 0 0 1 .238.559c.164.52.313 1.289.434 2.168a47.42 47.42 0 0 1 .367 5.754c0 2.043-.184 4.18-.445 5.793-.129.801-.289 1.48-.441 1.922-.078.207-.145.344-.199.434a1.96 1.96 0 0 1-.242-.473c-.176-.457-.336-1.145-.473-1.953-.277-1.625-.437-3.746-.437-5.656 0-1.988.152-4.227.422-5.941.137-.863.305-1.598.48-2.086.09-.242.184-.418.258-.512.031-.043.008-.027.016-.035zm-20.934 8.836v2.082h15.211v2.016h-15.211v2.082l-4.434-3.09zm11.875-6.785v2.086h-15.207v2.012h15.207v2.086l4.434-3.094zm-23.047-9.043c-1.012 0-1.844.84-1.844 1.863v26.801a1.86 1.86 0 0 0 1.844 1.859h35.379a1.86 1.86 0 0 0 1.848-1.859V22.086c0-1.023-.832-1.863-1.848-1.863zm0 .84h35.379a1.01 1.01 0 0 1 1.016 1.023v26.801c0 .57-.449 1.023-1.016 1.023h-35.379c-.57 0-1.012-.453-1.012-1.023V22.086c0-.574.441-1.023 1.012-1.023zm0 0" class="F"/><path d="M116.754 55.707h51.129v10.684h-51.129zm-91.805 3.641h51.817v10.684H24.949zm0 0" fill="#fff"/><g transform="translate(-43.883 -37.129)"><use href="#i" x="160.626" y="101.231"/><use href="#j" x="163.989" y="101.231"/><use href="#k" x="167.727" y="101.231"/><use href="#f" x="173.347" y="101.231"/><use href="#i" x="178.968" y="101.231"/><use href="#d" x="182.33" y="101.231"/><use href="#l" x="187.942" y="101.231"/><use href="#j" x="190.258" y="101.231"/><use href="#g" x="193.813" y="101.231"/><use href="#m" x="199.424" y="101.231"/><use href="#n" x="201.861" y="101.231"/><use href="#o" x="206.221" y="101.231"/><use href="#p" x="209.453" y="101.231"/></g><g class="C D"><g class="J"><path d="M69.441 35.105h46.672" class="B"/><path d="M120.691 35.105l-6.102 3.051 1.523-3.051-1.523-3.055zm0 0" class="I"/></g><g class="K"><path d="M161.473 35.105h46.672" class="B"/><path d="M212.723 35.105l-6.105 3.051 1.527-3.051-1.527-3.055zm0 0" class="M"/></g></g><path d="M20.984 80.508h59.523c.301 0 .598.031.895.09s.578.145.859.262a4.38 4.38 0 0 1 .789.422c.25.168.48.355.695.57s.402.441.57.691a4.97 4.97 0 0 1 .422.793 4.65 4.65 0 0 1 .262.859c.059.293.086.59.086.891v21.367c0 .301-.027.602-.086.895a4.65 4.65 0 0 1-.262.859 4.97 4.97 0 0 1-.422.793c-.168.25-.359.48-.57.691s-.445.402-.695.57a4.38 4.38 0 0 1-.789.422c-.281.117-.566.203-.859.262a4.6 4.6 0 0 1-.895.09H20.984a4.53 4.53 0 0 1-.891-.09 4.37 4.37 0 0 1-.859-.262 4.41 4.41 0 0 1-.793-.422c-.25-.168-.48-.355-.695-.57s-.402-.441-.566-.691a4.69 4.69 0 0 1-.426-.793c-.113-.277-.199-.562-.258-.859a4.57 4.57 0 0 1-.09-.895V85.086a4.53 4.53 0 0 1 .09-.891c.059-.297.145-.582.258-.859s.258-.543.426-.793.355-.48.566-.691.445-.402.695-.57a4.41 4.41 0 0 1 .793-.422 4.37 4.37 0 0 1 .859-.262 4.53 4.53 0 0 1 .891-.09zm0 0" class="G J L"/><g transform="translate(-43.883 -37.129)"><use href="#l" x="67.933" y="135.571"/><use href="#q" x="70.249" y="135.571"/><use href="#a" x="75.047" y="135.571"/><use href="#r" x="80.658" y="135.571"/><use href="#s" x="83.605" y="135.571"/><use href="#t" x="92.123" y="135.571"/><use href="#s" x="97.139" y="135.571"/><use href="#o" x="105.657" y="135.571"/><use href="#r" x="108.89" y="135.571"/><use href="#n" x="111.837" y="135.571"/><use href="#n" x="116.196" y="135.571"/></g><path d="M34.012 16.406c-1.289 0-2.344 1.047-2.344 2.328v33.5a2.34 2.34 0 0 0 2.344 2.328H67.48a2.34 2.34 0 0 0 2.344-2.328v-33.5c0-1.281-1.055-2.328-2.344-2.328zm0 0" class="E"/><path d="M52.145 24.625c-5.207 0-9.441 4.223-9.441 9.402a9.32 9.32 0 0 0 2.031 5.816l-5.715 5.699 2.266 2.25 5.828-5.812c1.457.914 3.184 1.449 5.031 1.449 5.203 0 9.445-4.227 9.445-9.402s-4.242-9.402-9.445-9.402zm0 1.984c4.129 0 7.445 3.313 7.445 7.418s-3.316 7.41-7.445 7.41c-4.121 0-7.449-3.305-7.449-7.41s3.328-7.418 7.449-7.418zm-4.328 3.145v8.418h8.555v-8.418zm1.098 1.094h6.359v6.234h-6.359zM34.012 16.406c-1.289 0-2.344 1.047-2.344 2.328v33.5a2.34 2.34 0 0 0 2.344 2.328H67.48a2.34 2.34 0 0 0 2.344-2.328v-33.5c0-1.281-1.055-2.328-2.344-2.328zm0 1.055H67.48c.727 0 1.289.559 1.289 1.273v33.5c0 .719-.562 1.277-1.289 1.277H34.012a1.26 1.26 0 0 1-1.281-1.277v-33.5c0-.715.555-1.273 1.281-1.273zm0 0" class="F"/><g transform="translate(-43.883 -37.129)"><use href="#d" x="68.934" y="105.047"/><use href="#l" x="74.546" y="105.047"/><use href="#j" x="76.862" y="105.047"/><use href="#g" x="80.417" y="105.047"/><use href="#u" x="86.028" y="105.047"/><use href="#v" x="93.151" y="105.047"/><use href="#o" x="98.244" y="105.047"/><use href="#n" x="101.477" y="105.047"/><use href="#w" x="105.836" y="105.047"/><use href="#x" x="111.457" y="105.047"/><use href="#j" x="116.594" y="105.047"/></g><path d="M130.871 391.855l-.09 1.871-.273 1.852-.457 1.816c-.18.598-.391 1.188-.629 1.762s-.508 1.145-.801 1.695l-.965 1.605c-.344.52-.719 1.02-1.113 1.504l-1.258 1.387-1.387 1.258-1.504 1.113-1.605.965-1.691.797c-.578.242-1.168.453-1.766.633l-1.816.453a18.4 18.4 0 0 1-1.852.277l-1.867.09a19.93 19.93 0 0 1-1.871-.09l-1.852-.277a19.28 19.28 0 0 1-1.816-.453c-.598-.18-1.187-.391-1.762-.633l-1.695-.797-1.605-.965-1.504-1.113-1.387-1.258-1.258-1.387-1.113-1.504-.965-1.605-.801-1.695a18.51 18.51 0 0 1-.629-1.762l-.453-1.816c-.125-.613-.215-1.23-.277-1.852l-.09-1.871.09-1.867.277-1.852.453-1.816.629-1.766.801-1.691.965-1.605 1.113-1.504 1.258-1.387 1.387-1.258 1.504-1.113 1.605-.965 1.695-.801 1.762-.629c.598-.184 1.203-.332 1.816-.457l1.852-.273c.621-.062 1.246-.094 1.871-.094a18.62 18.62 0 0 1 1.867.094l1.852.273 1.816.457c.598.18 1.188.391 1.766.629l1.691.801 1.605.965c.52.344 1.02.719 1.504 1.113l1.387 1.258 1.258 1.387 1.113 1.504.965 1.605.801 1.691.629 1.766c.184.598.332 1.203.457 1.816l.273 1.852c.063.621.09 1.242.09 1.867zm0 0" class="E"/><path d="M121.777 403.594l-4.816-4.723-1.961 2-1.496-7.207 7.258 1.336-1.945 1.984 4.816 4.715zm-10.805-9.164l-4.719 4.813 2 1.961-7.203 1.496 1.336-7.25 1.977 1.941 4.723-4.809zm-9.082-14.348l4.816 4.723 1.953-2 1.504 7.207-7.258-1.336 1.945-1.977-4.816-4.727zm10.598 9.113l4.727-4.816-2-1.961 7.203-1.496-1.336 7.25-1.977-1.945-4.723 4.82zm-.691-16.418c-10.531 0-19.078 8.547-19.078 19.078s8.547 19.078 19.078 19.078 19.074-8.547 19.074-19.078-8.543-19.078-19.074-19.078zm0 .484c10.27 0 18.594 8.324 18.594 18.594s-8.324 18.598-18.594 18.598-18.598-8.324-18.598-18.598 8.324-18.594 18.598-18.594zm0 0" class="F"/><g transform="translate(-43.883 -37.129)"><use href="#y" x="145.913" y="461.418"/><use href="#x" x="151.426" y="461.418"/><use href="#x" x="156.563" y="461.418"/><use href="#j" x="161.701" y="461.418"/></g><path d="M191.922 391.855c0 .625-.031 1.25-.094 1.871a18.56 18.56 0 0 1-.273 1.852l-.453 1.816-.633 1.762c-.238.578-.504 1.145-.801 1.695l-.961 1.605-1.117 1.504-1.258 1.387-1.387 1.258-1.504 1.113-1.605.965-1.691.797c-.578.242-1.164.453-1.762.633l-1.816.453c-.613.125-1.23.215-1.852.277l-1.871.09c-.625 0-1.246-.031-1.871-.09l-1.852-.277a19.28 19.28 0 0 1-1.816-.453c-.598-.18-1.184-.391-1.762-.633l-1.691-.797-1.605-.965-1.504-1.113-1.387-1.258-1.258-1.387-1.117-1.504a18.54 18.54 0 0 1-.961-1.605c-.297-.551-.562-1.117-.801-1.695l-.633-1.762-.453-1.816-.273-1.852c-.062-.621-.094-1.246-.094-1.871a18.62 18.62 0 0 1 .094-1.867 18.23 18.23 0 0 1 .273-1.852l.453-1.816.633-1.766.801-1.691a18.54 18.54 0 0 1 .961-1.605l1.117-1.504c.395-.484.816-.945 1.258-1.387l1.387-1.258a18.23 18.23 0 0 1 1.504-1.113l1.605-.965 1.691-.801 1.762-.629c.598-.184 1.203-.332 1.816-.457l1.852-.273c.625-.062 1.246-.094 1.871-.094s1.25.031 1.871.094l1.852.273 1.816.457a18.9 18.9 0 0 1 1.762.629 19.11 19.11 0 0 1 1.691.801l1.605.965a18.23 18.23 0 0 1 1.504 1.113l1.387 1.258a17.59 17.59 0 0 1 1.258 1.387c.398.484.77.984 1.117 1.504l.961 1.605c.297.551.563 1.117.801 1.691l.633 1.766.453 1.816.273 1.852.094 1.867zm0 0" class="E"/><path d="M182.824 403.594l-4.812-4.723-1.961 2-1.496-7.207 7.254 1.336-1.945 1.984 4.816 4.715zm-10.805-9.164l-4.715 4.813 2 1.961-7.207 1.496 1.336-7.25 1.977 1.941 4.727-4.809zm-9.082-14.348l4.816 4.723 1.953-2 1.504 7.207-7.258-1.336 1.945-1.977-4.812-4.727zm10.602 9.113l4.723-4.816-2-1.961 7.203-1.496-1.332 7.25-1.977-1.945-4.727 4.82zm-.695-16.418c-10.531 0-19.078 8.547-19.078 19.078s8.547 19.078 19.078 19.078 19.078-8.547 19.078-19.078-8.547-19.078-19.078-19.078zm0 .484c10.273 0 18.598 8.324 18.598 18.594s-8.324 18.598-18.598 18.598a18.6 18.6 0 0 1-18.598-18.598 18.6 18.6 0 0 1 18.598-18.594zm0 0" class="F"/><g transform="translate(-43.883 -37.129)"><use href="#y" x="206.961" y="461.418"/><use href="#x" x="212.474" y="461.418"/><use href="#x" x="217.612" y="461.418"/><use href="#j" x="222.75" y="461.418"/></g><path d="M252.969 391.855l-.09 1.871-.273 1.852-.457 1.816a18.51 18.51 0 0 1-.629 1.762l-.801 1.695-.965 1.605-1.113 1.504-1.258 1.387-1.387 1.258-1.504 1.113-1.605.965-1.695.797c-.574.242-1.164.453-1.762.633l-1.816.453c-.613.125-1.23.215-1.852.277l-1.871.09a19.91 19.91 0 0 1-1.867-.09l-1.852-.277a19.28 19.28 0 0 1-1.816-.453c-.598-.18-1.187-.391-1.766-.633l-1.691-.797-1.605-.965-1.504-1.113-1.387-1.258-1.258-1.387-1.113-1.504-.965-1.605-.801-1.695a18.51 18.51 0 0 1-.629-1.762 19.3 19.3 0 0 1-.457-1.816l-.273-1.852c-.062-.621-.09-1.246-.09-1.871l.09-1.867.273-1.852.457-1.816.629-1.766.801-1.691.965-1.605 1.113-1.504 1.258-1.387 1.387-1.258 1.504-1.113 1.605-.965 1.691-.801 1.766-.629c.598-.184 1.203-.332 1.816-.457l1.852-.273c.621-.062 1.246-.094 1.867-.094s1.25.031 1.871.094l1.852.273 1.816.457a18.51 18.51 0 0 1 1.762.629l1.695.801 1.605.965c.52.344 1.02.719 1.504 1.113l1.387 1.258 1.258 1.387 1.113 1.504.965 1.605.801 1.691.629 1.766.457 1.816.273 1.852c.063.621.09 1.242.09 1.867zm0 0" class="E"/><path d="M243.875 403.594l-4.816-4.723-1.961 2-1.496-7.207 7.258 1.336-1.945 1.984 4.813 4.715zm-10.809-9.164l-4.715 4.813 2 1.961-7.203 1.496 1.336-7.25 1.977 1.941 4.723-4.809zm-9.078-14.348l4.813 4.723 1.957-2 1.5 7.207-7.254-1.336 1.945-1.977-4.816-4.727zm10.598 9.113l4.727-4.816-2-1.961 7.203-1.496-1.336 7.25-1.977-1.945-4.723 4.82zm-.695-16.418c-10.527 0-19.074 8.547-19.074 19.078s8.547 19.078 19.074 19.078 19.078-8.547 19.078-19.078-8.547-19.078-19.078-19.078zm0 .484c10.273 0 18.598 8.324 18.598 18.594s-8.324 18.598-18.598 18.598-18.594-8.324-18.594-18.598 8.324-18.594 18.594-18.594zm0 0" class="F"/><use href="#z" x="230.303" y="424.289"/><g class="B C D K"><path d="M233.512 372.398l.047-26.895"/><use href="#AO"/><use href="#AO" x="-61.046"/><path d="M214.656 52.016l-15.484 9.797v45.785l-30.523 38.156v15.262l61.047 61.051.098 92.031"/></g><path fill="#fff" d="M597.201 58.931h21.546v10.684h-21.546zm0 0"/><path d="M218.523 49.566l-3.527 5.836-.34-3.387-2.926-1.766zm0 0" class="C D K M"/><path d="M36.246 268.234H248.39c.301 0 .598.027.895.086a4.74 4.74 0 0 1 .859.262 4.64 4.64 0 0 1 .789.422 4.66 4.66 0 0 1 1.266 1.266c.168.25.309.512.422.789a4.45 4.45 0 0 1 .262.859c.059.297.086.594.086.895v21.367c0 .301-.027.598-.086.895s-.145.578-.262.855-.254.543-.422.793-.359.48-.57.695-.445.402-.695.566-.512.309-.789.426a4.73 4.73 0 0 1-.859.258 4.6 4.6 0 0 1-.895.09H36.246a4.53 4.53 0 0 1-.891-.09 4.64 4.64 0 0 1-.859-.258c-.277-.117-.543-.258-.793-.426s-.48-.355-.691-.566-.402-.445-.57-.695a4.55 4.55 0 0 1-.426-.793 4.69 4.69 0 0 1-.258-.855 4.6 4.6 0 0 1-.09-.895v-21.367a4.6 4.6 0 0 1 .09-.895 4.73 4.73 0 0 1 .258-.859c.117-.277.258-.539.426-.789a4.43 4.43 0 0 1 .57-.695c.211-.211.441-.402.691-.57s.516-.309.793-.422a4.65 4.65 0 0 1 .859-.262 4.53 4.53 0 0 1 .891-.086zm0 0" class="G J L"/><g transform="translate(-43.883 -37.129)"><use href="#y" x="128.576" y="317.954"/><use href="#e" x="134.089" y="317.954"/><use href="#y" x="139.62" y="317.954"/><use href="#AA" x="147.512" y="317.954"/><use href="#b" x="153.428" y="317.954"/><use href="#AB" x="161.042" y="317.954"/><use href="#v" x="169.31" y="317.954"/><use href="#f" x="174.403" y="317.954"/><use href="#v" x="180.023" y="317.954"/><use href="#t" x="185.116" y="317.954"/><use href="#x" x="190.133" y="317.954"/><use href="#s" x="195.27" y="317.954"/><use href="#x" x="203.788" y="317.954"/><use href="#f" x="208.926" y="317.954"/><use href="#o" x="214.546" y="317.954"/><use href="#AC" x="220.158" y="317.954"/><use href="#AD" x="225.608" y="317.954"/><use href="#AE" x="230.361" y="317.954"/><use href="#AF" x="236.156" y="317.954"/><use href="#AH" x="177.522" y="329.4"/><use href="#AI" x="180.691" y="329.4"/><use href="#AJ" x="184.181" y="329.4"/><use href="#AK" x="187.815" y="329.4"/><use href="#AL" x="192.418" y="329.4"/></g><path d="M204.133 80.508h59.52c.301 0 .602.031.895.09a4.45 4.45 0 0 1 .859.262 4.41 4.41 0 0 1 .793.422 4.4 4.4 0 0 1 1.262 1.262 4.41 4.41 0 0 1 .422.793 4.37 4.37 0 0 1 .262.859 4.53 4.53 0 0 1 .086.891v21.367c0 .301-.027.602-.086.895a4.37 4.37 0 0 1-.262.859 4.41 4.41 0 0 1-.422.793 4.4 4.4 0 0 1-1.262 1.262 4.41 4.41 0 0 1-.793.422 4.45 4.45 0 0 1-.859.262 4.57 4.57 0 0 1-.895.09h-59.519a4.57 4.57 0 0 1-.895-.09 4.37 4.37 0 0 1-.859-.262 4.41 4.41 0 0 1-.793-.422 4.4 4.4 0 0 1-1.262-1.262 4.41 4.41 0 0 1-.422-.793 4.37 4.37 0 0 1-.262-.859 4.57 4.57 0 0 1-.09-.895V85.086a4.53 4.53 0 0 1 .09-.891 4.37 4.37 0 0 1 .262-.859 4.41 4.41 0 0 1 .422-.793 4.4 4.4 0 0 1 1.262-1.262 4.41 4.41 0 0 1 .793-.422 4.37 4.37 0 0 1 .859-.262 4.57 4.57 0 0 1 .895-.09zm0 0" class="G K P"/><g transform="translate(-43.883 -37.129)"><use href="#l" x="253.26" y="135.571"/><use href="#q" x="255.577" y="135.571"/><use href="#a" x="260.374" y="135.571"/><use href="#r" x="265.986" y="135.571"/><use href="#a" x="268.933" y="135.571"/><use href="#x" x="274.544" y="135.571"/><use href="#x" x="279.682" y="135.571"/><use href="#j" x="284.819" y="135.571"/><use href="#l" x="288.557" y="135.571"/><use href="#f" x="290.873" y="135.571"/><use href="#t" x="296.494" y="135.571"/></g><path d="M657.797 122.863v4.578h-1.523v-4.578zm0 9.156v4.578h-1.523v-4.578zm0 9.156v4.578h-1.523v-4.578zm0 9.156v4.578h-1.523v-4.578zm0 9.16v4.578h-1.523v-4.578zm0 9.156v4.578h-1.523v-4.578zm0 9.156v4.578h-1.523v-4.578zm0 9.156v4.582h-1.523v-4.582zm0 9.16v4.578h-1.523v-4.578zm0 9.156v2.289h-3.812v-1.527h3.051v.766h-.762v-1.527zm-8.391 2.289h-4.582v-1.527h4.582zm-9.16 0h-4.578v-1.527h4.578zm-9.156 0h-4.578v-1.527h4.578zm-9.156 0h-4.578v-1.527h4.578zm-9.16 0h-4.578v-1.527h4.578zm-9.156 0h-4.578v-1.527h4.578zm-9.156 0h-4.578v-1.527h4.578zm-9.156 0h-4.578v-1.527h4.578zm-9.16 0h-4.578v-1.527h4.578zm-9.156 0h-4.578v-1.527h4.578zm-9.156 0h-4.578v-1.527h4.578zm-9.156 0h-4.582v-1.527h4.582zm-9.16 0h-4.578v-1.527h4.578zm-9.156 0h-4.578v-1.527h4.578zm-9.156 0h-4.578v-1.527h4.578zm-9.156 0h-4.582v-1.527h4.582zm-9.16 0h-4.578v-1.527h4.578zm-9.156 0h-4.578v-1.527h4.578zm-9.156 0h-4.578v-1.527h4.578zm-9.16 0h-4.578v-1.527h4.578zm-9.156 0h-4.578v-1.527h4.578zm-9.156 0h-4.578v-1.527h4.578zm-9.156 0h-4.578v-1.527h4.578zm-9.16 0h-4.578v-1.527h4.578zm-9.156 0h-4.578v-1.527h4.578zm-9.156 0h-4.578v-1.527h4.578zm-9.156 0h-4.582v-1.527h4.582zm-9.16 0h-4.578v-1.527h4.578zm-9.156 0h-4.578v-1.527H393zm-9.156 0h-4.578v-1.527h4.578zm-9.922-.762v-4.578h1.527v4.578zm0-9.16v-4.578h1.527v4.578zm0-9.156v-4.578h1.527v4.578zm0-9.156v-4.578h1.527v4.578zm0-9.156v-4.582h1.527v4.582zm0-9.16v-4.578h1.527v4.578zm0-9.156v-4.578h1.527v4.578zm0-9.156v-4.578h1.527v4.578zm0-9.156v-4.582h1.527v4.582zm0-9.16v-4.578h1.527v4.578zm0-9.156v-4.578h1.527v4.578zm0-9.156v-4.578h1.527v4.578zm0-9.16v-4.578h1.527v4.578zm0-9.156V83.18h1.527v4.578zm0-9.156v-4.578h1.527v4.578zm0-9.156v-4.578h1.527v4.578zm0-9.16v-4.578h1.527v4.578zm0-9.156v-4.578h1.527v4.578zm0-9.156v-4.578h1.527v4.578zm0-9.156v-4.582h1.527v4.582zm0-9.16v-4.578h1.527v4.578zm0-9.156V9.922h1.527V14.5zm0-9.156V.766h1.527v4.578zM379.266 0h4.578v1.527h-4.578zm9.156 0H393v1.527h-4.578zm9.156 0h4.578v1.527h-4.578zm9.156 0h4.582v1.527h-4.582zm9.16 0h4.578v1.527h-4.578zm9.156 0h4.578v1.527h-4.578zm9.156 0h4.578v1.527h-4.578zm9.16 0h4.578v1.527h-4.578zm9.156 0h4.578v1.527h-4.578zm9.156 0h4.578v1.527h-4.578zm9.156 0h4.578v1.527h-4.578zm9.16 0h4.578v1.527h-4.578zm9.156 0h4.578v1.527h-4.578zm9.156 0h4.578v1.527h-4.578zm9.156 0h4.582v1.527h-4.582zm9.16 0h3.051v1.527h-3.051zm0 0" class="I"/><g transform="translate(-43.883 -37.129)"><use href="#A" x="517.713" y="263.01"/><use href="#B" x="520.973" y="263.01"/><use href="#C" x="527.15" y="263.01"/><use href="#D" x="533.91" y="263.01"/><use href="#E" x="537.348" y="263.01"/><use href="#F" x="542.199" y="263.01"/><use href="#G" x="547.51" y="263.01"/><use href="#N" x="553.608" y="263.01"/><use href="#I" x="559.706" y="263.01"/><use href="#J" x="562.753" y="263.01"/><use href="#J" x="569.513" y="263.01"/><use href="#D" x="576.274" y="263.01"/><use href="#A" x="579.712" y="263.01"/><use href="#B" x="582.972" y="263.01"/><use href="#I" x="589.148" y="263.01"/><use href="#K" x="592.195" y="263.01"/><use href="#L" x="599.216" y="263.01"/><use href="#M" x="605.528" y="263.01"/></g><path d="M528.832 0h4.582v1.527h-4.582zm9.16 0h4.578v1.527h-4.578zm9.156 0h4.578v1.527h-4.578zm9.156 0h4.578v1.527h-4.578zm9.156 0h4.582v1.527h-4.582zm9.16 0h4.578v1.527h-4.578zm9.156 0h4.578v1.527h-4.578zm9.156 0h4.578v1.527h-4.578zm9.16 0h4.578v1.527h-4.578zm9.156 0h4.578v1.527h-4.578zm9.156 0h4.578v1.527h-4.578zm9.156 0h4.578v1.527h-4.578zm9.16 0h4.578v1.527h-4.578zm9.156 0h4.578v1.527h-4.578zm9.918.766v4.578h-1.523V.766zm0 9.156V14.5h-1.523V9.922zm0 9.156v4.578h-1.523v-4.578zm0 9.156v4.582h-1.523v-4.582zm0 9.16v4.578h-1.523v-4.578zm0 9.156v4.578h-1.523v-4.578zm0 9.156v4.578h-1.523v-4.578zm0 9.16v4.578h-1.523v-4.578zm0 9.156v4.578h-1.523v-4.578zm0 9.156v4.578h-1.523V83.18zm0 9.156v4.578h-1.523v-4.578zm0 9.16v4.578h-1.523v-4.578zm0 9.156v4.578h-1.523v-4.578zm0 9.156v3.816h-2.289v-1.527h1.527v.766h-.762v-3.055zm-6.867 3.816h-4.578v-1.527h4.578zm-9.156 0h-4.578v-1.527h4.578zm-9.156 0h-4.578v-1.527h4.578zm-9.16 0h-4.578v-1.527h4.578zm-9.156 0h-4.578v-1.527h4.578zm-9.156 0h-4.578v-1.527h4.578zm-9.156 0h-4.578v-1.527h4.578zm-9.16 0h-4.578v-1.527h4.578zm-9.156 0h-4.578v-1.527h4.578zm-9.156 0h-4.578v-1.527h4.578zm-9.156 0h-4.582v-1.527h4.582zm-9.16 0h-4.578v-1.527h4.578zm-9.156 0h-4.578v-1.527h4.578zm-9.156 0h-4.578v-1.527h4.578zm-9.156 0h-3.816v-2.289h1.523v1.527h-.762v-.766h3.055zm-3.816-6.867v-4.578h1.523v4.578zm0-9.16v-4.578h1.523v4.578zm0-9.156v-4.578h1.523v4.578zm0-9.156v-4.578h1.523v4.578zm0-9.156v-4.578h1.523v4.578zm0-9.16v-4.578h1.523v4.578zm0-9.156v-4.578h1.523v4.578zm0-9.156v-4.578h1.523v4.578zm0-9.156v-4.582h1.523V43.5zm0-9.16v-4.578h1.523v4.578zm0-9.156v-4.578h1.523v4.578zm0-9.156v-4.578h1.523v4.578zm0-9.156V2.289h1.523v4.582zM519.676 0h4.578v1.527h-4.578zm0 0" class="M"/><path d="M626.895 35.484c0 .625-.031 1.25-.094 1.871l-.273 1.852c-.121.613-.273 1.219-.457 1.816s-.391 1.188-.629 1.762a19.18 19.18 0 0 1-.801 1.695l-.965 1.605c-.344.52-.719 1.02-1.113 1.504l-1.258 1.387-1.387 1.258-1.504 1.113-1.605.965-1.691.797c-.578.242-1.168.449-1.766.633l-1.816.453c-.609.125-1.227.215-1.852.277l-1.867.09c-.625 0-1.25-.031-1.871-.09l-1.852-.277a19.28 19.28 0 0 1-1.816-.453l-1.762-.633-1.695-.797-1.605-.965-1.504-1.113-1.387-1.258-1.258-1.387-1.113-1.504-.965-1.605c-.293-.551-.559-1.117-.797-1.695a17.51 17.51 0 0 1-.633-1.762l-.453-1.816c-.125-.613-.215-1.23-.277-1.852l-.09-1.871.09-1.867.277-1.852.453-1.816c.18-.598.391-1.187.633-1.766l.797-1.691.965-1.605 1.113-1.504 1.258-1.387 1.387-1.258 1.504-1.113 1.605-.965 1.695-.801 1.762-.629c.598-.184 1.203-.332 1.816-.457l1.852-.273c.621-.062 1.246-.094 1.871-.094a18.62 18.62 0 0 1 1.867.094l1.852.273 1.816.457c.598.18 1.188.391 1.766.629l1.691.801 1.605.965c.52.344 1.02.719 1.504 1.113l1.387 1.258 1.258 1.387 1.113 1.504.965 1.605.801 1.691.629 1.766c.184.598.336 1.203.457 1.816l.273 1.852.094 1.867zm0 0" class="E"/><path d="M617.797 47.223L612.98 42.5l-1.961 1.996-1.496-7.203 7.258 1.336-1.945 1.984 4.816 4.715zm-10.805-9.164l-4.719 4.813 2 1.961-7.203 1.496 1.336-7.25 1.977 1.941 4.723-4.809zm-9.082-14.348l4.816 4.723 1.953-2 1.504 7.207-7.258-1.336 1.945-1.977-4.816-4.727zm10.598 9.113l4.727-4.816-2-1.961 7.203-1.496-1.336 7.25-1.977-1.945-4.723 4.82zm-.691-16.418c-10.531 0-19.078 8.547-19.078 19.078s8.547 19.078 19.078 19.078 19.078-8.547 19.078-19.078-8.547-19.078-19.078-19.078zm0 .484c10.27 0 18.594 8.324 18.594 18.594s-8.324 18.598-18.594 18.598-18.598-8.324-18.598-18.598 8.324-18.594 18.598-18.594zm0 0" class="F"/><g transform="translate(-43.883 -37.129)"><use href="#O" x="642.517" y="105.047"/><use href="#P" x="648.312" y="105.047"/><use href="#Q" x="651.106" y="105.047"/></g><use href="#R" x="611.198" y="67.918"/><g class="H"><path d="M457.277 190.191l22.895-22.895m2.699 2.703l-22.895 22.891" class="B C D"/><path d="M402.539 191.922h51.891a4.61 4.61 0 0 1 .895.09 4.73 4.73 0 0 1 .859.258c.277.117.539.258.789.426a4.43 4.43 0 0 1 .695.57c.211.211.402.441.57.691a4.41 4.41 0 0 1 .422.793 4.37 4.37 0 0 1 .262.859 4.53 4.53 0 0 1 .086.891v21.367c0 .301-.027.598-.086.895a4.45 4.45 0 0 1-.262.859 4.38 4.38 0 0 1-.422.789 4.66 4.66 0 0 1-.57.695 4.43 4.43 0 0 1-.695.57c-.25.168-.512.309-.789.422a4.45 4.45 0 0 1-.859.262c-.297.059-.594.086-.895.086h-51.891c-.301 0-.598-.027-.895-.086s-.578-.145-.859-.262a4.38 4.38 0 0 1-.789-.422c-.25-.168-.48-.355-.695-.57a4.66 4.66 0 0 1-.57-.695 4.93 4.93 0 0 1-.422-.789 4.74 4.74 0 0 1-.262-.859c-.059-.297-.086-.594-.086-.895V196.5a4.53 4.53 0 0 1 .086-.891 4.65 4.65 0 0 1 .262-.859 4.97 4.97 0 0 1 .422-.793c.168-.25.359-.48.57-.691s.445-.402.695-.57.512-.309.789-.426.566-.199.859-.258a4.6 4.6 0 0 1 .895-.09zm0 0" class="G N"/></g><g transform="translate(-43.883 -37.129)" class="O"><use href="#Y" x="462.817" y="246.985"/><use href="#Z" x="467.185" y="246.985"/><use href="#a" x="470.289" y="246.985"/><use href="#b" x="475.9" y="246.985"/></g><path d="M578.054 191.922h51.891a4.61 4.61 0 0 1 .895.09c.293.059.578.145.859.258s.539.258.789.426.48.355.695.57.402.441.57.691a4.97 4.97 0 0 1 .422.793 4.65 4.65 0 0 1 .262.859 4.53 4.53 0 0 1 .086.891v21.367a4.59 4.59 0 0 1-.086.895c-.059.293-.148.582-.262.859a4.93 4.93 0 0 1-.422.789 4.66 4.66 0 0 1-.57.695c-.215.215-.445.402-.695.57a4.38 4.38 0 0 1-.789.422c-.281.117-.566.203-.859.262s-.594.086-.895.086h-51.891c-.301 0-.598-.027-.895-.086a4.45 4.45 0 0 1-.859-.262 4.38 4.38 0 0 1-.789-.422 4.43 4.43 0 0 1-.695-.57 4.66 4.66 0 0 1-.57-.695c-.168-.25-.309-.512-.422-.789a4.45 4.45 0 0 1-.262-.859c-.059-.297-.086-.594-.086-.895V196.5a4.53 4.53 0 0 1 .086-.891 4.37 4.37 0 0 1 .262-.859 4.41 4.41 0 0 1 .422-.793c.168-.25.359-.48.57-.691a4.43 4.43 0 0 1 .695-.57c.25-.168.512-.309.789-.426a4.73 4.73 0 0 1 .859-.258 4.6 4.6 0 0 1 .895-.09zm0 0" class="G H N"/><g transform="translate(-43.883 -37.129)" class="O"><use href="#Y" x="638.332" y="246.985"/><use href="#Z" x="642.7" y="246.985"/><use href="#a" x="645.803" y="246.985"/><use href="#c" x="651.415" y="246.985"/></g><path d="M551.55 167.297l22.895 22.895m-2.703 2.699L548.851 170m1.348-31.875l22.895-27.473" class="B C D H"/><path d="M486.48 138.504h59.523a4.6 4.6 0 0 1 .895.09c.293.059.578.145.855.262s.543.254.793.422.48.355.695.57.402.441.566.691a4.69 4.69 0 0 1 .426.793 4.64 4.64 0 0 1 .258.859 4.56 4.56 0 0 1 .09.891v21.367a4.57 4.57 0 0 1-.09.895 4.64 4.64 0 0 1-.258.859 4.69 4.69 0 0 1-.426.793c-.164.25-.355.48-.566.691s-.445.402-.695.57-.512.309-.793.422-.562.203-.855.262a4.6 4.6 0 0 1-.895.09H486.48a4.6 4.6 0 0 1-.895-.09c-.293-.059-.578-.145-.855-.262s-.543-.254-.793-.422-.48-.355-.695-.57-.402-.441-.566-.691-.309-.516-.426-.793a4.64 4.64 0 0 1-.258-.859 4.57 4.57 0 0 1-.09-.895v-21.367a4.56 4.56 0 0 1 .09-.891 4.64 4.64 0 0 1 .258-.859c.117-.277.258-.543.426-.793s.355-.48.566-.691.445-.402.695-.57.512-.309.793-.422.563-.203.855-.262a4.6 4.6 0 0 1 .895-.09zm0 0" class="G H N"/><g transform="translate(-43.883 -37.129)" class="O"><use href="#d" x="545.936" y="193.567"/><use href="#e" x="551.548" y="193.567"/><use href="#f" x="557.079" y="193.567"/><use href="#g" x="562.699" y="193.567"/><use href="#h" x="568.311" y="193.567"/></g><path d="M481.519 138.125l-22.891-27.473" class="B C D H"/><path d="M498.555 20.223c-1.016 0-1.848.84-1.848 1.863v26.801a1.86 1.86 0 0 0 1.848 1.859h35.375a1.86 1.86 0 0 0 1.848-1.859V22.086c0-1.023-.832-1.863-1.848-1.863zm0 0" class="E"/><path d="M501.949 26.367c-.297 0-.504.191-.648.387-.137.199-.238.445-.336.727-.191.574-.344 1.328-.473 2.191-.246 1.723-.383 3.844-.383 5.539 0 2.488.145 4.785.406 6.48.129.852.289 1.555.496 2.074.098.258.211.473.363.656.148.176.367.328.637.328l28.652-.016c.289 0 .473-.191.598-.375.121-.176.219-.395.313-.656.184-.523.344-1.227.48-2.059a39.53 39.53 0 0 0 .449-5.922c0-1.801-.129-4.043-.375-5.859-.121-.91-.273-1.703-.465-2.305-.09-.301-.199-.551-.336-.758s-.352-.41-.648-.41zm.047.793l27.805.023c-.043.105-.113.184-.152.305-.211.574-.379 1.344-.516 2.227-.285 1.781-.437 4.047-.437 6.074 0 1.957.16 4.105.445 5.785.145.848.313 1.566.516 2.105.039.109.094.168.133.254l-27.777.016c.019 0 .019.023-.039-.047s-.145-.223-.23-.434c-.168-.422-.328-1.078-.449-1.902-.25-1.633-.398-3.898-.398-6.355a42.41 42.41 0 0 1 .375-5.426c.121-.832.273-1.555.441-2.047.078-.242.168-.426.238-.523.023-.039.039-.055.047-.055zm28.66.055c.008.016.008.008.023.027a2.99 2.99 0 0 1 .238.559c.168.52.313 1.289.434 2.168.238 1.762.367 3.992.367 5.754 0 2.043-.184 4.18-.441 5.793-.133.801-.293 1.48-.445 1.922a2.36 2.36 0 0 1-.199.434 1.96 1.96 0 0 1-.242-.473c-.176-.457-.336-1.145-.473-1.953-.277-1.625-.437-3.746-.437-5.656 0-1.988.152-4.227.422-5.941.137-.863.305-1.598.48-2.086.09-.242.184-.418.258-.512.031-.043.008-.027.016-.035zm-20.93 8.836v2.082h15.207v2.016h-15.207v2.082l-4.434-3.09zm11.871-6.785v2.086h-15.207v2.012h15.207v2.086l4.434-3.094zm-23.043-9.043c-1.016 0-1.848.84-1.848 1.863v26.801a1.86 1.86 0 0 0 1.848 1.859h35.375a1.86 1.86 0 0 0 1.848-1.859V22.086c0-1.023-.832-1.863-1.848-1.863zm0 .84h35.375a1.01 1.01 0 0 1 1.016 1.023v26.801c0 .57-.449 1.023-1.016 1.023h-35.375c-.574 0-1.016-.453-1.016-1.023V22.086c0-.574.441-1.023 1.016-1.023zm0 0" class="F"/><path d="M490.68 55.707h51.125v10.684H490.68zm-92.986 3.983h53.93v10.684h-53.93zm0 0" fill="#fff"/><g transform="translate(-43.883 -37.129)"><use href="#i" x="534.549" y="101.231"/><use href="#j" x="537.911" y="101.231"/><use href="#k" x="541.649" y="101.231"/><use href="#f" x="547.27" y="101.231"/><use href="#i" x="552.89" y="101.231"/><use href="#d" x="556.253" y="101.231"/><use href="#l" x="561.864" y="101.231"/><use href="#j" x="564.181" y="101.231"/><use href="#g" x="567.735" y="101.231"/><use href="#m" x="573.347" y="101.231"/><use href="#n" x="575.784" y="101.231"/><use href="#o" x="580.143" y="101.231"/><use href="#p" x="583.376" y="101.231"/></g><g class="C D"><g class="J"><path d="M443.367 35.105h46.668" class="B"/><use href="#AP" class="I"/></g><g class="K"><path d="M535.394 35.105h46.672" class="B"/><use href="#AP" x="92.031" class="M"/></g></g><path d="M394.906 80.508h59.523c.301 0 .598.031.895.09a4.45 4.45 0 0 1 .859.262c.277.113.539.254.789.422a4.43 4.43 0 0 1 .695.57c.211.211.402.441.57.691a4.41 4.41 0 0 1 .422.793 4.37 4.37 0 0 1 .262.859 4.53 4.53 0 0 1 .086.891v21.367c0 .301-.027.602-.086.895a4.37 4.37 0 0 1-.262.859 4.41 4.41 0 0 1-.422.793c-.168.25-.359.48-.57.691a4.43 4.43 0 0 1-.695.57 4.38 4.38 0 0 1-.789.422 4.45 4.45 0 0 1-.859.262 4.6 4.6 0 0 1-.895.09h-59.523a4.56 4.56 0 0 1-.891-.09 4.37 4.37 0 0 1-.859-.262 4.41 4.41 0 0 1-.793-.422 4.4 4.4 0 0 1-1.262-1.262 4.41 4.41 0 0 1-.422-.793 4.37 4.37 0 0 1-.262-.859 4.57 4.57 0 0 1-.09-.895V85.086a4.53 4.53 0 0 1 .09-.891 4.37 4.37 0 0 1 .262-.859 4.41 4.41 0 0 1 .422-.793 4.4 4.4 0 0 1 1.262-1.262 4.41 4.41 0 0 1 .793-.422 4.37 4.37 0 0 1 .859-.262 4.56 4.56 0 0 1 .891-.09zm0 0" class="G J L"/><g transform="translate(-43.883 -37.129)"><use href="#l" x="441.414" y="135.571"/><use href="#q" x="443.73" y="135.571"/><use href="#a" x="448.528" y="135.571"/><use href="#r" x="454.14" y="135.571"/><use href="#s" x="457.086" y="135.571"/><use href="#t" x="465.604" y="135.571"/><use href="#s" x="470.621" y="135.571"/><use href="#o" x="479.139" y="135.571"/><use href="#r" x="482.372" y="135.571"/><use href="#n" x="485.318" y="135.571"/><use href="#c" x="489.678" y="135.571"/></g><path d="M407.934 16.406c-1.289 0-2.344 1.047-2.344 2.328v33.5a2.34 2.34 0 0 0 2.344 2.328h33.469c1.293 0 2.344-1.043 2.344-2.328v-33.5a2.34 2.34 0 0 0-2.344-2.328zm0 0" class="E"/><path d="M426.066 24.625c-5.203 0-9.441 4.223-9.441 9.402a9.32 9.32 0 0 0 2.031 5.816l-5.715 5.699 2.266 2.25 5.828-5.812c1.461.914 3.184 1.449 5.031 1.449 5.203 0 9.445-4.227 9.445-9.402s-4.242-9.402-9.445-9.402zm0 1.984c4.129 0 7.449 3.313 7.449 7.418s-3.32 7.41-7.449 7.41c-4.121 0-7.449-3.305-7.449-7.41s3.328-7.418 7.449-7.418zm-4.328 3.145v8.418h8.555v-8.418zm1.098 1.094h6.359v6.234h-6.359zm-14.902-14.441c-1.289 0-2.344 1.047-2.344 2.328v33.5a2.34 2.34 0 0 0 2.344 2.328h33.469c1.293 0 2.344-1.043 2.344-2.328v-33.5a2.34 2.34 0 0 0-2.344-2.328zm0 1.055h33.469c.727 0 1.293.559 1.293 1.273v33.5c0 .719-.566 1.277-1.293 1.277h-33.469a1.26 1.26 0 0 1-1.281-1.277v-33.5a1.26 1.26 0 0 1 1.281-1.273zm0 0" class="F"/><g transform="translate(-43.883 -37.129)"><use href="#d" x="442.857" y="105.047"/><use href="#l" x="448.468" y="105.047"/><use href="#j" x="450.785" y="105.047"/><use href="#g" x="454.339" y="105.047"/><use href="#u" x="459.951" y="105.047"/><use href="#v" x="467.074" y="105.047"/><use href="#o" x="472.166" y="105.047"/><use href="#n" x="475.399" y="105.047"/><use href="#w" x="479.759" y="105.047"/><use href="#x" x="485.379" y="105.047"/><use href="#j" x="490.517" y="105.047"/></g><path d="M578.054 80.508h59.523c.297 0 .598.031.891.09a4.37 4.37 0 0 1 .859.262 4.41 4.41 0 0 1 .793.422 4.4 4.4 0 0 1 1.262 1.262 4.41 4.41 0 0 1 .422.793 4.37 4.37 0 0 1 .262.859 4.53 4.53 0 0 1 .09.891v21.367a4.58 4.58 0 0 1-.09.895 4.37 4.37 0 0 1-.262.859 4.41 4.41 0 0 1-.422.793 4.4 4.4 0 0 1-1.262 1.262 4.41 4.41 0 0 1-.793.422 4.37 4.37 0 0 1-.859.262 4.56 4.56 0 0 1-.891.09h-59.523a4.6 4.6 0 0 1-.895-.09 4.45 4.45 0 0 1-.859-.262 4.38 4.38 0 0 1-.789-.422 4.43 4.43 0 0 1-.695-.57c-.211-.211-.402-.441-.57-.691a4.41 4.41 0 0 1-.422-.793 4.37 4.37 0 0 1-.262-.859c-.059-.293-.086-.594-.086-.895V85.086a4.53 4.53 0 0 1 .086-.891 4.37 4.37 0 0 1 .262-.859 4.41 4.41 0 0 1 .422-.793c.168-.25.359-.48.57-.691a4.43 4.43 0 0 1 .695-.57 4.38 4.38 0 0 1 .789-.422 4.45 4.45 0 0 1 .859-.262 4.6 4.6 0 0 1 .895-.09zm0 0" class="G K P"/><g transform="translate(-43.883 -37.129)"><use href="#l" x="627.183" y="135.571"/><use href="#q" x="629.499" y="135.571"/><use href="#a" x="634.297" y="135.571"/><use href="#r" x="639.909" y="135.571"/><use href="#a" x="642.855" y="135.571"/><use href="#x" x="648.467" y="135.571"/><use href="#x" x="653.604" y="135.571"/><use href="#j" x="658.742" y="135.571"/><use href="#l" x="662.48" y="135.571"/><use href="#f" x="664.796" y="135.571"/><use href="#t" x="670.416" y="135.571"/></g><path d="M603.617 222.066l-.32 122.098M428.101 222.066v122.098" class="B C H Q"/><path d="M307.93 372.777c-1.266 0-2.305 1.047-2.305 2.328v33.5c0 1.285 1.039 2.328 2.305 2.328h44.23c1.266 0 2.305-1.043 2.305-2.328v-33.5c0-1.281-1.039-2.328-2.305-2.328zm0 0" class="E"/><path d="M326.16 377.031l-.809.027h-.055c-6.066.574-10.918 5.406-12.07 11.891-1.312.535-2.488 1.313-3.375 2.352a6.54 6.54 0 0 0-1.578 4.289c0 1.984.707 3.859 2.289 5.172 1.051.879 2.473 1.504 4.266 1.832l-1.168 1.184 2.227 2.242 2.352-2.379c2.398 2.043 5.418 3.043 8.02 3.043 3.785 0 7.105-1.855 9.289-4.258 2.867.32 5.395.602 8.082.406h.035c2.773-.223 4.832-1.094 6.199-2.43s1.996-3.105 1.996-4.937c0-1.562-.617-2.988-1.641-4.148-.945-1.078-2.242-1.934-3.746-2.551-.656-1.617-1.707-3.395-3.5-4.531l-.016-.016h-.016c-1.961-1.191-3.93-1.145-5.703-.793-1.828-3.039-5.59-6.297-10.805-6.387-.09-.008-.184-.008-.273-.008zm-.512 1.41l.031.129-.039-.129zm.527.176h.234c4.871.098 8.305 3.352 9.77 6.074l.273.527.582-.137h-.008c1.777-.414 3.387-.559 5.137.504 1.492.945 2.426 2.563 3.004 4.082l.121.328.328.129c1.453.543 2.641 1.336 3.449 2.25s1.246 1.945 1.246 3.09c0 1.473-.465 2.773-1.52 3.793s-2.73 1.785-5.242 1.992c-2.641.199-5.172-.098-8.227-.434l-.402-.047-.262.313h-.008c-1.898 2.238-4.969 4.023-8.395 4.023-2.168 0-4.828-.871-6.914-2.59l2.281-2.309c1.445.914 3.137 1.449 4.961 1.449 5.129 0 9.305-4.223 9.305-9.402s-4.176-9.402-9.305-9.402-9.301 4.219-9.301 9.402c0 2.191.746 4.211 2 5.816l-3.082 3.129c-2.168-.223-3.68-.84-4.664-1.664-1.207-1.008-1.719-2.328-1.719-3.945a4.85 4.85 0 0 1 1.199-3.254c.762-.891 1.863-1.602 3.137-2.059l.441-.16.07-.465c.898-6.066 5.289-10.492 10.766-11.012a11.79 11.79 0 0 1 .742-.023zm.41 6.227c4.063 0 7.336 3.305 7.336 7.41s-3.273 7.41-7.336 7.41-7.332-3.305-7.332-7.41 3.273-7.41 7.332-7.41zm-4.266 3.137v8.418h8.426v-8.418zm24.031.93l.008.008v.008zm-22.945.168h6.266v6.227h-6.266zm-10.035 0c-.008.016-.008.016-.016.016l.016-.008zm-5.441-15.246h44.23c.707 0 1.266.559 1.266 1.273v33.5c0 .719-.559 1.277-1.266 1.277h-44.23c-.711 0-1.266-.559-1.266-1.277v-33.5c0-.715.555-1.273 1.266-1.273zm0-1.055c-1.266 0-2.305 1.047-2.305 2.328v33.5c0 1.285 1.039 2.328 2.305 2.328h44.23c1.266 0 2.305-1.043 2.305-2.328v-33.5c0-1.281-1.039-2.328-2.305-2.328zm0 0" class="F"/><g transform="translate(-43.883 -37.129)"><use href="#S" x="355.91" y="461.418"/><use href="#T" x="362.228" y="461.418"/><use href="#P" x="365.023" y="461.418"/><use href="#U" x="367.818" y="461.418"/><use href="#V" x="372.526" y="461.418"/><use href="#W" x="380.315" y="461.418"/></g><use href="#X" x="341.422" y="424.289"/><path d="M504.797 391.855c0 .625-.031 1.25-.094 1.871l-.273 1.852c-.121.613-.273 1.219-.457 1.816a18.51 18.51 0 0 1-.629 1.762 19.18 19.18 0 0 1-.801 1.695l-.961 1.605-1.117 1.504-1.258 1.387-1.387 1.258-1.504 1.113-1.605.965-1.691.797c-.578.242-1.164.453-1.762.633l-1.816.453c-.613.125-1.23.215-1.855.277l-1.867.09a19.93 19.93 0 0 1-1.871-.09l-1.852-.277a19.28 19.28 0 0 1-1.816-.453c-.598-.18-1.184-.391-1.762-.633l-1.691-.797-1.609-.965-1.504-1.113-1.387-1.258-1.258-1.387-1.113-1.504a18.54 18.54 0 0 1-.961-1.605c-.297-.551-.562-1.117-.801-1.695a18.53 18.53 0 0 1-.633-1.762l-.453-1.816-.277-1.852-.09-1.871.09-1.867.277-1.852.453-1.816.633-1.766.801-1.691a18.54 18.54 0 0 1 .961-1.605l1.113-1.504 1.258-1.387 1.387-1.258 1.504-1.113 1.609-.965 1.691-.801 1.762-.629c.598-.184 1.203-.332 1.816-.457l1.852-.273c.621-.062 1.246-.094 1.871-.094a18.62 18.62 0 0 1 1.867.094l1.855.273 1.816.457a18.9 18.9 0 0 1 1.762.629 19.11 19.11 0 0 1 1.691.801l1.605.965c.52.344 1.02.719 1.504 1.113l1.387 1.258 1.258 1.387c.398.484.77.984 1.117 1.504l.961 1.605.801 1.691.629 1.766c.184.598.336 1.203.457 1.816l.273 1.852.094 1.867zm0 0" class="E"/><path d="M495.699 403.594l-4.816-4.723-1.961 2-1.496-7.207 7.258 1.336-1.945 1.984 4.816 4.715zm-10.805-9.164l-4.715 4.813 1.996 1.961-7.203 1.496 1.336-7.25 1.977 1.941 4.723-4.809zm-9.082-14.348l4.816 4.723 1.953-2 1.504 7.207-7.258-1.336 1.945-1.977-4.816-4.727zm10.602 9.113l4.723-4.816-2-1.961 7.203-1.496-1.336 7.25-1.977-1.945-4.723 4.82zm-.695-16.418c-10.531 0-19.078 8.547-19.078 19.078s8.547 19.078 19.078 19.078 19.078-8.547 19.078-19.078-8.547-19.078-19.078-19.078zm0 .484a18.6 18.6 0 0 1 18.598 18.594 18.6 18.6 0 0 1-18.598 18.598c-10.273 0-18.598-8.324-18.598-18.598s8.324-18.594 18.598-18.594zm0 0" class="F"/><g transform="translate(-43.883 -37.129)"><use href="#y" x="519.835" y="461.418"/><use href="#x" x="525.349" y="461.418"/><use href="#x" x="530.486" y="461.418"/><use href="#j" x="535.624" y="461.418"/></g><path d="M565.844 391.855l-.09 1.871-.277 1.852-.453 1.816-.633 1.762c-.238.578-.504 1.145-.801 1.695l-.961 1.605-1.113 1.504-1.258 1.387-1.387 1.258-1.504 1.113-1.609.965-1.691.797c-.578.242-1.164.453-1.762.633l-1.816.453c-.613.125-1.23.215-1.852.277l-1.871.09a19.85 19.85 0 0 1-1.867-.09l-1.855-.277-1.816-.453c-.598-.18-1.184-.391-1.762-.633l-1.691-.797-1.605-.965-1.504-1.113-1.387-1.258-1.258-1.387-1.117-1.504-.961-1.605-.801-1.695a18.51 18.51 0 0 1-.629-1.762c-.184-.598-.336-1.203-.457-1.816l-.273-1.852c-.062-.621-.094-1.246-.094-1.871a18.62 18.62 0 0 1 .094-1.867l.273-1.852c.121-.613.273-1.219.457-1.816l.629-1.766.801-1.691c.293-.551.617-1.086.961-1.605l1.117-1.504c.395-.484.816-.945 1.258-1.387l1.387-1.258 1.504-1.113 1.605-.965 1.691-.801 1.762-.629 1.816-.457 1.855-.273a18.62 18.62 0 0 1 1.867-.094c.625 0 1.25.031 1.871.094l1.852.273 1.816.457a18.9 18.9 0 0 1 1.762.629 19.11 19.11 0 0 1 1.691.801l1.609.965c.52.344 1.02.719 1.504 1.113l1.387 1.258 1.258 1.387 1.113 1.504.961 1.605c.297.551.563 1.117.801 1.691s.449 1.168.633 1.766l.453 1.816.277 1.852.09 1.867zm0 0" class="E"/><path d="M556.746 403.594l-4.812-4.723-1.961 2-1.496-7.207 7.258 1.336-1.945 1.984 4.813 4.715zm-10.805-9.164l-4.715 4.813 2 1.961-7.203 1.496 1.332-7.25 1.977 1.941 4.727-4.809zm-9.078-14.348l4.813 4.723 1.953-2 1.504 7.207-7.258-1.336 1.945-1.977-4.812-4.727zm10.598 9.113l4.723-4.816-2-1.961 7.207-1.496-1.336 7.25-1.977-1.945-4.727 4.82zm-.695-16.418c-10.531 0-19.078 8.547-19.078 19.078s8.547 19.078 19.078 19.078 19.078-8.547 19.078-19.078-8.547-19.078-19.078-19.078zm0 .484c10.273 0 18.598 8.324 18.598 18.594s-8.324 18.598-18.598 18.598a18.6 18.6 0 0 1-18.598-18.598 18.6 18.6 0 0 1 18.598-18.594zm0 0" class="F"/><g transform="translate(-43.883 -37.129)"><use href="#y" x="580.884" y="461.418"/><use href="#x" x="586.397" y="461.418"/><use href="#x" x="591.535" y="461.418"/><use href="#j" x="596.672" y="461.418"/></g><path d="M626.895 391.855c0 .625-.031 1.25-.094 1.871l-.273 1.852c-.121.613-.273 1.219-.457 1.816s-.391 1.188-.629 1.762a19.18 19.18 0 0 1-.801 1.695l-.965 1.605c-.344.52-.719 1.02-1.113 1.504l-1.258 1.387-1.387 1.258-1.504 1.113-1.605.965-1.691.797c-.578.242-1.168.453-1.766.633l-1.816.453c-.609.125-1.227.215-1.852.277l-1.867.09a19.93 19.93 0 0 1-1.871-.09l-1.852-.277a19.28 19.28 0 0 1-1.816-.453c-.598-.18-1.187-.391-1.762-.633l-1.695-.797-1.605-.965-1.504-1.113-1.387-1.258-1.258-1.387-1.113-1.504-.965-1.605c-.293-.551-.559-1.117-.797-1.695a17.51 17.51 0 0 1-.633-1.762l-.453-1.816c-.125-.613-.215-1.23-.277-1.852l-.09-1.871.09-1.867.277-1.852.453-1.816c.18-.598.391-1.187.633-1.766l.797-1.691.965-1.605 1.113-1.504 1.258-1.387 1.387-1.258 1.504-1.113 1.605-.965 1.695-.801 1.762-.629c.598-.184 1.203-.332 1.816-.457l1.852-.273c.621-.062 1.246-.094 1.871-.094a18.62 18.62 0 0 1 1.867.094l1.852.273 1.816.457c.598.18 1.188.391 1.766.629l1.691.801 1.605.965c.52.344 1.02.719 1.504 1.113l1.387 1.258 1.258 1.387 1.113 1.504.965 1.605.801 1.691.629 1.766c.184.598.336 1.203.457 1.816l.273 1.852.094 1.867zm0 0" class="E"/><path d="M617.797 403.594l-4.816-4.723-1.961 2-1.496-7.207 7.258 1.336-1.945 1.984 4.816 4.715zm-10.805-9.164l-4.719 4.813 2 1.961-7.203 1.496 1.336-7.25 1.977 1.941 4.723-4.809zm-9.082-14.348l4.816 4.723 1.953-2 1.504 7.207-7.258-1.336 1.945-1.977-4.816-4.727zm10.598 9.113l4.727-4.816-2-1.961 7.203-1.496-1.336 7.25-1.977-1.945-4.723 4.82zm-.691-16.418c-10.531 0-19.078 8.547-19.078 19.078s8.547 19.078 19.078 19.078 19.078-8.547 19.078-19.078-8.547-19.078-19.078-19.078zm0 .484c10.27 0 18.594 8.324 18.594 18.594s-8.324 18.598-18.594 18.598-18.598-8.324-18.598-18.598 8.324-18.594 18.598-18.594zm0 0" class="F"/><use href="#z" x="604.226" y="424.289"/><g class="B C D K"><path d="M607.433 372.398v-35.867"/><use href="#AO" x="373.922"/><use href="#AO" x="312.875"/></g><path d="M36.246 314.019H607.05a4.61 4.61 0 0 1 .895.09 4.73 4.73 0 0 1 .859.258c.277.117.543.258.793.426s.48.355.691.566.402.445.57.695a4.41 4.41 0 0 1 .422.793 4.37 4.37 0 0 1 .262.859 4.53 4.53 0 0 1 .086.891v21.367c0 .301-.027.598-.086.895a4.45 4.45 0 0 1-.262.859 4.38 4.38 0 0 1-.422.789 4.43 4.43 0 0 1-.57.695 4.63 4.63 0 0 1-.691.57 4.41 4.41 0 0 1-.793.422 4.45 4.45 0 0 1-.859.262c-.297.059-.594.086-.895.086H36.246a4.53 4.53 0 0 1-.891-.086 4.37 4.37 0 0 1-.859-.262 4.41 4.41 0 0 1-.793-.422c-.25-.168-.48-.359-.691-.57a4.43 4.43 0 0 1-.57-.695c-.168-.25-.309-.512-.426-.789a4.73 4.73 0 0 1-.258-.859 4.6 4.6 0 0 1-.09-.895v-21.367a4.53 4.53 0 0 1 .09-.891 4.64 4.64 0 0 1 .258-.859c.117-.277.258-.543.426-.793s.355-.48.57-.695.441-.402.691-.566.516-.309.793-.426a4.64 4.64 0 0 1 .859-.258 4.53 4.53 0 0 1 .891-.09zm0 0" class="G K P"/><g transform="translate(-43.883 -37.129)"><use href="#y" x="336.26" y="363.74"/><use href="#x" x="341.774" y="363.74"/><use href="#x" x="346.911" y="363.74"/><use href="#j" x="352.049" y="363.74"/><use href="#l" x="355.787" y="363.74"/><use href="#f" x="358.103" y="363.74"/><use href="#t" x="363.723" y="363.74"/><use href="#AC" x="371.119" y="363.74"/><use href="#AD" x="376.569" y="363.74"/><use href="#AE" x="381.322" y="363.74"/><use href="#AF" x="387.117" y="363.74"/><use href="#AH" x="356.84" y="375.187"/><use href="#AM" x="360.009" y="375.187"/><use href="#AJ" x="363.5" y="375.187"/><use href="#AK" x="367.133" y="375.187"/><use href="#AL" x="371.736" y="375.187"/></g><g class="C D J"><path d="M329.394 290.988l7.137-7.875h91.57v-61.047l61.051-61.051v-15.262l-30.523-38.156V61.812l-10.457-5.48" class="B"/><path d="M444.113 54.211l6.82.133-2.762 1.988-.066 3.414zm0 0" class="I"/></g><use href="#AQ" class="L"/><path d="M327.387 272.598l-2.234 3.207h1.488v3.395a4.52 4.52 0 0 0-1.816.754l-2.418-2.395 1.043-1.047-3.844-.699.707 3.836 1.047-1.051 2.426 2.402a4.39 4.39 0 0 0-.723 1.762h-3.418v-1.48l-3.223 2.199 3.223 2.227v-1.48h3.41a4.4 4.4 0 0 0 .738 1.773l-2.418 2.41-1.047-1.047-.691 3.848 3.836-.719-1.051-1.043 2.418-2.406c.535.383 1.152.633 1.801.742v3.402h-1.488l2.234 3.207 2.207-3.207h-1.48v-3.395c.641-.117 1.25-.367 1.785-.742l2.426 2.398-1.043 1.051 3.859.68-.723-3.816-1.055 1.047-2.418-2.395c.375-.535.633-1.145.738-1.789h3.418v1.48l3.223-2.227-3.223-2.199v1.48h-3.41a4.37 4.37 0 0 0-.754-1.793l2.41-2.41 1.055 1.047.707-3.824-3.852.695 1.047 1.043-2.414 2.414a4.3 4.3 0 0 0-1.777-.727v-3.402h1.48zm-11.727-2.457c-.902 0-1.641.734-1.641 1.633v23.445c0 .898.738 1.633 1.641 1.633h23.426c.902 0 1.641-.734 1.641-1.633v-23.445c0-.898-.738-1.633-1.641-1.633zm0 .742h23.426c.504 0 .902.387.902.891v23.445c0 .5-.398.891-.902.891H315.66c-.504 0-.902-.391-.902-.891v-23.445c0-.504.398-.891.902-.891zm0 0" class="I"/><use href="#AQ" x="-70.969" class="L"/><path d="M256.418 272.598l-2.234 3.207h1.488v3.395a4.52 4.52 0 0 0-1.816.754l-2.418-2.395 1.043-1.047-3.844-.699.707 3.836 1.047-1.051 2.426 2.402a4.39 4.39 0 0 0-.723 1.762h-3.418v-1.48l-3.223 2.199 3.223 2.227v-1.48h3.41a4.4 4.4 0 0 0 .738 1.773l-2.418 2.41-1.047-1.047-.691 3.848 3.836-.719-1.051-1.043 2.418-2.406c.535.383 1.152.633 1.801.742v3.402h-1.488l2.234 3.207 2.207-3.207h-1.48v-3.395c.641-.117 1.25-.367 1.785-.742l2.426 2.398-1.043 1.051 3.859.68-.723-3.816-1.055 1.047-2.418-2.395a4.4 4.4 0 0 0 .738-1.789h3.418v1.48l3.223-2.227-3.223-2.199v1.48h-3.41a4.42 4.42 0 0 0-.754-1.793l2.41-2.41 1.055 1.047.707-3.824-3.852.695 1.043 1.043-2.41 2.414a4.3 4.3 0 0 0-1.777-.727v-3.402h1.48zm-11.727-2.457c-.902 0-1.641.734-1.641 1.633v23.445c0 .898.738 1.633 1.641 1.633h23.426c.902 0 1.641-.734 1.641-1.633v-23.445c0-.898-.738-1.633-1.641-1.633zm0 .742h23.426c.504 0 .902.387.902.891v23.445c0 .5-.398.891-.902.891h-23.426c-.504 0-.902-.391-.902-.891v-23.445c0-.504.398-.891.902-.891zm0 0" class="I"/><g class="C D K"><path d="M588.379 52.191l-15.285 9.621v45.785l-30.523 38.156v15.262l61.047 61.051.102 92.031" class="B"/><path d="M592.254 49.75l-3.539 5.836-.336-3.395-2.914-1.773zm0 0" class="M"/></g><path d="M410.172 268.234h212.141c.301 0 .602.027.895.086a4.65 4.65 0 0 1 .859.262c.277.113.543.258.793.422s.48.359.691.57a4.43 4.43 0 0 1 .57.695c.168.25.309.512.422.789a4.45 4.45 0 0 1 .262.859 4.6 4.6 0 0 1 .09.895v21.367a4.6 4.6 0 0 1-.09.895c-.059.293-.145.578-.262.855s-.254.543-.422.793-.355.48-.57.695-.441.402-.691.566a4.69 4.69 0 0 1-.793.426c-.277.113-.562.199-.859.258a4.57 4.57 0 0 1-.895.09H410.172a4.57 4.57 0 0 1-.895-.09 4.64 4.64 0 0 1-.859-.258c-.277-.117-.543-.258-.793-.426s-.48-.355-.691-.566-.402-.445-.57-.695-.309-.512-.422-.793-.203-.562-.262-.855a4.6 4.6 0 0 1-.09-.895v-21.367a4.61 4.61 0 0 1 .09-.895 4.45 4.45 0 0 1 .262-.859c.113-.277.254-.539.422-.789a4.43 4.43 0 0 1 .57-.695c.211-.211.441-.402.691-.57s.516-.309.793-.422a4.65 4.65 0 0 1 .859-.262c.293-.059.594-.086.895-.086zm0 0" class="G J L"/><g transform="translate(-43.883 -37.129)"><use href="#y" x="502.499" y="317.954"/><use href="#e" x="508.012" y="317.954"/><use href="#y" x="513.543" y="317.954"/><use href="#AA" x="521.435" y="317.954"/><use href="#c" x="527.35" y="317.954"/><use href="#AB" x="534.965" y="317.954"/><use href="#v" x="543.232" y="317.954"/><use href="#f" x="548.325" y="317.954"/><use href="#v" x="553.946" y="317.954"/><use href="#t" x="559.039" y="317.954"/><use href="#x" x="564.055" y="317.954"/><use href="#s" x="569.193" y="317.954"/><use href="#x" x="577.711" y="317.954"/><use href="#f" x="582.848" y="317.954"/><use href="#o" x="588.469" y="317.954"/><use href="#AC" x="594.08" y="317.954"/><use href="#AD" x="599.531" y="317.954"/><use href="#AE" x="604.284" y="317.954"/><use href="#AF" x="610.079" y="317.954"/><use href="#AH" x="551.445" y="329.4"/><use href="#AI" x="554.613" y="329.4"/><use href="#AJ" x="558.104" y="329.4"/><use href="#AK" x="561.738" y="329.4"/><use href="#AL" x="566.34" y="329.4"/></g><use href="#AQ" x="72.113" class="L"/><path d="M399.504 272.598l-2.238 3.207h1.488v3.395a4.52 4.52 0 0 0-1.816.754l-2.418-2.395 1.043-1.047-3.844-.699.711 3.836 1.043-1.051 2.426 2.402a4.39 4.39 0 0 0-.723 1.762h-3.418v-1.48l-3.223 2.199 3.223 2.227v-1.48h3.41a4.4 4.4 0 0 0 .738 1.773l-2.418 2.41-1.047-1.047-.691 3.848 3.836-.719-1.051-1.043 2.418-2.406c.535.383 1.152.633 1.801.742v3.402h-1.488l2.238 3.207 2.203-3.207h-1.48v-3.395c.641-.117 1.25-.367 1.785-.742l2.426 2.398-1.043 1.051 3.859.68-.723-3.816-1.055 1.047-2.418-2.395c.375-.535.633-1.145.738-1.789h3.422v1.48l3.219-2.227-3.219-2.199v1.48h-3.414a4.37 4.37 0 0 0-.754-1.793l2.41-2.41 1.055 1.047.711-3.824-3.855.695 1.047 1.043-2.414 2.414a4.28 4.28 0 0 0-1.777-.727v-3.402h1.48zm-11.73-2.457c-.902 0-1.641.734-1.641 1.633v23.445c0 .898.738 1.633 1.641 1.633h23.426c.902 0 1.641-.734 1.641-1.633v-23.445c0-.898-.738-1.633-1.641-1.633zm0 .742h23.426c.504 0 .902.387.902.891v23.445c0 .5-.398.891-.902.891h-23.426c-.504 0-.902-.391-.902-.891v-23.445c0-.504.398-.891.902-.891zm0 0" class="I"/></svg>